<svg width="22" height="21" viewBox="0 0 22 21" fill="none" xmlns="http://www.w3.org/2000/svg">
<path d="M10.9594 0.03125C5.34023 0.03125 0.7875 4.625 0.7875 10.2031C0.7875 15.8223 5.34023 20.375 10.9594 20.375C16.5375 20.375 21.1313 15.8223 21.1313 10.2031C21.1313 4.625 16.5375 0.03125 10.9594 0.03125ZM17.6449 4.74805C18.8754 6.22461 19.6137 8.11133 19.6137 10.1621C19.3266 10.0801 16.4555 9.50586 13.5844 9.875C13.3383 9.30078 13.1332 8.80859 12.8051 8.15234C16.0453 6.83984 17.4809 4.99414 17.6449 4.74805ZM16.7016 3.72266C16.5375 3.96875 15.225 5.73242 12.1488 6.88086C10.7133 4.25586 9.15469 2.12305 8.90859 1.79492C11.6566 1.13867 14.5688 1.83594 16.7016 3.72266ZM7.22695 2.36914C7.47305 2.69727 9.03164 4.83008 10.4672 7.41406C6.40664 8.48047 2.83828 8.48047 2.42813 8.43945C3.00234 5.77344 4.80703 3.51758 7.22695 2.36914ZM2.26406 10.2441C2.26406 10.1621 2.26406 10.0801 2.26406 9.95703C2.6332 9.99805 6.85781 10.0391 11.1645 8.72656C11.4516 9.21875 11.6566 9.71094 11.9027 10.2031C8.74453 11.1055 5.87344 13.6484 4.47891 16.0273C3.08438 14.5098 2.26406 12.459 2.26406 10.2441ZM5.58633 17.0938C6.52969 15.248 8.99063 12.8281 12.477 11.6387C13.7074 14.7969 14.1996 17.4629 14.3227 18.2422C11.5336 19.4316 8.17031 19.1035 5.58633 17.0938ZM15.7992 17.4219C15.7172 16.9297 15.225 14.3867 14.1176 11.2285C16.8246 10.8184 19.2035 11.5156 19.5316 11.5977C19.1215 14.0176 17.727 16.1094 15.7992 17.4219Z" fill="#303030"/>
</svg>
