<svg width="20" height="19" viewBox="0 0 20 19" fill="none" xmlns="http://www.w3.org/2000/svg">
<path d="M10.1781 4.48633C7.55313 4.48633 5.46133 6.61914 5.46133 9.20312C5.46133 11.8281 7.55313 13.9199 10.1781 13.9199C12.7621 13.9199 14.8949 11.8281 14.8949 9.20312C14.8949 6.61914 12.7621 4.48633 10.1781 4.48633ZM10.1781 12.2793C8.49648 12.2793 7.10195 10.9258 7.10195 9.20312C7.10195 7.52148 8.45547 6.16797 10.1781 6.16797C11.8598 6.16797 13.2133 7.52148 13.2133 9.20312C13.2133 10.9258 11.8598 12.2793 10.1781 12.2793ZM16.1664 4.32227C16.1664 3.70703 15.6742 3.21484 15.059 3.21484C14.4438 3.21484 13.9516 3.70703 13.9516 4.32227C13.9516 4.9375 14.4438 5.42969 15.059 5.42969C15.6742 5.42969 16.1664 4.9375 16.1664 4.32227ZM19.2836 5.42969C19.2016 3.95312 18.8734 2.64062 17.807 1.57422C16.7406 0.507812 15.4281 0.179688 13.9516 0.0976562C12.434 0.015625 7.88125 0.015625 6.36367 0.0976562C4.88711 0.179688 3.61563 0.507812 2.5082 1.57422C1.4418 2.64062 1.11367 3.95312 1.03164 5.42969C0.94961 6.94727 0.94961 11.5 1.03164 13.0176C1.11367 14.4941 1.4418 15.7656 2.5082 16.873C3.61563 17.9395 4.88711 18.2676 6.36367 18.3496C7.88125 18.4316 12.434 18.4316 13.9516 18.3496C15.4281 18.2676 16.7406 17.9395 17.807 16.873C18.8734 15.7656 19.2016 14.4941 19.2836 13.0176C19.3656 11.5 19.3656 6.94727 19.2836 5.42969ZM17.3148 14.6172C17.0277 15.4375 16.3715 16.0527 15.5922 16.3809C14.3617 16.873 11.4906 16.75 10.1781 16.75C8.82461 16.75 5.95352 16.873 4.76406 16.3809C3.94375 16.0527 3.32852 15.4375 3.00039 14.6172C2.5082 13.4277 2.63125 10.5566 2.63125 9.20312C2.63125 7.89062 2.5082 5.01953 3.00039 3.78906C3.32852 3.00977 3.94375 2.39453 4.76406 2.06641C5.95352 1.57422 8.82461 1.69727 10.1781 1.69727C11.4906 1.69727 14.3617 1.57422 15.5922 2.06641C16.3715 2.35352 16.9867 3.00977 17.3148 3.78906C17.807 5.01953 17.684 7.89062 17.684 9.20312C17.684 10.5566 17.807 13.4277 17.3148 14.6172Z" fill="#303030"/>
</svg>
