<svg width="19" height="19" viewBox="0 0 19 19" fill="none" xmlns="http://www.w3.org/2000/svg">
<path d="M17.4438 0.015625H1.65273C0.955469 0.015625 0.38125 0.630859 0.38125 1.36914V17.0781C0.38125 17.8164 0.955469 18.3906 1.65273 18.3906H17.4438C18.141 18.3906 18.7563 17.8164 18.7563 17.0781V1.36914C18.7563 0.630859 18.141 0.015625 17.4438 0.015625ZM5.91836 15.7656H3.21133V7.0293H5.91836V15.7656ZM4.56484 5.79883C3.6625 5.79883 2.96523 5.10156 2.96523 4.24023C2.96523 3.37891 3.6625 2.64062 4.56484 2.64062C5.42617 2.64062 6.12344 3.37891 6.12344 4.24023C6.12344 5.10156 5.42617 5.79883 4.56484 5.79883ZM16.1313 15.7656H13.3832V11.5C13.3832 10.5156 13.3832 9.20312 11.9887 9.20312C10.5531 9.20312 10.348 10.3105 10.348 11.459V15.7656H7.64102V7.0293H10.225V8.21875H10.266C10.6352 7.52148 11.5375 6.7832 12.85 6.7832C15.598 6.7832 16.1313 8.62891 16.1313 10.9668V15.7656Z" fill="#303030"/>
</svg>
