<svg width="23" height="22" viewBox="0 0 23 22" fill="none" xmlns="http://www.w3.org/2000/svg">
<path d="M22.0551 4.83008C21.809 3.8457 21.0297 3.06641 20.0863 2.82031C18.3227 2.32812 11.35 2.32812 11.35 2.32812C11.35 2.32812 4.33633 2.32812 2.57266 2.82031C1.6293 3.06641 0.85 3.8457 0.603907 4.83008C0.111719 6.55273 0.111719 10.2441 0.111719 10.2441C0.111719 10.2441 0.111719 13.8945 0.603907 15.6582C0.85 16.6426 1.6293 17.3809 2.57266 17.627C4.33633 18.0781 11.35 18.0781 11.35 18.0781C11.35 18.0781 18.3227 18.0781 20.0863 17.627C21.0297 17.3809 21.809 16.6426 22.0551 15.6582C22.5473 13.8945 22.5473 10.2441 22.5473 10.2441C22.5473 10.2441 22.5473 6.55273 22.0551 4.83008ZM9.05313 13.5664V6.92188L14.8773 10.2441L9.05313 13.5664Z" fill="#303030"/>
</svg>
