<?xml version="1.0" standalone="no"?>
<!DOCTYPE svg PUBLIC "-//W3C//DTD SVG 1.1//EN" "http://www.w3.org/Graphics/SVG/1.1/DTD/svg11.dtd" >
<svg xmlns="http://www.w3.org/2000/svg" xmlns:xlink="http://www.w3.org/1999/xlink" version="1.1">
<metadata>
Created by FontForge 20170731 at Sun Apr 18 18:28:41 2021
 By Aleksey,,,
Copyright (c) 2021 by Martype Company.  All right reserved.
</metadata>
<defs>
<font id="ThickThinks-Regular" horiz-adv-x="572" >
  <font-face 
    font-family="Thick Thinks"
    font-weight="400"
    font-stretch="normal"
    units-per-em="1000"
    panose-1="0 0 0 0 0 0 0 0 0 0"
    ascent="800"
    descent="-200"
    x-height="500"
    cap-height="700"
    bbox="-150 -362 1059 915"
    underline-thickness="50"
    underline-position="-175"
    unicode-range="U+000D-1F643"
  />
<missing-glyph horiz-adv-x="250" 
 />
    <glyph glyph-name="f_f" unicode="ff" horiz-adv-x="630" 
d="M0 480v20h40v10q0 64 9.5 105t29 64t49 32t69.5 9q31 0 56 -4.5t42.5 -16t27 -32t9.5 -52.5q0 -27 -6.5 -45t-17.5 -29.5t-25 -16.5t-29 -5q-20 0 -38.5 7.5t-30.5 19.5q8 12 12 37.5t3 51.5t-6 45.5t-14 19.5t-15.5 -18t-6.5 -60q0 -37 7 -60.5t21 -37t35 -19t49 -5.5
h85v10q0 64 9.5 105t29 64t49 32t69.5 9q81 0 124 -25.5t43 -89.5q0 -25 -7.5 -42.5t-20 -28t-29 -15t-33.5 -4.5q-27 0 -51.5 9t-37.5 22q8 12 12 37.5t3 51.5t-6 45.5t-14 19.5t-15.5 -18t-6.5 -60q0 -37 7 -60.5t21 -37t35 -19t49 -5.5h50v-20h-50v-112v-90t1 -97
t3.5 -96t6.5 -85h-252q4 39 6.5 87.5t3.5 99t1 100.5v93v100h-85v-112v-90t1 -97t3.5 -96t6.5 -85h-252q4 39 6.5 87.5t3.5 99t1 100.5v93v100h-40z" />
    <glyph glyph-name="fi" unicode="fi" horiz-adv-x="584" 
d="M5 480v20h40v10q0 71 25 111.5t63.5 60t83.5 24t85 4.5q41 0 87 -1.5t85.5 -11.5t65.5 -31.5t26 -60.5q0 -25 -13.5 -42.5t-35 -28t-49 -15t-55.5 -4.5q-44 0 -81.5 9t-50.5 22q8 12 12 37.5t3.5 51.5t-5 45.5t-13.5 19.5q-4 0 -9 -4t-8.5 -14.5t-6 -30t-2.5 -51.5
q0 -50 12.5 -75t28.5 -25h276q-4 -26 -6.5 -57.5t-3.5 -65t-1 -66v-61.5v-61t1 -66.5t3.5 -65t6.5 -57.5h-252q4 24 6.5 54.5t3.5 62t1 63v58.5v55t-1 63.5t-2.5 64.5t-4.5 59h-44l-1 -112v-90t1 -97t3.5 -96t6.5 -85h-252q4 39 6.5 87.5t3.5 99t1 100.5v93v100h-40z" />
    <glyph glyph-name="fl" unicode="fl" horiz-adv-x="593" 
d="M325 0q4 35 6.5 78.5t3.5 89.5t1 91v84v66t-1 71h-59l-1 -112v-90t1 -97t3.5 -96t6.5 -85h-252q4 39 6.5 87.5t3.5 99t1 100.5v93v100h-40v20h40v10q0 71 26 113t65.5 63.5t85.5 27.5t86 6t77 -4t66 -16l127 10q-4 -37 -6.5 -82.5t-3.5 -92.5t-1.5 -94t-0.5 -87v-86.5
t1 -94t3.5 -92.5t6.5 -81h-252zM308 700q-4 0 -10 -4t-10.5 -14.5t-8 -30t-3.5 -51.5v-100h59v9l-1 18v9q-2 34 -3 64t-3 52t-6.5 35t-13.5 13z" />
    <glyph glyph-name="f_h" unicode="fh" horiz-adv-x="846" 
d="M572 0h-252q4 35 6.5 78.5t3.5 89.5t1 91v84v66t-1 71h-59l-1 -112v-90t1 -97t3.5 -96t6.5 -85h-252q4 39 6.5 87.5t3.5 99t1 100.5v93v100h-40v20h40v10q0 71 26 113t65.5 63.5t85.5 27.5t86 6t77 -4t66 -16l127 10q-3 -31 -5.5 -68t-4 -77t-2 -80t-0.5 -77
q4 17 12.5 35t23.5 33t36.5 24.5t52.5 9.5q50 0 77.5 -15.5t40.5 -42t16 -62t3 -75.5v-67.5t1 -82.5t2.5 -86t4.5 -79h-240q4 33 6.5 74.5t3.5 82.5t1 79v65t-1 44t-3 26.5t-5 13t-8 3.5q-12 0 -17.5 -30.5t-6.5 -85.5q0 -70 2.5 -143t8.5 -129zM271 500h59v31.5t-1 41.5
t-2.5 44.5t-4.5 41t-7.5 30t-11.5 11.5q-4 0 -10 -4t-10.5 -14.5t-8 -30t-3.5 -51.5v-100z" />
    <glyph glyph-name="f_k" unicode="fk" horiz-adv-x="871" 
d="M0 480v20h50v10q0 71 26 113t65.5 63.5t85.5 27.5t86 6t77 -4t66 -16l127 10q-4 -37 -6.5 -82.5t-3.5 -92.5t-1.5 -94t-0.5 -87v-58q6 9 13 23t12.5 36.5t9 57.5t1.5 86h63.5h67.5t60.5 0.5t40.5 0.5q8 -16 11 -46t3 -53q0 -46 -14 -75t-36 -45.5t-50 -22t-56 -5.5
q-26 0 -50 3t-41 5q12 -5 24 -11t26.5 -11.5t33.5 -9t44 -3.5q29 0 61 10.5t56 32.5l5 -1q-2 -24 -3 -55.5t-1.5 -66t0.5 -70t4 -68.5q-24 -8 -50.5 -13t-71.5 -5t-72.5 19t-43 47t-21.5 61t-9 61.5t-5.5 48t-11.5 19.5q1 -65 3 -130t8 -116h-252q4 35 6.5 78.5t3.5 89.5
t1 91v84v34l-1 69v34h-59l-1 -112v-90t1 -97t3.5 -96t6.5 -85h-252q4 39 6.5 87.5t3.5 99t1 100.5v93v100h-50zM281 500h59v24.5t-0.5 40t-2 46t-4.5 43.5t-8 33t-12 13q-4 0 -10 -4t-10.5 -14.5t-8 -30t-3.5 -51.5v-100z" />
    <glyph glyph-name="f_t" unicode="ft" horiz-adv-x="613" 
d="M0 480v20h40v10q0 64 9.5 105t29 64t49 32t69.5 9q81 0 124 -25.5t43 -89.5q0 -25 -7.5 -42.5t-20 -28t-29 -15t-33.5 -4.5q-27 0 -51.5 9t-37.5 22q8 12 13 37.5t6 51.5t-3 45.5t-13 19.5t-19.5 -18t-10.5 -60q0 -37 7 -60.5t21 -37t35 -19t49 -5.5h30l283 123
q-6 -56 -9 -123h49v-20h-50q-2 -47 -2 -92.5v-83.5v-74.5t1 -81t3.5 -79t6.5 -69.5h-252q7 55 10 115.5t4 122.5t0.5 123.5t-0.5 118.5h-74v-112v-90t1 -97t3.5 -96t6.5 -85h-252q4 39 6.5 87.5t3.5 99t1 100.5v93v100h-40z" />
    <glyph glyph-name="f_b" unicode="fb" horiz-adv-x="849" 
d="M0 480v20h40v10q0 71 26 113t65.5 63.5t85.5 27.5t86 6t77 -4t66 -16l127 10q-5 -49 -7.5 -111t-3.5 -125q5 17 24 28.5t69 11.5q44 0 78 -11.5t57.5 -40.5t36 -80t12.5 -131t-12.5 -130.5t-36 -79.5t-57.5 -40t-77 -11q-37 0 -57 8.5t-29 20.5q1 -5 1 -9.5t1 -9.5h-252
q4 35 6.5 78.5t3.5 89.5t1 91v84v66t-1 71h-59l-1 -112v-90t1 -97t3.5 -96t6.5 -85h-252q4 39 6.5 87.5t3.5 99t1 100.5v93v100h-40zM271 500h59v31.5t-1 41.5t-2.5 44.5t-4.5 41t-7.5 30t-11.5 11.5q-4 0 -10 -4t-10.5 -14.5t-8 -30t-3.5 -51.5v-100zM582 38q3 0 8 7
t9 29.5t7 64.5t3 113q0 77 -2.5 120.5t-6.5 64.5t-8.5 26t-7.5 5q-4 0 -8 -6.5t-7 -28.5t-5 -65t-2 -115t1.5 -115t4 -65t6.5 -28.5t8 -6.5z" />
    <glyph glyph-name="f_j" unicode="fj" horiz-adv-x="608" 
d="M573 -10q0 -90 -15 -145.5t-44 -85.5t-71 -40t-96 -10q-37 0 -70.5 8t-58 24t-39 39.5t-14.5 54.5q0 30 9.5 49.5t25 31.5t35 17t38.5 5q23 0 44.5 -5.5t33.5 -13.5q-9 -33 -8 -66.5t8 -61t17.5 -45t20.5 -17.5q11 0 12 19.5t-4 48.5t-14.5 63.5t-18 64.5t-15 51t-6.5 23
v239v55t-1 63.5t-2.5 64.5t-4.5 59h-59l-1 -112v-90t1 -97t3.5 -96t6.5 -85h-252q4 39 6.5 87.5t3.5 99t1 100.5v93v100h-40v20h40v10q0 71 25 111.5t63.5 60t83.5 24t85 4.5q41 0 87 -1.5t85.5 -11.5t65.5 -31.5t26 -60.5q0 -25 -13.5 -42.5t-35 -28t-49 -15t-55.5 -4.5
q-44 0 -81.5 9t-50.5 22q8 12 12 37.5t3.5 51.5t-5 45.5t-13.5 19.5q-4 0 -9 -4t-8.5 -14.5t-6 -30t-2.5 -51.5q0 -50 12.5 -75t28.5 -25h291q-4 -26 -6.5 -57.5t-3.5 -65t-1 -66v-61.5v-260z" />
    <glyph glyph-name=".notdef" horiz-adv-x="250" 
 />
    <glyph glyph-name=".null" horiz-adv-x="0" 
 />
    <glyph glyph-name="uni000D" unicode="&#xd;" horiz-adv-x="333" 
 />
    <glyph glyph-name="space" unicode=" " horiz-adv-x="300" 
 />
    <glyph glyph-name="exclam" unicode="!" horiz-adv-x="318" 
d="M159 710q30 0 58 -7t49 -22t34 -38.5t13 -57.5q0 -32 -10.5 -57t-26.5 -47.5t-35 -46t-35 -55t-26.5 -72.5t-10.5 -99h-20q0 58 -10.5 99t-26.5 72.5t-35 55t-35 46t-26.5 47.5t-10.5 57q0 34 13 57.5t34 38.5t49 22t58 7zM160 170q57 0 91 -21t34 -70t-34 -69t-91 -20
t-91 20t-34 69t34 70t91 21z" />
    <glyph glyph-name="quotedbl" unicode="&#x22;" horiz-adv-x="416" 
d="M306 438q0 32 -13.5 55.5t-30 43.5t-30 41t-13.5 48q0 43 27.5 63.5t69.5 20.5t68.5 -20.5t26.5 -63.5q0 -27 -14 -48t-31 -41t-31 -43.5t-14 -55.5h-15zM92 438q0 32 -13.5 55.5t-30 43.5t-30 41t-13.5 48q0 43 27.5 63.5t69.5 20.5t68.5 -20.5t26.5 -63.5
q0 -27 -14 -48t-31 -41t-31 -43.5t-14 -55.5h-15z" />
    <glyph glyph-name="numbersign" unicode="#" horiz-adv-x="582" 
d="M359 206h-219l-51 -206h-20l51 206h-105v22h111l66 266h-135v20h140l46 186h20l-46 -186h219l46 186h20l-46 -186h101v-20h-106l-66 -266h131v-22h-137l-51 -206h-20zM365 228l66 266h-219l-66 -266h219z" />
    <glyph glyph-name="dollar" unicode="$" horiz-adv-x="515" 
d="M16 345q16 -22 41.5 -46t56 -48t65 -46.5t68.5 -41.5q5 -2 10 -5l10 -6q45 -24 81.5 -38.5t54.5 -14.5q15 0 15 10q0 2 -12 8t-33 15t-48.5 21.5t-57.5 28.5q-5 2 -10 5l-10 6q-41 23 -82.5 52t-74.5 64.5t-54 77.5t-21 90q0 45 10.5 79t29 57t43 35t52.5 12h97v90h20
v-90q28 0 58 1t58.5 2.5t54.5 4t47 5.5q-3 -39 -4.5 -71.5t-1.5 -64t1 -64t2 -72.5h-2q-54 59 -110 107t-103 80q-5 3 -10 6.5t-10 6.5q-56 36 -78 36q-7 0 -7 -7q0 -5 13.5 -16t31 -23t35 -22.5t25.5 -15.5q37 -24 77.5 -54.5t74.5 -69t56.5 -84.5t23.5 -101
q1 -58 -15.5 -99t-47 -67t-73 -38.5t-92.5 -12.5h-4v-101h-20v101q-68 1 -126.5 7.5t-103.5 6.5q2 42 3 79t1 73t-1.5 73t-4.5 79h1z" />
    <glyph glyph-name="percent" unicode="%" horiz-adv-x="690" 
d="M169 385q-47 0 -75.5 15.5t-43.5 39t-20 52.5t-5 56q0 28 5 57t20 52.5t43.5 38.5t75.5 15q46 0 74 -15t43 -38.5t20 -52.5t5 -57t-5 -57t-20 -52.5t-43 -38.5t-74 -15zM168 395q9 0 12.5 41t3.5 115q0 150 -16 150t-16 -150q0 -75 3.5 -115.5t12.5 -40.5zM97 0l434 700
h30l-434 -700h-30zM492 -10q-47 0 -75.5 15.5t-43.5 39t-20 52.5t-5 56q0 28 5 57t20 52.5t43.5 38.5t75.5 15q46 0 74 -15t43 -38.5t20 -52.5t5 -57t-5 -57t-20 -52.5t-43 -38.5t-74 -15zM491 0q9 0 12.5 41t3.5 115q0 150 -16 150t-16 -150q0 -75 3.5 -115.5t12.5 -40.5z
" />
    <glyph glyph-name="ampersand" unicode="&#x26;" horiz-adv-x="760" 
d="M495 -95q0 27 -7.5 59t-21.5 67q-21 -17 -62 -29t-102 -12q-64 0 -116.5 21.5t-90.5 59.5t-59 91t-21 116q0 43 12.5 78t34 60.5t51 41t63.5 19.5q-31 34 -55 56.5t-37 27.5v139h489l13 -205h-4q-26 4 -61.5 5.5t-75 1.5t-81 -0.5t-79.5 -0.5l-1 -4q32 -17 73.5 -47
t86.5 -70.5t89.5 -90t83.5 -104.5q-1 27 -13.5 60.5t-33.5 63.5t-48.5 50t-57.5 20q0 23 10.5 40.5t28 29.5t40.5 18t48 6q28 0 55.5 -8t49.5 -24.5t35.5 -41.5t13.5 -59q0 -37 -8.5 -67t-22.5 -54t-32.5 -42t-38.5 -31q36 -57 61.5 -118t33.5 -123h-243zM449 70
q-22 48 -51 98.5t-61.5 99t-66 93.5t-65.5 82q6 -24 21.5 -58t37 -72t47 -76.5t50.5 -72t48 -58.5t40 -36z" />
    <glyph glyph-name="quotesingle" unicode="'" horiz-adv-x="202" 
d="M92 438q0 32 -13.5 55.5t-30 43.5t-30 41t-13.5 48q0 43 27.5 63.5t69.5 20.5t68.5 -20.5t26.5 -63.5q0 -27 -14 -48t-31 -41t-31 -43.5t-14 -55.5h-15z" />
    <glyph glyph-name="parenleft" unicode="(" horiz-adv-x="389" 
d="M384 -137l-6 -8q-91 0 -159.5 17t-113.5 63t-67.5 125.5t-22.5 203.5q0 122 25 200.5t72 125t114.5 64.5t151.5 18l6 -8q-34 -12 -58.5 -39t-41 -62.5t-26 -77t-15 -82t-7 -77t-1.5 -62.5t1.5 -63t7 -77.5t15 -82t26 -77t41 -62.5t58.5 -39z" />
    <glyph glyph-name="parenright" unicode=")" horiz-adv-x="389" 
d="M5 -137q34 12 58.5 39t41 62.5t26 77t15 82t7 77.5t1.5 63t-1.5 62.5t-7 77t-15 82t-26 77t-41 62.5t-58.5 39l6 8q84 0 151.5 -18t114.5 -64.5t72 -125t25 -200.5q0 -124 -22.5 -203.5t-67.5 -125.5t-113 -63t-160 -17z" />
    <glyph glyph-name="asterisk" unicode="*" horiz-adv-x="291" 
d="M139 563q-8 -7 -13 -15t-9.5 -16t-11 -15.5t-17.5 -13.5q-10 -6 -23 -6q-19 0 -28 17q-6 12 -3.5 26t20.5 25q10 6 19.5 7t19 0.5t18.5 -0.5t19 3q-10 3 -19 3.5t-18.5 1t-19 2t-19.5 7.5q-19 11 -21 25t6 26q10 17 28 17q10 0 23 -7q11 -6 16.5 -14t10 -16t9.5 -16.5
t13 -15.5q-2 11 -7 19l-10 16t-8.5 17.5t-3.5 21.5q0 20 11 29.5t25 9.5t24.5 -9.5t10.5 -29.5q0 -12 -3.5 -21.5t-8.5 -17.5t-9.5 -16t-6.5 -19q8 7 12.5 15t9.5 16.5t11 16t17 13.5q12 6 22 6q19 0 29 -18q6 -12 3.5 -25.5t-20.5 -24.5q-10 -6 -19.5 -7.5t-18.5 -1.5h-18
t-19 -3q7 -2 13 -2.5t12 -0.5q12 0 24 -0.5t26 -8.5q19 -11 20.5 -25.5t-5.5 -26.5q-10 -17 -27 -17q-10 0 -24 8q-10 6 -16 13.5t-10.5 15t-8.5 15.5t-12 15q2 -10 6.5 -17.5t9 -15.5t8 -17t3.5 -21q0 -20 -10.5 -29.5t-24.5 -9.5t-25 9.5t-11 29.5q0 12 3.5 21t8.5 17.5
t10 16.5t7 18z" />
    <glyph glyph-name="plus" unicode="+" 
d="M86 279h185v180h30v-180h185v-30h-185v-180h-30v180h-185v30z" />
    <glyph glyph-name="comma" unicode="," horiz-adv-x="280" 
d="M265 98q0 -84 -46.5 -138.5t-130.5 -87.5l-19 29q29 26 44 48.5t23 40.5q-54 2 -87.5 32t-33.5 76q0 24 9.5 44.5t26.5 35t40 22.5t50 8q56 0 90 -30.5t34 -79.5z" />
    <glyph glyph-name="hyphen" unicode="-" horiz-adv-x="480" 
d="M40 280h400v-30h-400v30z" />
    <glyph glyph-name="period" unicode="." horiz-adv-x="280" 
d="M145 -10q-57 0 -93.5 30t-36.5 78q0 24 9.5 44.5t26.5 35t40 22.5t50 8q56 0 90 -30.5t34 -79.5q0 -48 -34 -78t-86 -30z" />
    <glyph glyph-name="slash" unicode="/" horiz-adv-x="426" 
d="M381 700h30l-366 -700h-30z" />
    <glyph glyph-name="zero" unicode="0" horiz-adv-x="631" 
d="M317 -10q-93 0 -150.5 28t-89 77.5t-42 116t-10.5 144.5q0 80 11 145.5t42.5 112t89 71.5t150.5 25t149.5 -25t87 -71.5t41 -112t10.5 -145.5q0 -79 -10.5 -146.5t-41 -116t-87.5 -76t-150 -27.5zM316 10q8 0 12 9.5t5.5 45.5t2 105.5t0.5 189.5q0 116 -0.5 182t-2 98.5
t-5.5 40.5t-12 8q-7 0 -11.5 -8t-6.5 -40.5t-2.5 -98.5t-0.5 -182q0 -120 0.5 -189.5t2.5 -105t6.5 -45.5t11.5 -10z" />
    <glyph glyph-name="one" unicode="1" horiz-adv-x="349" 
d="M61 0q4 36 6.5 80.5t3.5 91t1 92.5v86v44.5v49t-0.5 47t-0.5 40.5q-8 14 -15 24.5t-14.5 20t-16.5 19t-20 21.5v3l320 91h9q-4 -36 -6.5 -81.5t-4 -94t-1.5 -96.5v-88v-86t1 -92.5t3.5 -91t6.5 -80.5h-272z" />
    <glyph glyph-name="two" unicode="2" horiz-adv-x="573" 
d="M25 121q0 53 12 87.5t32 57.5t45.5 38t52.5 28t52.5 28t45.5 38t32 57.5t12 87.5q0 79 -2 113t-21 34q-24 0 -24 -119q0 -51 5 -78.5t18 -40.5q-19 -35 -56 -47t-77 -12q-63 0 -91.5 33.5t-28.5 118.5q0 54 18.5 86.5t52 50t80.5 23t103 5.5q46 0 92 -4.5t83.5 -24.5
t61 -61t23.5 -114q0 -65 -25 -107.5t-65 -69.5t-90.5 -42.5t-101.5 -26.5t-97 -22.5t-78 -29.5h69t82 2.5t86.5 9.5t82.5 21t70.5 36t49.5 54h5l-10 -331h-499v121z" />
    <glyph glyph-name="three" unicode="3" horiz-adv-x="567" 
d="M279 10q9 0 14 12.5t7 35t2 55v71.5q0 23 0.5 54.5t-8.5 60t-32 48.5t-70 20v29q47 0 70 22.5t32 53.5t8.5 62.5t-0.5 50.5q0 32 -1.5 52.5t-4.5 32t-7 15.5t-10 4q-24 0 -24 -100q0 -43 5 -66t18 -36q-18 -35 -54 -47t-74 -12q-60 0 -87.5 37t-27.5 97q0 52 17.5 81.5
t49 44t75.5 18t96 3.5q43 0 86.5 -3.5t78.5 -18.5t57 -45t22 -82q0 -37 -10 -65t-28 -48.5t-42 -34.5t-51 -23q32 -6 60.5 -18.5t49.5 -35.5t33.5 -57t12.5 -84q0 -73 -23.5 -114t-61 -61t-84.5 -24.5t-93 -4.5q-56 0 -103 4t-80.5 20.5t-52.5 49.5t-19 91q0 85 28.5 118.5
t91.5 33.5q41 0 76.5 -5.5t57.5 -25.5q-13 -13 -18.5 -43.5t-5.5 -88.5q0 -134 24 -134z" />
    <glyph glyph-name="four" unicode="4" horiz-adv-x="674" 
d="M336 0q3 29 5.5 64t4.5 73h-83t-86 -0.5t-83 -1t-73 -2.5v116h-1l1 1v2h2q28 29 58.5 66t61 78t59.5 84t54.5 83t46 75.5t33.5 61.5h272q-4 -36 -6.5 -80.5t-3.5 -91t-1 -92.5v-86v-100q19 1 38 1.5t39 1.5v-119q-20 1 -38.5 1.5t-36.5 0.5q2 -37 4 -72t5 -64h-272z
M288 248h59v102q0 52 -0.5 113t-2.5 120q-18 -13 -36 -97.5t-20 -237.5z" />
    <glyph glyph-name="five" unicode="5" horiz-adv-x="567" 
d="M500 457h-4q-12 10 -33.5 17t-48.5 11.5t-58 6.5t-63 2q-30 0 -59.5 -1.5t-55.5 -5.5l-4 -30q25 5 53 9t58 4q46 0 92 -11t82.5 -38.5t59.5 -74.5t23 -119t-23.5 -118.5t-61 -72.5t-84.5 -36t-93 -10q-56 0 -103 4.5t-80.5 22.5t-52.5 54.5t-19 100.5q0 59 7.5 97
t23.5 60.5t39.5 31.5t54.5 9q40 0 72 -11t51 -31q-13 -13 -15.5 -57t-2.5 -107q0 -72 6 -113t18 -41q19 0 21 60.5t2 184.5q0 42 -10 70.5t-27.5 45.5t-42.5 24.5t-55 7.5q-17 0 -34 -2t-36 -5l-24 14q9 43 14.5 76.5t9 65.5t5.5 67t5 81h390q-3 -24 -4.5 -49t-1 -53.5
t2.5 -63t6 -77.5z" />
    <glyph glyph-name="six" unicode="6" horiz-adv-x="611" 
d="M309 690q-7 0 -12 -16t-9 -41t-6 -57.5t-2.5 -64.5t-0.5 -62t2 -51l5 -1q10 23 25.5 32t45.5 11q35 2 75.5 -4t74.5 -28t56.5 -65t22.5 -115q0 -54 -15 -98t-47 -75t-81.5 -48t-119.5 -17q-67 0 -122 11.5t-94 48t-60.5 106t-21.5 185.5q0 123 20 196.5t58 111.5
t92.5 49.5t123.5 11.5q49 0 91.5 -3.5t73.5 -16.5t48.5 -39t17.5 -71q0 -66 -29 -95t-91 -29q-41 0 -73 5.5t-57 21.5q7 7 12 25t7.5 41t3.5 48t-0.5 45.5t-5 34t-8.5 13.5zM293 210q0 -99 4.5 -149.5t16.5 -50.5q6 0 10 10t6.5 33t3 61.5t0.5 95.5q0 63 -1 101.5t-3 59.5
t-6 27.5t-10 6.5q-5 0 -9 -6.5t-6.5 -27t-4 -59t-1.5 -102.5z" />
    <glyph glyph-name="seven" unicode="7" horiz-adv-x="474" 
d="M55 0q0 111 17.5 197.5t46 153t64.5 114.5t72 80.5t68.5 51.5t55.5 28v5q-50 -16 -100.5 -37.5t-97 -49t-87.5 -62t-73 -76.5h-6q2 43 3 78.5t1 69t-1 69t-3 78.5h454v-56l-11 -15.5t-27 -48.5t-34.5 -84t-34.5 -123t-26.5 -164.5t-10.5 -208.5h-270z" />
    <glyph glyph-name="eight" unicode="8" horiz-adv-x="616" 
d="M206 369q-49 7 -79 23t-46 37.5t-21 47t-5 50.5q0 56 21.5 92t57 56.5t81 28.5t92.5 8t92.5 -8t81.5 -28.5t58 -56.5t22 -92q0 -25 -5 -50.5t-21 -47t-46 -37.5t-79 -23v-2q64 -9 100.5 -28t54.5 -43t22 -50.5t4 -50.5q0 -58 -16.5 -97t-51 -62.5t-88.5 -33.5t-128 -10
t-127 10t-87.5 33.5t-51 62.5t-16.5 97q0 24 4 50.5t22 50.5t54.5 43t100.5 28v2zM308 378q3 0 6.5 5t6 20t4 43.5t1.5 75.5q0 59 -1.5 93t-4 50.5t-6 20.5t-6.5 4t-6.5 -4t-6 -20.5t-4 -50.5t-1.5 -93q0 -47 1.5 -75.5t4 -43.5t6 -20t6.5 -5zM288 187q0 -59 2 -94t5 -53.5
t6.5 -24t6.5 -5.5t6.5 5.5t6.5 24t5 53.5t2 94q0 63 -2 98t-5 51t-6.5 19t-6.5 3t-6.5 -3t-6.5 -19t-5 -51t-2 -98z" />
    <glyph glyph-name="nine" unicode="9" horiz-adv-x="611" 
d="M304 18q7 0 12 17t8 44t5 60.5t3 67.5t0 65t-2 52l-5 1q-10 -23 -30 -32t-59 -11q-46 -3 -85 6.5t-67 32.5t-43.5 60.5t-15.5 90.5q0 54 11 98t40 75t80 48t132 17q68 0 123 -11.5t94 -48t60 -106t21 -185.5q0 -123 -20 -196.5t-58 -111.5t-92.5 -49.5t-123.5 -11.5
q-49 0 -96.5 4t-84.5 18t-59.5 40.5t-22.5 71.5q0 33 4.5 59t18 43.5t39 27t67.5 9.5t81.5 -6.5t64.5 -16.5q-8 -46 -12 -86.5t-4 -70.5t4 -47.5t12 -17.5zM318 490q0 99 -3.5 149.5t-14.5 50.5q-5 0 -8.5 -10t-5.5 -33t-2.5 -61.5t-0.5 -95.5q0 -55 0.5 -89t2.5 -52.5
t5.5 -25t8.5 -6.5q4 0 7.5 6t5.5 25t3.5 53t1.5 89z" />
    <glyph glyph-name="colon" unicode=":" horiz-adv-x="234" 
d="M121 366q-49 0 -77.5 27t-28.5 72t28.5 73t74.5 28q48 0 74.5 -28t26.5 -73t-26.5 -72t-71.5 -27zM121 -10q-49 0 -77.5 27t-28.5 72t28.5 73t74.5 28q48 0 74.5 -28t26.5 -73t-26.5 -72t-71.5 -27z" />
    <glyph glyph-name="semicolon" unicode=";" horiz-adv-x="253" 
d="M130 366q-49 0 -77.5 27t-28.5 72t28.5 73t74.5 28q48 0 74.5 -28t26.5 -73t-26.5 -72t-71.5 -27zM52 -88q20 15 33 27.5t21 23.5t11.5 20.5t4.5 18.5q-21 -3 -39 2.5t-30.5 18t-20 30t-7.5 37.5q0 45 28.5 72.5t76.5 27.5q44 0 70.5 -27.5t26.5 -72.5
q0 -63 -42.5 -117.5t-119.5 -84.5z" />
    <glyph glyph-name="less" unicode="&#x3c;" horiz-adv-x="376" 
d="M30 334l316 183v-20l-296 -174v-8l296 -174v-20l-316 183v30z" />
    <glyph glyph-name="equal" unicode="=" horiz-adv-x="520" 
d="M35 354h450v-30h-450v30zM35 202h450v-30h-450v30z" />
    <glyph glyph-name="greater" unicode="&#x3e;" horiz-adv-x="376" 
d="M30 141l296 174v8l-296 174v20l316 -183v-30l-316 -183v20z" />
    <glyph glyph-name="question" unicode="?" horiz-adv-x="524" 
d="M259 690q-24 0 -24 -119q0 -15 1 -32.5t4 -34t7.5 -30t10.5 -19.5q-19 -35 -56 -47t-77 -12q-63 0 -91.5 41.5t-28.5 104.5q0 54 18.5 87t52 51t80.5 24t103 6q46 0 92 -2.5t83.5 -17.5t61 -48t23.5 -93q0 -61 -23 -99.5t-56.5 -63.5t-72 -42t-69.5 -34.5t-49.5 -40.5
t-11.5 -61h-20q-10 29 -9 52.5t8.5 45t18.5 43.5t21.5 47t18 56t7.5 70q0 81 -2 124.5t-21 43.5zM232 170q57 0 91 -21t34 -70t-34 -69t-91 -20t-91 20t-34 69t34 70t91 21z" />
    <glyph glyph-name="at" unicode="@" horiz-adv-x="935" 
d="M770 70q21 0 39.5 19.5t32 51t21 71.5t7.5 82q0 95 -28.5 164.5t-80.5 115t-125.5 67.5t-163.5 22q-108 0 -186.5 -26.5t-129.5 -75t-75.5 -117.5t-24.5 -154q0 -41 7.5 -84.5t24 -85.5t44 -79t67 -65t93 -44.5t122.5 -16.5q82 0 144 11.5t102 37.5l8 -14
q-14 -9 -35 -18.5t-51.5 -17.5t-72 -13.5t-95.5 -5.5q-100 0 -171.5 32.5t-117.5 87.5t-67.5 126.5t-21.5 150.5q0 90 26.5 162.5t80.5 123t135.5 78t190.5 27.5q101 0 179.5 -26.5t132.5 -76.5t82 -121.5t28 -162.5q0 -77 -18 -133t-48.5 -92.5t-70 -54t-81.5 -17.5
q-30 0 -57 8.5t-47.5 26t-32.5 43t-12 58.5h-7q0 -27 -8.5 -51.5t-26 -43t-43.5 -29.5t-61 -11q-94 0 -137 42t-43 134q0 43 17 71t44 45t60.5 25.5t66.5 11.5t62 2.5t47 -0.5h5v97v51t-1.5 32t-6 17t-14.5 5q-12 0 -14.5 -24t-0.5 -55t7 -61t8 -42q-26 -3 -56.5 -6
t-59.5 -3q-28 0 -53 4t-44.5 14.5t-31 29.5t-11.5 48q0 32 10 54t37 35.5t75 19.5t123 6q78 0 129 -9.5t81 -35t41.5 -70t11.5 -113.5v-144v-31t3.5 -37t12 -30.5t24.5 -12.5zM500 309q-10 0 -17.5 -3t-13 -14.5t-8 -34.5t-2.5 -63q0 -39 6 -56.5t18 -17.5q9 0 13 13.5
t4 31.5v144z" />
    <glyph glyph-name="A" unicode="A" horiz-adv-x="639" 
d="M274 0h-128q-41 0 -67.5 15.5t-41.5 40t-21 56.5t-6 65q0 66 19.5 136.5t47.5 139t58.5 132t51.5 115.5h323q0 -31 7 -88t18 -126.5t24.5 -144.5t27.5 -142.5t26 -120.5t21 -78h-314q2 40 -2.5 98.5t-13.5 125.5zM201 672q5 -68 12.5 -135t18.5 -119t25.5 -83.5
t34.5 -29.5q-9 55 -19.5 109.5t-21 103t-21 88.5t-19.5 66h-10z" />
    <glyph glyph-name="B" unicode="B" horiz-adv-x="608" 
d="M396 358q49 -2 86.5 -10.5t63 -28t39 -52.5t13.5 -85q0 -97 -59.5 -139.5t-180.5 -42.5h-343q4 36 6.5 80.5t3.5 91t1 92.5v86v86t-1 92.5t-3.5 91t-6.5 80.5h341q65 0 105 -12t62.5 -34.5t30.5 -54t8 -70.5q0 -35 -7.5 -64.5t-26.5 -51t-51 -34.5t-81 -15v-6zM287 371
q10 0 17 13t11 34.5t5.5 50.5t1.5 61q0 81 -7 115.5t-28 34.5h-1v-309h1zM286 20q25 0 33 42.5t8 116.5q0 85 -8 127t-33 45v-331z" />
    <glyph glyph-name="C" unicode="C" horiz-adv-x="573" 
d="M555 10q-24 -5 -52.5 -9t-57.5 -6.5t-57.5 -3.5t-54.5 -1q-92 0 -153.5 28.5t-98 80t-51.5 123t-15 158.5q0 64 11 123.5t44.5 105.5t95.5 73.5t164 27.5q65 0 109.5 -14.5t72 -40.5t39.5 -63t12 -82q0 -42 -4 -76t-17.5 -57.5t-39 -36t-68.5 -12.5q-40 0 -69 7.5
t-45 24.5q10 25 13.5 65t3.5 85q0 83 -3.5 130.5t-20.5 47.5q-8 0 -14 -7.5t-9.5 -27t-5.5 -54t-2 -89.5q0 -51 1.5 -92t14.5 -70t43.5 -44.5t87.5 -15.5q61 0 92 11t36 14q-4 -68 -7 -140t5 -163z" />
    <glyph glyph-name="D" unicode="D" horiz-adv-x="618" 
d="M334 700q73 0 126 -17t87 -57.5t50 -108t16 -166.5t-16 -166.5t-49 -108t-84.5 -58.5t-122.5 -18h-326q4 36 6.5 80.5t3.5 91t1 92.5v86v86t-1 92.5t-3.5 91t-6.5 80.5h319zM286 19q17 0 26.5 30t14 78t5.5 107.5t1 117.5t-0.5 116.5t-4.5 105.5t-13.5 76.5t-26.5 29.5
h-2v-661z" />
    <glyph glyph-name="E" unicode="E" horiz-adv-x="558" 
d="M285 683v-310h222v-44l-222 1v-321q12 0 19.5 24.5t10.5 65t1.5 92t-7.5 105.5q15 2 32.5 3t35.5 1q29 0 57.5 -3.5t51 -13.5t37 -28t14.5 -46q0 -35 0.5 -72t-5.5 -67.5t-21.5 -50t-48.5 -19.5h-447q4 36 6.5 80.5t3.5 91t1 92.5v86v86t-1 92.5t-3.5 91t-6.5 80.5h432
q30 0 47 -14.5t25.5 -37.5t10.5 -51t2 -54q0 -58 -14.5 -87.5t-43 -41.5t-70 -12t-95.5 2q6 54 7.5 105t-1.5 91t-10.5 63t-19.5 20z" />
    <glyph glyph-name="F" unicode="F" horiz-adv-x="537" 
d="M15 0q4 36 6.5 80.5t3.5 91t1 92.5v86v86t-1 92.5t-3.5 91t-6.5 80.5h418q30 0 48.5 -20t28.5 -49t13.5 -62.5t3.5 -59.5q0 -58 -14.5 -87.5t-43 -41.5t-70 -12t-95.5 2q6 54 7.5 110t-2 102t-12 75.5t-21.5 29.5v-346h213l-10 -44h-203q0 -37 0.5 -76.5t1.5 -78.5
t3.5 -75t5.5 -67h-272z" />
    <glyph glyph-name="G" unicode="G" horiz-adv-x="637" 
d="M349 688q-9 0 -17 -24t-14 -67.5t-9.5 -103t-3.5 -130.5q0 -59 3 -120.5t10.5 -111.5t19.5 -82t30 -32q0 39 -0.5 82.5t-1.5 87t-3 84.5t-6 75q66 -4 132.5 -2t132.5 6q-4 -36 -5.5 -76.5t-2 -78.5t0 -71.5t0.5 -56.5q-45 -30 -110.5 -53.5t-146.5 -23.5
q-93 0 -158.5 23.5t-106.5 70t-59.5 115t-18.5 159.5q0 92 18 158.5t58.5 109.5t105 63.5t157.5 20.5q53 0 99.5 -7.5t81 -27t55 -53t20.5 -84.5q0 -35 -9 -64t-28.5 -49.5t-49 -32t-71.5 -11.5q-38 0 -66 7.5t-42 24.5q8 7 14 30t9 53.5t3.5 64t-1.5 62t-7 47t-13 18.5z
" />
    <glyph glyph-name="H" unicode="H" horiz-adv-x="620" 
d="M15 0q4 36 6.5 80.5t3.5 91t1 92.5v86v86t-1 92.5t-3.5 91t-6.5 80.5h282q-2 -30 -3 -65t-2 -72.5t-1 -76v-74.5h48v74.5t-1 76t-2 72.5t-3 65h272q-4 -36 -6.5 -80.5t-3.5 -91t-1 -92.5v-86v-86t1 -92.5t3.5 -91t6.5 -80.5h-272q2 36 3.5 80.5t2 91t0.5 92.5v86v17h-48
v-17v-86t0.5 -92.5t2 -91t3.5 -80.5h-282z" />
    <glyph glyph-name="I" unicode="I" horiz-adv-x="312" 
d="M15 0q4 36 6.5 80.5t3.5 91t1 92.5v86v86t-1 92.5t-3.5 91t-6.5 80.5h282q-4 -36 -6.5 -80.5t-3.5 -91t-1 -92.5v-86v-86t1 -92.5t3.5 -91t6.5 -80.5h-282z" />
    <glyph glyph-name="J" unicode="J" horiz-adv-x="584" 
d="M294 -11q-65 0 -117 6t-88 26t-55 57.5t-19 100.5q0 55 13 90t34.5 55t49.5 27.5t59 7.5q38 0 71 -8.5t47 -25.5q-5 -14 -9.5 -48t-4.5 -78q0 -36 1 -70t3.5 -60.5t6.5 -42.5t10 -16t8.5 8.5t3.5 37.5t1 83.5v146.5v96t-1 114.5t-3.5 113t-6.5 90.5h271
q-4 -36 -6.5 -80.5t-3.5 -91t-1 -92.5v-86v-122q0 -71 -15 -117.5t-47 -73.5t-82 -37.5t-120 -10.5z" />
    <glyph glyph-name="K" unicode="K" horiz-adv-x="606" 
d="M15 0q4 36 6.5 80.5t3.5 91t1 92.5v86v86t-1 92.5t-3.5 91t-6.5 80.5h277q-10 -59 -12.5 -134.5t-3.5 -147.5q7 13 15 32t14 50.5t9.5 80t1.5 119.5h72h76t67.5 0.5t45.5 1.5q4 -11 7 -28.5t5.5 -36.5t3.5 -38.5t1 -34.5q0 -56 -16 -91.5t-41.5 -56.5t-57 -30.5
t-63.5 -12t-61 -1t-49 1.5q15 -6 28.5 -15.5t30 -18t38.5 -15t52 -6.5q33 0 68.5 15t63.5 46l9 -2q-2 -34 -3.5 -78t-1.5 -92t1 -98t4 -95q-27 -11 -56.5 -18t-79.5 -7q-52 0 -83 26.5t-48.5 66.5t-24 86t-10 86t-6.5 66.5t-12 26.5q0 -40 0.5 -86t2 -92t4.5 -90t9 -80h-277
z" />
    <glyph glyph-name="L" unicode="L" horiz-adv-x="528" 
d="M266 20q12 0 19.5 25t10.5 66t2 93t-7 106q32 4 58.5 6t49.5 2q64 0 93 -23t29 -87q0 -35 -3.5 -72t-14 -67t-29.5 -49.5t-50 -19.5h-409q4 36 6.5 80.5t3.5 91t1 92.5v86v86t-1 92.5t-3.5 91t-6.5 80.5h262q-4 -36 -6.5 -80.5t-3.5 -91t-1 -92.5v-86v-330z" />
    <glyph glyph-name="M" unicode="M" horiz-adv-x="786" 
d="M15 0q4 36 8 80.5t7 91t4.5 92.5t1.5 86v86t-1 92.5t-3.5 91t-6.5 80.5h308q0 -43 12 -92.5t28.5 -99t33 -96.5t25.5 -87h12q9 53 17.5 113.5t16 114.5t13 94t8.5 53h272q-4 -36 -6.5 -80.5t-3.5 -91t-1 -92.5v-86v-86t1 -92.5t3.5 -91t6.5 -80.5h-272q4 36 6.5 80.5
t3.5 91t1 92.5v86v102t-2 108h-6q-2 -17 -8.5 -66.5t-14 -123t-13 -168t-5.5 -202.5h-241q-20 69 -41.5 134.5t-42.5 132.5t-40 139t-36 154h-5q0 -82 14.5 -167t34.5 -161.5t42.5 -137.5t37.5 -94h-169z" />
    <glyph glyph-name="N" unicode="N" horiz-adv-x="556" 
d="M10 0q4 36 7 80.5t5.5 91t3.5 92.5t1 86t0.5 86t0 92.5t-2 91t-5.5 80.5h290q9 -43 34 -100t54.5 -127.5t57 -153.5t40.5 -179h10q0 82 -20 161t-46.5 151t-51 135t-33.5 113h191q-4 -36 -7 -80.5t-5 -91t-3 -92.5t-1 -86t-0.5 -86t-0.5 -92.5t1.5 -91t5.5 -80.5h-290
q0 31 -25.5 87t-58 130t-62.5 162t-40 181h-10q5 -94 23.5 -166.5t42 -136t48 -125t41.5 -132.5h-195z" />
    <glyph glyph-name="O" unicode="O" horiz-adv-x="684" 
d="M343 -10q-107 0 -172 29t-99.5 78.5t-45.5 115.5t-11 141q0 78 11 143t46 112.5t100 74t172 26.5t171 -26.5t98.5 -74t45 -112.5t10.5 -143q0 -77 -10.5 -143.5t-45 -115.5t-99 -77t-171.5 -28zM342 11q9 0 14.5 26.5t8.5 72.5t3.5 108.5t0.5 135.5t-0.5 134.5t-3.5 106
t-8.5 69.5t-14.5 25t-14.5 -25t-8.5 -69.5t-3.5 -106t-0.5 -134.5q0 -70 0.5 -132.5t3.5 -109.5t8.5 -74t14.5 -27z" />
    <glyph glyph-name="P" unicode="P" horiz-adv-x="577" 
d="M333 700q56 0 100 -11t75 -35t47.5 -62t16.5 -92q0 -72 -22 -115.5t-58.5 -67t-83.5 -31.5t-97 -8h-35q0 -71 2 -145.5t9 -132.5h-272q4 36 6.5 80.5t3.5 91t1 92.5v86v86t-1 92.5t-3.5 91t-6.5 80.5h318zM276 298q19 0 32.5 53t13.5 149q0 56 -3.5 91t-9.5 55t-14.5 27
t-17.5 7h-1v-382z" />
    <glyph glyph-name="Q" unicode="Q" horiz-adv-x="684" 
d="M156 -64q32 15 65 29.5t73 26.5q-91 7 -146 38t-84.5 79.5t-39 111.5t-9.5 133q0 78 11 143t46 112.5t100 74t172 26.5t171 -26.5t98.5 -74t45 -112.5t10.5 -143q0 -72 -9 -135t-38 -111t-83 -78.5t-143 -37.5q-48 -10 -82 -22q26 -3 51.5 -9t52 -12t53 -11t53.5 -5
q23 0 39.5 7.5t28.5 26.5q7 -7 14 -30t10 -53.5t0.5 -64t-14.5 -61.5t-35.5 -46.5t-61.5 -18.5q-43 0 -77.5 12t-70.5 25t-79 22.5t-105 5.5zM342 11q9 0 14.5 26.5t8.5 72.5t3.5 108.5t0.5 135.5t-0.5 134.5t-3.5 106t-8.5 69.5t-14.5 25t-14.5 -25t-8.5 -69.5t-3.5 -106
t-0.5 -134.5q0 -70 0.5 -132.5t3.5 -109.5t8.5 -74t14.5 -27z" />
    <glyph glyph-name="R" unicode="R" horiz-adv-x="575" 
d="M333 700q56 0 99.5 -14.5t73.5 -40t45.5 -59t15.5 -72.5q0 -63 -21 -101.5t-56.5 -59t-81 -27t-95.5 -6.5q25 -14 56 -23.5t76 -9.5q30 0 51.5 8t36 18.5t22.5 20t10 12.5l4 -1q-4 -68 -4.5 -157t5.5 -180q-23 -8 -58 -13t-66 -5q-46 0 -74 24.5t-43.5 61t-22 79.5
t-10 79.5t-6.5 61t-13 24.5h-1q0 -39 0.5 -81.5t1.5 -84.5t3 -81.5t6 -72.5h-272q4 36 6.5 80.5t3.5 91t1 92.5v86v86t-1 92.5t-3.5 91t-6.5 80.5h318zM276 340q19 0 30 41.5t11 129.5q0 52 -2.5 85t-8 51.5t-13 25.5t-16.5 7h-1v-340z" />
    <glyph glyph-name="S" unicode="S" horiz-adv-x="574" 
d="M467 80q0 4 -33.5 17.5t-83.5 37.5t-109 58.5t-109 79t-83.5 99.5t-33.5 120q0 50 12 88.5t32.5 64.5t48.5 39.5t59 13.5h78t101 1t105.5 4t91.5 9q-4 -44 -5.5 -80.5t-1.5 -71.5t1 -71.5t2 -81.5h-2q-52 57 -107 106t-103.5 84t-85.5 55t-53 20q-8 0 -8 -8
q0 -10 27.5 -28t69 -44.5t90.5 -61.5t91 -79.5t70.5 -99.5t29.5 -120q1 -64 -17.5 -110t-52.5 -75.5t-81.5 -43.5t-103.5 -14q-85 -1 -158 7.5t-127 8.5q2 47 3 88.5t1 81.5t-1.5 81.5t-5.5 88.5h2q21 -29 56 -60.5t77 -62t87.5 -58.5t87 -48.5t74.5 -33t51 -12.5
q17 0 17 11z" />
    <glyph glyph-name="T" unicode="T" horiz-adv-x="518" 
d="M15 417q8 143 0 285q71 -1 129.5 -1.5t114.5 -0.5t114.5 0.5t129.5 1.5q-8 -142 0 -285q-25 4 -56 6.5t-63.5 3.5t-64.5 1h-60h-55t-59 -1v-3q0 -12 13.5 -20t35.5 -12.5t50.5 -6.5t58.5 -2t59 1.5t54 3.5t43.5 3.5t26.5 2.5q-2 -63 -3 -107.5t-1 -86t1 -86t3 -107.5
q-32 -5 -68 -9q-30 -3 -68.5 -5.5t-77.5 -2.5q-62 0 -109.5 12t-80 39t-49 70t-16.5 105q0 42 9.5 75.5t23 59t28.5 43.5t25 31q-24 -2 -46 -3.5t-42 -4.5z" />
    <glyph glyph-name="U" unicode="U" 
d="M287 14q8 0 11.5 16.5t5.5 45.5t2 68.5v85.5v65.5t-0.5 82.5t-1 91t-1.5 90t-3 80t-5 61h262q-3 -24 -5 -61t-3 -80t-1.5 -89.5t-1 -90.5t-0.5 -82v-64q0 -71 -11 -118t-40 -74.5t-79.5 -39t-129.5 -11.5t-129.5 11.5t-79.5 39t-40 74.5t-11 118v64t-0.5 82t-1 90.5
t-1.5 89.5t-3 80t-5 61h262q-3 -24 -5 -61t-3 -80t-1.5 -90t-1 -91t-0.5 -82.5v-65.5v-85.5t2 -68.5t6.5 -45.5t12.5 -16.5z" />
    <glyph glyph-name="V" unicode="V" horiz-adv-x="604" 
d="M201 0q-11 70 -31 156t-48 180q-16 54 -32 106.5t-31 100t-28.5 87.5t-25.5 70h305q-3 -35 5.5 -87.5t19.5 -112.5q9 -49 24 -103t31 -105.5t31.5 -95.5t24.5 -73h10q0 24 -9.5 62t-23 85.5t-29.5 102t-29.5 111t-23 112t-9.5 104.5h267q0 -116 -17 -213t-41 -182
t-51.5 -159.5t-48.5 -145.5h-240z" />
    <glyph glyph-name="W" unicode="W" horiz-adv-x="892" 
d="M498 0q-5 26 -11 54t-14 59q-10 -29 -19.5 -57t-17.5 -56h-240q-11 70 -31 156t-48 180q-16 54 -32 106.5t-31 100t-28.5 87.5t-25.5 70h305q-3 -35 5.5 -87.5t19.5 -112.5q9 -49 24 -103t31 -105.5t31.5 -95.5t24.5 -73h10q0 24 -9.5 62t-23 85.5t-29.5 102t-29.5 111
t-23 112t-9.5 104.5h1v1l284 -1q-3 -35 3 -87.5t17 -112.5q9 -49 24 -103t31 -105.5t31.5 -95.5t24.5 -73h10q0 35 -16 94.5t-36.5 135.5t-40 165t-27.5 182h254q0 -116 -16 -213t-39 -182t-48.5 -159.5t-45.5 -145.5h-240z" />
    <glyph glyph-name="X" unicode="X" horiz-adv-x="665" 
d="M349 0q-5 30 -22.5 77.5t-42 105t-55 122t-62.5 127.5q2 -40 20 -90.5t42 -107t49.5 -116t41.5 -118.5h-315q0 55 11 119.5t29.5 129.5t44 125t53.5 106q-35 67 -68 124.5t-59 95.5h318q-1 -27 12.5 -74t37.5 -105.5t56 -124.5t66 -131q-1 42 -21.5 97t-46.5 114t-49 117
t-29 107h297q0 -59 -9.5 -124.5t-26.5 -129t-40.5 -122t-52.5 -102.5q36 -66 70.5 -123.5t61.5 -98.5h-311z" />
    <glyph glyph-name="Y" unicode="Y" horiz-adv-x="592" 
d="M118 0q8 42 9.5 95t1.5 133q0 21 -7 59.5t-18 85.5t-24.5 97.5t-27.5 96t-26.5 81t-20.5 52.5h289q-2 -26 2 -63t12.5 -80t19.5 -88t22.5 -87t23.5 -77t21 -58h20q-10 51 -25 105t-29 110.5t-24 116t-10 121.5h260q-10 -29 -24.5 -69.5t-31.5 -85.5t-33.5 -92
t-29.5 -89.5t-21.5 -78t-8.5 -57.5q0 -77 1.5 -130.5t9.5 -97.5h-331z" />
    <glyph glyph-name="Z" unicode="Z" horiz-adv-x="613" 
d="M10 0v10q15 27 28.5 53.5t29 60t35 77.5t45.5 105l19 44q16 37 33.5 79.5t34.5 85.5t32.5 84.5t27.5 77.5q-22 -10 -43.5 -47.5t-43 -87.5t-43 -105t-43 -101.5t-43 -77t-42.5 -30.5h-15l18 472h558v-10q-35 -64 -63.5 -128t-57.5 -130l-35 -82q-16 -37 -33.5 -79.5
t-35 -86t-32.5 -85.5t-27 -78q24 9 46.5 48t44.5 92.5t44 113t44.5 109.5t46.5 83t50 33v-500h-580z" />
    <glyph glyph-name="bracketleft" unicode="[" horiz-adv-x="330" 
d="M15 672h310v-20h-90v-777h90v-20h-310v817z" />
    <glyph glyph-name="backslash" unicode="\" horiz-adv-x="426" 
d="M15 700h30l366 -700h-30z" />
    <glyph glyph-name="bracketright" unicode="]" horiz-adv-x="330" 
d="M5 -145v20h90v777h-90v20h310v-817h-310z" />
    <glyph glyph-name="asciicircum" unicode="^" horiz-adv-x="338" 
d="M15 494q4 18 18.5 42t35 51.5t44.5 58.5t46 64h20q23 -33 46.5 -64t44 -58.5t35 -51.5t18.5 -42h-150q8 63 5.5 110.5t-7.5 82.5h-4q-5 -35 -7.5 -82.5t5.5 -110.5h-150z" />
    <glyph glyph-name="underscore" unicode="_" horiz-adv-x="555" 
d="M25 -12h505v-30h-505v30z" />
    <glyph glyph-name="grave" unicode="`" horiz-adv-x="196" 
d="M129 730l15 -118h-5l-172 113v5h162z" />
    <glyph glyph-name="a" unicode="a" horiz-adv-x="541" 
d="M291 53q-9 -27 -36.5 -45t-84.5 -18q-86 0 -125.5 34t-39.5 109q0 43 15.5 71t40 45t55.5 25.5t61.5 11.5t58 2.5t45.5 -0.5h5v97v51t-1.5 32t-6 17t-14.5 5q-12 0 -14.5 -24t-0.5 -55t7 -61t8 -42q-24 -3 -52 -6t-55 -3q-25 0 -48.5 4t-41 14.5t-28 29.5t-10.5 48
q0 32 9.5 54t35.5 35.5t72 19.5t118 6q75 0 124 -6.5t77.5 -24.5t39.5 -50.5t11 -85.5v-193q0 -35 1 -70t9 -80h-225zM286 266q-10 0 -17.5 -3t-13 -14.5t-8 -34.5t-2.5 -63q0 -39 6 -56.5t18 -17.5q9 0 13 13.5t4 31.5v144z" />
    <glyph glyph-name="b" unicode="b" horiz-adv-x="544" 
d="M13 0q4 26 6.5 57t3.5 63.5t1 65v60.5v107v82.5t-1 88t-3.5 87t-6.5 79.5l254 20q-7 -60 -9 -117.5t-2 -120.5q2 9 7.5 16.5t16 13t28 9t42.5 3.5q44 0 78 -11.5t57.5 -40.5t36 -80t12.5 -131t-12.5 -130.5t-36 -79.5t-57.5 -40t-77 -11q-33 0 -52 6.5t-29 17t-13.5 22.5
t-3.5 23l-18 -59h-222zM277 38q3 0 8 7t9 29.5t7 64.5t3 113q0 77 -2.5 120.5t-6.5 64.5t-8.5 26t-7.5 5q-4 0 -8 -6.5t-7 -28.5t-5 -65t-2 -115v-54q0 -54 2 -85.5t4.5 -48.5t6 -22t7.5 -5z" />
    <glyph glyph-name="c" unicode="c" horiz-adv-x="425" 
d="M404 4q-35 -8 -79 -11t-81 -3q-66 0 -110.5 20.5t-70.5 57.5t-37 89t-11 114q0 54 6 98t28 75t65 48t116 17q94 0 137 -35t43 -109q0 -31 -3 -55t-12.5 -41t-28 -26t-49.5 -9q-29 0 -50 5.5t-32 17.5q7 17 9.5 46t2.5 62q0 60 -2.5 94t-14.5 34q-6 0 -10.5 -5t-7 -19.5
t-4 -39.5t-1.5 -64q0 -37 1 -66.5t10.5 -50.5t31.5 -32t63 -11q45 0 67 10.5t26 12.5q-3 -47 -3 -98t1 -126z" />
    <glyph glyph-name="d" unicode="d" horiz-adv-x="549" 
d="M296 57q0 -11 -3.5 -23t-14 -21.5t-29.5 -16t-51 -6.5q-43 0 -77 11t-57.5 40t-36 79.5t-12.5 130.5t12.5 131t36 80t58 40.5t77.5 11.5q51 0 70.5 -12.5t23.5 -29.5q0 56 -2.5 108.5t-8.5 109.5l252 20q-4 -37 -6.5 -80.5t-3.5 -89t-1 -90.5v-85v-111v-62.5t1 -67
t3.5 -66t6.5 -58.5h-220zM272 38q4 0 7.5 5.5t6 23.5t4.5 53t2 94v39q0 72 -1.5 115t-4.5 65t-7 28.5t-9 6.5q-3 0 -7.5 -5t-8.5 -26t-6.5 -64.5t-2.5 -120.5q0 -71 3 -113t7 -64.5t9 -29.5t8 -7z" />
    <glyph glyph-name="e" unicode="e" horiz-adv-x="425" 
d="M404 4q-35 -8 -79 -11t-81 -3q-77 0 -122.5 20.5t-69 58t-30.5 89t-7 114.5q0 48 6.5 91t28.5 76t65.5 52t116.5 19q47 0 80.5 -6.5t55.5 -22.5t32 -43.5t10 -69.5q0 -30 -4.5 -54t-17.5 -40.5t-37 -25.5t-63 -9q-17 0 -32 2.5t-27 7.5q9 -22 29.5 -33t62.5 -11
q41 0 61 10.5t24 12.5q-3 -47 -3 -98t1 -126zM222 276q12 6 19 26t7 67q0 54 -1.5 84.5t-11.5 30.5q-4 0 -7 -5t-5.5 -19.5t-3.5 -39.5t-1 -64q0 -23 0.5 -43t3.5 -37z" />
    <glyph glyph-name="f" unicode="f" horiz-adv-x="315" 
d="M0 480v20h40v10q0 64 9.5 105t29 64t49 32t69.5 9q81 0 124 -25.5t43 -89.5q0 -25 -7.5 -42.5t-20 -28t-29 -15t-33.5 -4.5q-27 0 -51.5 9t-37.5 22q8 12 12 37.5t3 51.5t-6 45.5t-14 19.5t-15.5 -18t-6.5 -60q0 -37 7 -60.5t21 -37t35 -19t49 -5.5h50v-20h-50v-112v-90
t1 -97t3.5 -96t6.5 -85h-252q4 39 6.5 87.5t3.5 99t1 100.5v93v100h-40z" />
    <glyph glyph-name="g" unicode="g" horiz-adv-x="542" 
d="M15 -232q0 25 9 44.5t24 34t33.5 24t36.5 14.5q-32 11 -52.5 39.5t-20.5 84.5q0 26 9.5 45.5t25.5 33.5t35.5 23t39.5 14q-39 11 -65.5 29.5t-42.5 44t-23 55.5t-7 63q0 42 11.5 77t39 61t73 40.5t113.5 14.5q13 0 24.5 -0.5t22.5 -1.5q2 30 14 54.5t38 41t68.5 23.5
t105.5 1q-4 -38 -3 -75.5t3 -79.5q-10 10 -27 18t-38 14t-43 9t-42 3q-18 0 -32.5 -3t-22.5 -9q47 -7 79 -24t51.5 -41.5t27.5 -56.5t8 -68q0 -42 -11 -79t-38 -64.5t-72 -43t-113 -15.5q-23 -3 -47 -9t-43.5 -13t-32 -14.5t-12.5 -13.5q0 -5 12 -5q17 0 51.5 8t75 17
t82.5 17t74 8q60 0 86.5 -30.5t26.5 -102.5q0 -88 -31 -151.5t-79.5 -105t-107 -61t-113.5 -19.5q-37 0 -70 8.5t-57.5 25t-39 40.5t-14.5 56zM254 133q3 0 6 4.5t5 23t3 55t1 99.5q0 59 -1 93.5t-3 52.5t-5 23.5t-6 5.5q-4 0 -7 -5.5t-5.5 -23.5t-3.5 -52.5t-1 -93.5
q0 -63 1 -99.5t3.5 -55t5.5 -23t7 -4.5zM154 -123q2 -15 16.5 -23.5t34.5 -8.5q53 0 104.5 10.5t92 24t66 26t25.5 17.5q0 4 -7 4q-12 0 -41.5 -8t-70.5 -18t-90.5 -18t-100.5 -8q-8 0 -15 0.5t-14 1.5z" />
    <glyph glyph-name="h" unicode="h" horiz-adv-x="536" 
d="M15 0q4 35 6.5 78.5t3.5 89.5t1 91v84v84t-1 91t-3.5 90.5t-6.5 81.5l253 20q-3 -31 -5.5 -68t-4 -77t-2 -80t-0.5 -77q4 17 12.5 35t23.5 33t36.5 24.5t52.5 9.5q50 0 77.5 -15.5t40.5 -42t16 -62t3 -75.5v-67.5t1 -82.5t2.5 -86t4.5 -79h-240q4 33 6.5 74.5t3.5 82.5
t1 79v65t-1 44t-3 26.5t-5 13t-8 3.5q-12 0 -17.5 -30.5t-6.5 -85.5q0 -70 2.5 -143t8.5 -129h-252z" />
    <glyph glyph-name="i" unicode="i" horiz-adv-x="290" 
d="M147 711q28 0 53 -5t43.5 -16t29.5 -28.5t11 -41.5t-11 -41t-29.5 -27.5t-43.5 -15.5t-53 -5t-53 5t-43.5 15.5t-29.5 27.5t-11 41t11 41.5t29.5 28.5t43.5 16t53 5zM27 0q4 24 6.5 54.5t3.5 62t1 63v58.5v58.5t-1 63.5t-3.5 63t-6.5 57l252 20q-4 -26 -6.5 -57.5
t-3.5 -65t-1 -66v-61.5v-61t1 -66.5t3.5 -65t6.5 -57.5h-252z" />
    <glyph glyph-name="j" unicode="j" horiz-adv-x="293" 
d="M149 531q-66 0 -103.5 24.5t-37.5 64.5q0 41 38 66t99 25q63 0 98 -25t35 -66q0 -40 -35 -64.5t-94 -24.5zM258 -10q0 -90 -15 -145.5t-44 -85.5t-71 -40t-96 -10q-38 0 -71 8t-57.5 24t-39 39.5t-14.5 54.5q0 30 9.5 49.5t25 31.5t34.5 17t39 5q23 0 44.5 -5.5
t33.5 -13.5q-9 -33 -8 -66.5t8 -61t17.5 -45t20.5 -17.5q11 0 12 19.5t-4 48.5t-14.5 63.5t-18 64.5t-15 51t-6.5 23v239v58.5t-1 63.5t-3.5 63t-6.5 57l252 20q-4 -26 -6.5 -57.5t-3.5 -65t-1 -66v-61.5v-260z" />
    <glyph glyph-name="k" unicode="k" horiz-adv-x="556" 
d="M15 0q4 35 6.5 78.5t3.5 89.5t1 91v84v84t-1 91t-3.5 90.5t-6.5 81.5l253 20q-4 -37 -6.5 -82.5t-3.5 -92.5t-1.5 -94t-0.5 -87v-58q6 9 13 23t12.5 36.5t9 57.5t1.5 86h63.5h67.5t60.5 0.5t40.5 0.5q8 -16 11 -46t3 -53q0 -46 -14 -75t-36 -45.5t-50 -22t-56 -5.5
q-26 0 -50 3t-41 5q12 -5 24 -11t26.5 -11.5t33.5 -9t44 -3.5q29 0 61 10.5t56 32.5l5 -1q-2 -24 -3 -55.5t-1.5 -66t0.5 -70t4 -68.5q-24 -8 -50.5 -13t-71.5 -5t-72.5 19t-43 47t-21.5 61t-9 61.5t-5.5 48t-11.5 19.5q1 -65 3 -130t8 -116h-252z" />
    <glyph glyph-name="l" unicode="l" horiz-adv-x="283" 
d="M15 0q4 35 6.5 78.5t3.5 89.5t1 91v84v84t-1 91t-3.5 90.5t-6.5 81.5l253 20q-4 -37 -6.5 -82.5t-3.5 -92.5t-1.5 -94t-0.5 -87v-86.5t1 -94t3.5 -92.5t6.5 -81h-252z" />
    <glyph glyph-name="m" unicode="m" horiz-adv-x="793" 
d="M15 0q4 26 6.5 57.5t3.5 64.5t1 66.5v61.5v61t-1 66.5t-3.5 65t-6.5 57.5h221l7 -97v-8q3 18 10.5 38t22.5 37.5t38 28.5t57 11q37 0 61.5 -8.5t39.5 -24.5t22.5 -37t10.5 -47q3 18 10.5 38.5t22 38t38 29t57.5 11.5q50 0 77.5 -15.5t40.5 -42t16 -62t3 -75.5v-67.5
t1 -82.5t2.5 -86t4.5 -79h-240q4 33 6.5 74.5t3.5 82.5t1 79v65t-1 44t-3 26.5t-5 13t-8 3.5q-12 0 -17.5 -32t-6.5 -90q0 -30 0.5 -64t1.5 -69.5t2.5 -69.5t3.5 -63h-240q4 33 6.5 74.5t3.5 82.5t1 79v65t-1 44t-3 26.5t-5 13t-8 3.5q-13 0 -18.5 -35.5t-5.5 -98.5
q0 -30 0.5 -64t1.5 -67.5t3 -65t6 -57.5h-242z" />
    <glyph glyph-name="n" unicode="n" horiz-adv-x="531" 
d="M15 0q4 26 6.5 57.5t3.5 64.5t1 66.5v61.5v61t-1 66.5t-3.5 65t-6.5 57.5h221l7 -97v-8q3 18 10.5 38t22.5 37.5t38 28.5t57 11q50 0 77.5 -15.5t40.5 -42t16 -62t3 -75.5v-67.5t1 -82.5t2.5 -86t4.5 -79h-240q4 33 6.5 74.5t3.5 82.5t1 79v65t-1 44t-3 26.5t-5 13
t-8 3.5q-13 0 -18.5 -35.5t-5.5 -98.5q0 -30 0.5 -64t1.5 -67.5t3 -65t6 -57.5h-242z" />
    <glyph glyph-name="o" unicode="o" horiz-adv-x="535" 
d="M269 -10q-76 0 -125.5 21.5t-78 58t-39.5 85.5t-11 104t11.5 102t40 81t77.5 53t125 19q75 0 124 -19t77 -53.5t39 -82t11 -103.5q0 -55 -11 -103.5t-39 -84.5t-77 -57t-124 -21zM268 4q5 0 8.5 8t6 34t4 76t1.5 134q0 85 -1.5 133.5t-4 73t-6 31t-8.5 6.5t-9 -6.5
t-6.5 -30.5t-4 -72t-1.5 -132t1.5 -134t4 -77t6.5 -35.5t9 -8.5z" />
    <glyph glyph-name="p" unicode="p" horiz-adv-x="549" 
d="M253 441q0 11 3.5 23t13.5 22.5t29 17t52 6.5q43 0 77 -11t57.5 -40t36 -79.5t12.5 -130.5q0 -79 -12.5 -130.5t-36 -80.5t-57.5 -40.5t-78 -11.5q-25 0 -42.5 3.5t-28 9t-16 13t-7.5 16.5q0 -63 2 -120.5t9 -117.5h-252q4 37 6.5 80.5t3.5 89t1 90.5v85v111v62.5t-1 67
t-3.5 66t-6.5 58.5h220zM277 462q-4 0 -7.5 -5t-6 -22t-4.5 -49t-2 -86v-53q0 -72 2 -115t5 -65t7 -28.5t8 -6.5q3 0 7.5 5t8.5 26t6.5 64.5t2.5 120.5q0 71 -3 113t-7 64.5t-9 29.5t-8 7z" />
    <glyph glyph-name="q" unicode="q" horiz-adv-x="549" 
d="M534 500q-4 -25 -6.5 -56.5t-3.5 -64t-1 -65v-60.5v-107v-82.5t1 -88t3.5 -87t6.5 -79.5l-252 -20q7 60 9 117.5t2 120.5q-4 -17 -23.5 -29.5t-70.5 -12.5q-43 0 -77.5 11.5t-58 40.5t-36 80.5t-12.5 130.5q0 80 12.5 130.5t36 79.5t57.5 40t77 11q33 0 52 -6.5t29 -17
t13.5 -22.5t3.5 -23l18 59h220zM272 462q-3 0 -8 -7t-9 -29.5t-7 -64.5t-3 -113q0 -77 2.5 -120.5t6.5 -64.5t8.5 -26t7.5 -5q5 0 9 6.5t7 28.5t4.5 65t1.5 115v54q0 54 -2 85.5t-4.5 48.5t-6 22t-7.5 5z" />
    <glyph glyph-name="r" unicode="r" horiz-adv-x="528" 
d="M15 0q4 26 6.5 57.5t3.5 64.5t1 66.5v61.5v61t-1 66.5t-3.5 65t-6.5 57.5h231l10 -131q3 24 10 49.5t22 45.5t39.5 33t61.5 13q30 0 54 -7t40.5 -23t25.5 -42.5t9 -65.5q0 -43 -11 -72t-29 -46.5t-41 -24.5t-48 -7q-29 0 -56.5 7t-49.5 17q7 7 13.5 25t12 41.5t9 48.5
t5 46.5t0 35t-6.5 13.5q-7 0 -16.5 -14t-18.5 -38.5t-16 -58t-9 -72.5v-23v-61t1 -66.5t3.5 -65t6.5 -57.5h-252z" />
    <glyph glyph-name="s" unicode="s" horiz-adv-x="453" 
d="M379 55q0 3 -27 13t-67.5 27.5t-87.5 42t-87.5 56.5t-67.5 71.5t-27 86.5q0 72 36.5 110t87.5 38q18 0 40 -0.5t46.5 -1.5t50 -1.5t49.5 -0.5q25 0 46.5 1t38.5 3q-1 -32 -2 -58t-0.5 -50t1.5 -48.5t2 -54.5q-36 36 -78 70.5t-80.5 61.5t-69 43.5t-44.5 16.5q-6 0 -6 -7
q0 -8 22.5 -22.5t56.5 -34.5t73.5 -46t73.5 -58t56.5 -69.5t22.5 -80.5q0 -46 -13.5 -79t-38 -54t-58 -30.5t-74.5 -9.5q-28 0 -59 1.5t-62 3.5t-60.5 3.5t-55.5 1.5q1 34 2 64t1 58.5t-0.5 58.5t-3.5 64q17 -21 45 -43.5t62.5 -44.5t71 -42t70 -35t60.5 -24t41 -9
q13 0 13 8z" />
    <glyph glyph-name="t" unicode="t" horiz-adv-x="318" 
d="M288 623q-6 -56 -9 -123h49v-20h-50q-2 -47 -2 -92.5v-83.5v-74.5t1 -81t3.5 -79t6.5 -69.5h-252q7 55 10 115.5t4 122.5t0.5 123.5t-0.5 118.5h-44v20z" />
    <glyph glyph-name="u" unicode="u" horiz-adv-x="542" 
d="M288 111q-3 -19 -11 -40t-22.5 -39t-37.5 -30t-56 -12q-49 0 -77 18t-41 48t-16 69t-3 81v66.5t-1 75t-2.5 77.5t-4.5 75h240q-4 -33 -6.5 -72.5t-3.5 -79t-1 -76v-63.5t1 -44t3 -26.5t5.5 -13t7.5 -3.5q13 0 18.5 36t5.5 100v4q0 60 -1.5 123t-9.5 115h252
q-4 -25 -6.5 -57t-3.5 -65t-1 -66v-62v-61t1 -66.5t3.5 -65t6.5 -57.5h-231z" />
    <glyph glyph-name="v" unicode="v" horiz-adv-x="434" 
d="M126 0q-6 50 -20 111.5t-31 128.5q-9 39 -18.5 76.5t-18.5 71t-17.5 62.5t-15.5 50h218q-4 -25 0.5 -62.5t10.5 -80.5q5 -35 13 -73.5t18 -75t19 -68l15 -52.5h13q-6 26 -18 73.5t-24 105.5t-20 119t-5 114h184q-4 -83 -19.5 -152.5t-36.5 -130t-43 -113.5t-40 -104h-164
z" />
    <glyph glyph-name="w" unicode="w" horiz-adv-x="636" 
d="M321 0q-2 16 -4 33t-4 35l-24 -68h-163q-6 50 -20 111.5t-31 128.5q-9 39 -18.5 76.5t-18.5 71t-17.5 62.5t-15.5 50h218q1 -38 9.5 -94t19.5 -115.5t24 -114t23 -88.5h11q-5 35 -11.5 73.5t-14.5 78.5q-7 39 -13 76.5t-12 71t-12 62.5t-12 50h190q-4 -25 0.5 -62.5
t10.5 -80.5q5 -35 13 -73.5t18 -75t19 -68l15 -52.5h13q-6 26 -18 73.5t-24 105.5t-20 119t-5 114h184q-4 -83 -19.5 -152.5t-36.5 -130t-43 -113.5t-40 -104h-171z" />
    <glyph glyph-name="x" unicode="x" horiz-adv-x="506" 
d="M254 0q0 19 -9.5 52t-25.5 74t-36.5 86.5t-43.5 90.5q3 -30 12.5 -68t23.5 -78.5t30 -81t31 -75.5h-218q0 40 7.5 87t21 93t32 88t40.5 73q-28 52 -54 94t-46 65h240q3 -23 13 -56t25.5 -71t35.5 -79t41 -82q-4 30 -14 66.5t-23.5 75.5t-28.5 77t-29 71h218
q0 -39 -7.5 -85t-20.5 -91.5t-31 -87t-39 -72.5q30 -54 58.5 -98.5t48.5 -67.5h-252z" />
    <glyph glyph-name="y" unicode="y" horiz-adv-x="540" 
d="M176 -182q-49 0 -74 17t-35.5 42.5t-11 55.5t-0.5 57l2 2q26 -5 63.5 -7t77.5 -2q27 0 52 1t44.5 3.5t32.5 5.5t16 7h-191q-13 60 -27 123t-31.5 127t-39 127t-49.5 123h275q0 -85 22 -185t81 -224l9 20q-3 7 -18.5 42t-33 88t-31 120.5t-13.5 138.5h239
q0 -48 -17.5 -113.5t-43.5 -134.5t-55.5 -134.5t-54.5 -113.5q0 -2 -2 -4q-13 -20 -29 -51t-37.5 -60t-50.5 -50t-69 -21z" />
    <glyph glyph-name="z" unicode="z" horiz-adv-x="456" 
d="M15 146l21 354h405v-7q-24 -46 -45 -91.5t-41 -92.5q-31 -72 -62 -144.5t-54 -147.5q16 9 32.5 38.5t32.5 69.5t32 83.5t32 80.5t32 61t32 24h4v-374h-421v7q11 19 20.5 38t21 43t25.5 55.5t32 75.5l13 31q11 26 24 56.5t25 61t23.5 60.5t19.5 56q-17 -6 -32.5 -34
t-31 -65.5t-31 -79.5t-32 -77.5t-35 -58.5t-39.5 -23h-3z" />
    <glyph glyph-name="braceleft" unicode="{" horiz-adv-x="309" 
d="M25 269q14 9 24 16.5t17 18t10 26.5t3 41q0 23 -6 47t-13 49t-12.5 49.5t-5.5 46.5q1 32 14.5 52.5t35.5 32.5t49.5 17t55.5 6.5t53.5 1t43.5 -0.5v-22q-30 0 -44 -11.5t-18 -36.5q-2 -15 -2.5 -44t0 -63.5t2.5 -70.5t4 -63q2 -30 -9.5 -47.5t-29.5 -27t-38.5 -14
t-37.5 -7.5v-2q17 -3 37.5 -7.5t38 -14.5t29.5 -27.5t10 -47.5q-1 -27 -2.5 -62.5t-2.5 -70t-0.5 -63t1.5 -43.5q2 -25 17 -36t45 -13v-23q-18 1 -43.5 0.5t-53.5 1t-55.5 6.5t-49.5 17t-36 32t-14 52q0 22 5.5 46.5t12.5 49.5t13 49.5t6 46.5q0 25 -3 41t-10 26.5t-17 18.5
t-24 17v10z" />
    <glyph glyph-name="bar" unicode="|" horiz-adv-x="90" 
d="M35 750h20v-900h-20v900z" />
    <glyph glyph-name="braceright" unicode="}" horiz-adv-x="309" 
d="M284 259q-14 -9 -24 -17t-17 -18.5t-10 -26.5t-3 -41q0 -22 6 -46.5t13 -49.5t12.5 -49.5t5.5 -46.5q0 -32 -14 -52t-36 -32t-49.5 -17t-55 -6.5t-53.5 -1t-44 -0.5v23q30 2 45 13t17 36q2 15 2 43.5t-1 63t-2 70t-3 62.5q-1 30 10.5 47.5t29 27.5t38.5 14.5t37 7.5v2
q-16 3 -37 7.5t-39 14t-29.5 27t-9.5 47.5q2 27 4 63t2.5 70.5t0 63.5t-2.5 44q-4 25 -18 36.5t-44 11.5v22q18 0 44 0.5t53.5 -1t55 -6.5t49.5 -17t36 -32.5t14 -52.5q0 -22 -5.5 -46.5t-12.5 -49.5t-13 -49t-6 -47q0 -25 3 -41t10 -26.5t17 -18t24 -16.5v-10z" />
    <glyph glyph-name="asciitilde" unicode="~" horiz-adv-x="475" 
d="M22 273q4 18 11 41.5t21 45t37 36t57 14.5q24 0 40.5 -11t29.5 -27t23 -35.5t21 -35.5t24 -27t31 -11q27 0 44.5 18t28 40.5t14.5 42t5 22.5l25 -4q-3 -19 -9.5 -44t-20 -47t-34.5 -37.5t-53 -15.5q-37 0 -58 23t-36 51t-31 51t-43 23q-29 0 -48 -18.5t-30 -41.5
t-15.5 -42.5t-4.5 -22.5z" />
    <glyph glyph-name="exclamdown" unicode="&#xa1;" horiz-adv-x="318" 
d="M158 442q-57 0 -91 21t-34 70t34 69t91 20t91 -20t34 -69t-34 -70t-91 -21zM159 -98q-30 0 -58 7t-49 22t-34 38.5t-13 57.5q0 33 10.5 57.5t26.5 47t35 46t35 55t26.5 72.5t10.5 99h20q0 -58 10.5 -99t26.5 -72.5t35 -55t35 -46t26.5 -47.5t10.5 -57q0 -34 -13 -57.5
t-34 -38.5t-49 -22t-58 -7z" />
    <glyph glyph-name="cent" unicode="&#xa2;" horiz-adv-x="415" 
d="M219 59q-59 4 -98 26t-62.5 59t-33.5 86.5t-10 108.5q0 53 5.5 96.5t26.5 74.5t61.5 48.5t110.5 18.5v76h20v-76q90 -2 130.5 -37t40.5 -107q0 -31 -3 -55t-12.5 -41t-28 -26t-49.5 -9q-29 0 -50 5.5t-32 17.5q7 17 9.5 46t2.5 62q0 60 -2.5 94t-14.5 34q-6 0 -10.5 -5
t-7 -19.5t-4 -39.5t-1.5 -64q0 -37 1 -66.5t10.5 -50.5t31.5 -32t63 -11q45 0 67 10.5t26 12.5q-3 -47 -3 -98t1 -126q-35 -8 -79 -11t-81 -3h-5v-58h-20v59z" />
    <glyph glyph-name="sterling" unicode="&#xa3;" horiz-adv-x="545" 
d="M5 324h83q-7 26 -17.5 51.5t-20.5 50.5t-17 50.5t-7 50.5q0 65 23.5 101.5t61 54.5t83.5 22.5t92 4.5q56 0 103 -5.5t80.5 -23t52 -50t18.5 -86.5q0 -85 -28.5 -118.5t-91.5 -33.5q-40 0 -77 12t-56 47q13 13 18 40.5t5 78.5q0 119 -24 119q-23 0 -32.5 -15.5t-11 -42.5
t3 -63t10 -76.5t9.5 -84t2 -84.5h138v-30h-141q-3 -23 -9 -44.5t-17 -40.5q39 1 82 5.5t83 18t74 37t56 61.5h5l-10 -331h-498v114l11 12q39 46 49 87.5t4 80.5h-89v30z" />
    <glyph glyph-name="currency" unicode="&#xa4;" horiz-adv-x="510" 
d="M15 548l21 21l86 -86q24 19 57.5 29.5t77.5 10.5q43 0 76 -10t57 -28l84 84l21 -21l-83 -83q24 -26 35.5 -61.5t11.5 -77.5q0 -45 -13 -83t-42 -65l91 -91l-21 -21l-94 94q-23 -15 -54 -23.5t-69 -8.5q-39 0 -70.5 9t-54.5 25l-96 -96l-21 21l94 94q-28 28 -41.5 65
t-13.5 80q0 41 11.5 76t34.5 61zM255 151q5 0 7 7.5t3 27t1 54.5v89v87t-1 52t-3 25.5t-7 6.5q-4 0 -6.5 -6.5t-4 -25.5t-1.5 -52v-87v-87.5t1.5 -54.5t4 -28t6.5 -8z" />
    <glyph glyph-name="yen" unicode="&#xa5;" horiz-adv-x="592" 
d="M65 175h64v42h-64v30h63q-2 26 -10 65.5t-19 84.5t-24 92t-26 88.5t-24.5 74t-19.5 48.5h289q-2 -26 2 -63t12.5 -80t19.5 -88t22.5 -87t23.5 -77t21 -58h20q-10 51 -25 105t-29 110.5t-24 116t-10 121.5h260q-14 -41 -37 -102.5t-46.5 -126.5t-41.5 -125t-23 -99h76v-30
h-77v-42h77v-30h-77q1 -45 3.5 -79.5t7.5 -65.5h-331q6 30 8 64.5t3 80.5h-64v30z" />
    <glyph glyph-name="brokenbar" unicode="&#xa6;" horiz-adv-x="160" 
d="M65 750h30v-400h-30v400zM65 250h30v-400h-30v400z" />
    <glyph glyph-name="section" unicode="&#xa7;" horiz-adv-x="670" 
d="M407 -67q0 3 -29 15t-72.5 33t-94.5 50.5t-94.5 68t-72.5 86t-29 104.5q0 41 11 77t29 63t42 43.5t49 20.5q-6 14 -6 27q0 44 10.5 77t28.5 56t42 34.5t51 11.5h67.5t88 1t92 3.5t79.5 7.5q-4 -38 -5 -69.5t-1 -62t0.5 -62.5t1.5 -71h-2q-45 50 -95.5 92t-94 73t-74.5 48
t-38 17t-7 -7q0 -9 27.5 -28t68.5 -46.5t89.5 -62t89.5 -74t68.5 -83.5t27.5 -90q0 -91 -44 -147.5t-114 -76.5q-1 -54 -19.5 -93.5t-50 -65t-73.5 -38t-90 -12.5q-73 -1 -136.5 6.5t-110.5 7.5q2 41 3 76.5t1 70.5t-1.5 71t-4.5 77h1q18 -25 48.5 -52.5t67 -54t76 -50.5
t75.5 -42.5t65 -29t44 -10.5t15 10zM506 130q0 41 -20 75.5t-51.5 64.5t-70 55.5t-77 49.5t-71.5 46.5t-53 46.5q-5 -10 -5 -24q0 -12 22.5 -28.5t57.5 -39t76 -50t78.5 -62t65.5 -75t36 -88.5q12 10 12 29z" />
    <glyph glyph-name="dieresis" unicode="&#xa8;" horiz-adv-x="264" 
d="M221 598q-29 0 -48.5 16t-19.5 41q0 26 19 42.5t46 16.5q29 0 47 -16.5t18 -42.5q0 -25 -17.5 -41t-44.5 -16zM63 598q-29 0 -48 16t-19 41q0 26 19 42.5t46 16.5q29 0 47 -16.5t18 -42.5q0 -25 -18 -41t-45 -16z" />
    <glyph glyph-name="copyright" unicode="&#xa9;" horiz-adv-x="854" 
d="M41 354q0 78 22 143t69 112.5t120.5 74t176.5 26.5t176 -26.5t119 -74t67.5 -112.5t21.5 -143q0 -75 -21.5 -141t-68 -115.5t-120 -78.5t-176.5 -29t-176.5 29t-120 78.5t-68 115.5t-21.5 141zM61 355q0 -84 24.5 -148.5t71.5 -108t115 -66t155 -22.5t155 22.5t115 66
t72 108t25 148.5q0 85 -25 148t-72.5 104.5t-115 62t-152.5 20.5q-87 0 -155 -21t-115.5 -62.5t-72.5 -104t-25 -147.5zM567 146q-29 -6 -65.5 -9t-67.5 -3q-55 0 -92 17t-59 48t-31 74t-9 95q0 39 6.5 74.5t27 63t57.5 44t98 16.5q78 0 109 -33t31 -87q0 -25 -2.5 -45.5
t-10.5 -34.5t-23.5 -21.5t-41.5 -7.5q-49 0 -68 19q6 15 8 39t2 51q0 50 -2 78.5t-12 28.5q-5 0 -8.5 -4.5t-6 -16t-3.5 -32.5t-1 -54q0 -31 1 -55.5t9 -41.5t26 -26.5t52 -9.5q37 0 55.5 6.5t21.5 8.5q-2 -41 -4 -84t3 -98z" />
    <glyph glyph-name="guillemotleft" unicode="&#xab;" horiz-adv-x="509" 
d="M25 379l220 183h20l-73 -183l73 -183h-20zM213 379l220 183h20l-73 -183l73 -183h-20z" />
    <glyph glyph-name="registered" unicode="&#xae;" horiz-adv-x="854" 
d="M41 354q0 78 22 143t69 112.5t120.5 74t176.5 26.5t176 -26.5t119 -74t67.5 -112.5t21.5 -143q0 -75 -21.5 -141t-68 -115.5t-120 -78.5t-176.5 -29t-176.5 29t-120 78.5t-68 115.5t-21.5 141zM61 355q0 -84 24.5 -148.5t71.5 -108t115 -66t155 -22.5t155 22.5t115 66
t72 108t25 148.5q0 85 -25 148t-72.5 104.5t-115 62t-152.5 20.5q-87 0 -155 -21t-115.5 -62.5t-72.5 -104t-25 -147.5zM452 563q67 0 103.5 -32.5t36.5 -79.5q0 -38 -12.5 -61t-33.5 -35t-48.5 -16t-57.5 -4q15 -8 33.5 -14t45.5 -6q18 0 31 5t21.5 11t13.5 12t6 8l2 -1
q-2 -41 -2.5 -94.5t3.5 -107.5q-14 -5 -35 -8t-39 -3q-28 0 -44.5 14.5t-26 36.5t-13.5 48t-6 48t-4 36.5t-8 14.5q0 -47 0.5 -99.5t5.5 -92.5h-163q3 22 4 48.5t2 54.5t1 55.5v51.5v51.5t-1 55.5t-2 54.5t-4 48.5h191zM418 349q11 0 17.5 24.5t6.5 78.5q0 31 -1.5 50.5
t-4.5 31t-7.5 15.5t-10.5 4v-204z" />
    <glyph glyph-name="degree" unicode="&#xb0;" horiz-adv-x="230" 
d="M115 530q-45 0 -72.5 26t-27.5 71t30 71.5t75 26.5t70 -26.5t25 -71.5t-27.5 -71t-72.5 -26zM115 555q33 0 54 19.5t21 52.5q0 31 -21 52t-54 21t-54 -21t-21 -52q0 -33 21 -52.5t54 -19.5z" />
    <glyph glyph-name="plusminus" unicode="&#xb1;" 
d="M257 349h-185v30h185v180h30v-180h185v-30h-185v-180h-30v180zM72 131h400v-30h-400v30z" />
    <glyph glyph-name="acute" unicode="&#xb4;" horiz-adv-x="196" 
d="M196 725l-172 -113h-5l15 118h162v-5z" />
    <glyph glyph-name="paragraph" unicode="&#xb6;" horiz-adv-x="645" 
d="M520 610h-79v-610h-90v236h-40q-75 0 -128.5 18.5t-87 50.5t-49.5 75t-16 92q0 47 12.5 87.5t43 71t81 48.5t125.5 21h318v-700h-90v610z" />
    <glyph glyph-name="periodcentered" unicode="&#xb7;" horiz-adv-x="280" 
d="M145 243q-57 0 -93.5 30t-36.5 78q0 24 9.5 44.5t26.5 35t40 22.5t50 8q56 0 90 -30.5t34 -79.5q0 -48 -34 -78t-86 -30z" />
    <glyph glyph-name="cedilla" unicode="&#xb8;" horiz-adv-x="210" 
d="M54 -122q3 -13 11 -23q6 -8 16.5 -15t27.5 -7q20 0 37.5 11t17.5 48q0 28 -13 37.5t-29 9.5q-20 0 -32 -7l-11 6l20 75l17 -1l-18 -64q14 6 28 6q20 0 36.5 -14.5t16.5 -52.5q0 -27 -18.5 -48t-51.5 -21q-18 0 -30.5 6t-21 14t-13 16.5t-6.5 13.5z" />
    <glyph glyph-name="guillemotright" unicode="&#xbb;" horiz-adv-x="509" 
d="M453.002 379l-219.987 183h-19.998l72.9951 -183l-72.9951 -183h19.998zM265.002 379l-219.987 183h-19.998l72.9951 -183l-72.9951 -183h19.998z" />
    <glyph glyph-name="questiondown" unicode="&#xbf;" horiz-adv-x="524" 
d="M292 442q-57 0 -91 21t-34 70t34 69t91 20t91 -20t34 -69t-34 -70t-91 -21zM265 -78q24 0 24 119q0 15 -1 32.5t-4 34t-7.5 30t-10.5 19.5q19 35 56 47t77 12q63 0 91.5 -41.5t28.5 -104.5q0 -54 -18.5 -87t-52 -51t-80.5 -24t-103 -6q-46 0 -92 2.5t-83.5 17.5t-61 48
t-23.5 93q0 61 23 99.5t56.5 63.5t72 42t69.5 34.5t49.5 40.5t11.5 61h20q10 -29 9 -52.5t-8.5 -45t-18.5 -43.5t-21.5 -47t-18 -55.5t-7.5 -70.5q0 -81 2 -124.5t21 -43.5z" />
    <glyph glyph-name="Agrave" unicode="&#xc0;" horiz-adv-x="634" 
d="M269 0h-128q-41 0 -67.5 15.5t-41.5 40t-21 56.5t-6 65q0 66 19.5 136.5t47.5 139t58.5 132t51.5 115.5h323q0 -31 7 -88t18 -126.5t24.5 -144.5t27.5 -142.5t26 -120.5t21 -78h-314q2 40 -2.5 98.5t-13.5 125.5zM196 672q5 -68 12.5 -135t18.5 -119t25.5 -83.5
t34.5 -29.5q-9 55 -19.5 109.5t-21 103t-21 88.5t-19.5 66h-10zM315 880l15 -118h-5l-172 113v5h162z" />
    <glyph glyph-name="Aacute" unicode="&#xc1;" horiz-adv-x="634" 
d="M269 0h-128q-41 0 -67.5 15.5t-41.5 40t-21 56.5t-6 65q0 66 19.5 136.5t47.5 139t58.5 132t51.5 115.5h323q0 -31 7 -88t18 -126.5t24.5 -144.5t27.5 -142.5t26 -120.5t21 -78h-314q2 40 -2.5 98.5t-13.5 125.5zM196 672q5 -68 12.5 -135t18.5 -119t25.5 -83.5
t34.5 -29.5q-9 55 -19.5 109.5t-21 103t-21 88.5t-19.5 66h-10zM470 858l-172 -113h-5l15 118h162v-5z" />
    <glyph glyph-name="Acircumflex" unicode="&#xc2;" horiz-adv-x="634" 
d="M269 0h-128q-41 0 -67.5 15.5t-41.5 40t-21 56.5t-6 65q0 66 19.5 136.5t47.5 139t58.5 132t51.5 115.5h323q0 -31 7 -88t18 -126.5t24.5 -144.5t27.5 -142.5t26 -120.5t21 -78h-314q2 40 -2.5 98.5t-13.5 125.5zM196 672q5 -68 12.5 -135t18.5 -119t25.5 -83.5
t34.5 -29.5q-9 55 -19.5 109.5t-21 103t-21 88.5t-19.5 66h-10zM214 763l111 117h5l111 -117l-8 -7l-106 41l-105 -41z" />
    <glyph glyph-name="Atilde" unicode="&#xc3;" horiz-adv-x="634" 
d="M269 0h-128q-41 0 -67.5 15.5t-41.5 40t-21 56.5t-6 65q0 66 19.5 136.5t47.5 139t58.5 132t51.5 115.5h323q0 -31 7 -88t18 -126.5t24.5 -144.5t27.5 -142.5t26 -120.5t21 -78h-314q2 40 -2.5 98.5t-13.5 125.5zM196 672q5 -68 12.5 -135t18.5 -119t25.5 -83.5
t34.5 -29.5q-9 55 -19.5 109.5t-21 103t-21 88.5t-19.5 66h-10zM199 773q2 11 7 25.5t14 28t22.5 22.5t34.5 9t33.5 -14t22 -30.5t19.5 -30.5t26 -14t26 10.5t16 24t8.5 25t2.5 12.5l18 -4q-2 -12 -6 -26.5t-12 -27.5t-21 -22t-32 -9q-22 0 -34.5 14t-22 30.5t-18.5 30.5
t-26 14q-18 0 -29 -11t-17.5 -25t-9.5 -25.5t-3 -13.5z" />
    <glyph glyph-name="Adieresis" unicode="&#xc4;" horiz-adv-x="634" 
d="M269 0h-128q-41 0 -67.5 15.5t-41.5 40t-21 56.5t-6 65q0 66 19.5 136.5t47.5 139t58.5 132t51.5 115.5h323q0 -31 7 -88t18 -126.5t24.5 -144.5t27.5 -142.5t26 -120.5t21 -78h-314q2 40 -2.5 98.5t-13.5 125.5zM196 672q5 -68 12.5 -135t18.5 -119t25.5 -83.5
t34.5 -29.5q-9 55 -19.5 109.5t-21 103t-21 88.5t-19.5 66h-10zM417 748q-29 0 -48.5 16t-19.5 41q0 26 19 42.5t46 16.5q29 0 47 -16.5t18 -42.5q0 -25 -17.5 -41t-44.5 -16zM259 748q-29 0 -48 16t-19 41q0 26 19 42.5t46 16.5q29 0 47 -16.5t18 -42.5q0 -25 -18 -41
t-45 -16z" />
    <glyph glyph-name="Aring" unicode="&#xc5;" horiz-adv-x="634" 
d="M269 0h-128q-41 0 -67.5 15.5t-41.5 40t-21 56.5t-6 65q0 66 19.5 136.5t47.5 139t58.5 132t51.5 115.5h323q0 -31 7 -88t18 -126.5t24.5 -144.5t27.5 -142.5t26 -120.5t21 -78h-314q2 40 -2.5 98.5t-13.5 125.5zM196 672q5 -68 12.5 -135t18.5 -119t25.5 -83.5
t34.5 -29.5q-9 55 -19.5 109.5t-21 103t-21 88.5t-19.5 66h-10zM328 750q-38 0 -61.5 21.5t-23.5 59.5t25.5 61t63.5 23t59.5 -23t21.5 -61t-23.5 -59.5t-61.5 -21.5zM328 775q26 0 43 15.5t17 41.5t-17 42t-43 16t-43 -16t-17 -42t17 -41.5t43 -15.5z" />
    <glyph glyph-name="AE" unicode="&#xc6;" horiz-adv-x="861" 
d="M588 683v-310h222v-44l-222 1v-321q12 0 19.5 24.5t10.5 65t1.5 92t-7.5 105.5q15 2 32.5 3t35.5 1q29 0 57.5 -3.5t51 -13.5t37 -28t14.5 -46q0 -35 0.5 -72t-5.5 -67.5t-21.5 -50t-48.5 -19.5h-447q6 55 8 124.5t3 138.5l-45 -263h-128q-41 0 -67.5 15.5t-41.5 40
t-21 56.5t-6 65q0 66 19.5 136.5t47.5 139t58.5 132t51.5 115.5h553q30 0 47 -14.5t25.5 -37.5t10.5 -51t2 -54q0 -58 -14.5 -87.5t-43 -41.5t-70 -12t-95.5 2q6 54 7.5 105t-1.5 91t-10.5 63t-19.5 20zM211 672q5 -69 14.5 -134.5t22.5 -116t30.5 -79t38.5 -23.5
q-24 40 -48.5 124.5t-47.5 228.5h-10z" />
    <glyph glyph-name="Ccedilla" unicode="&#xc7;" horiz-adv-x="578" 
d="M555 10q-24 -5 -52.5 -9t-57.5 -6.5t-57.5 -3.5t-54.5 -1q-92 0 -153.5 28.5t-98 80t-51.5 123t-15 158.5q0 64 11 123.5t44.5 105.5t95.5 73.5t164 27.5q65 0 109.5 -14.5t72 -40.5t39.5 -63t12 -82q0 -42 -4 -76t-17.5 -57.5t-39 -36t-68.5 -12.5q-40 0 -69 7.5
t-45 24.5q10 25 13.5 65t3.5 85q0 83 -3.5 130.5t-20.5 47.5q-8 0 -14 -7.5t-9.5 -27t-5.5 -54t-2 -89.5q0 -51 1.5 -92t14.5 -70t43.5 -44.5t87.5 -15.5q61 0 92 11t36 14q-4 -68 -7 -140t5 -163zM292 -124q3 -13 11 -23q6 -8 16.5 -15t27.5 -7q20 0 37.5 11t17.5 48
q0 28 -13 37.5t-29 9.5q-20 0 -32 -7l-11 6l20 75l17 -1l-18 -64q14 6 28 6q20 0 36.5 -14.5t16.5 -52.5q0 -27 -18.5 -48t-51.5 -21q-18 0 -30.5 6t-21 14t-13 16.5t-6.5 13.5z" />
    <glyph glyph-name="Egrave" unicode="&#xc8;" horiz-adv-x="558" 
d="M285 683v-310h222v-44l-222 1v-321q12 0 19.5 24.5t10.5 65t1.5 92t-7.5 105.5q15 2 32.5 3t35.5 1q29 0 57.5 -3.5t51 -13.5t37 -28t14.5 -46q0 -35 0.5 -72t-5.5 -67.5t-21.5 -50t-48.5 -19.5h-447q4 36 6.5 80.5t3.5 91t1 92.5v86v86t-1 92.5t-3.5 91t-6.5 80.5h432
q30 0 47 -14.5t25.5 -37.5t10.5 -51t2 -54q0 -58 -14.5 -87.5t-43 -41.5t-70 -12t-95.5 2q6 54 7.5 105t-1.5 91t-10.5 63t-19.5 20zM235 863l15 -118h-5l-172 113v5h162z" />
    <glyph glyph-name="Eacute" unicode="&#xc9;" horiz-adv-x="558" 
d="M285 683v-310h222v-44l-222 1v-321q12 0 19.5 24.5t10.5 65t1.5 92t-7.5 105.5q15 2 32.5 3t35.5 1q29 0 57.5 -3.5t51 -13.5t37 -28t14.5 -46q0 -35 0.5 -72t-5.5 -67.5t-21.5 -50t-48.5 -19.5h-447q4 36 6.5 80.5t3.5 91t1 92.5v86v86t-1 92.5t-3.5 91t-6.5 80.5h432
q30 0 47 -14.5t25.5 -37.5t10.5 -51t2 -54q0 -58 -14.5 -87.5t-43 -41.5t-70 -12t-95.5 2q6 54 7.5 105t-1.5 91t-10.5 63t-19.5 20zM390 858l-172 -113h-5l15 118h162v-5z" />
    <glyph glyph-name="Ecircumflex" unicode="&#xca;" horiz-adv-x="558" 
d="M285 683v-310h222v-44l-222 1v-321q12 0 19.5 24.5t10.5 65t1.5 92t-7.5 105.5q15 2 32.5 3t35.5 1q29 0 57.5 -3.5t51 -13.5t37 -28t14.5 -46q0 -35 0.5 -72t-5.5 -67.5t-21.5 -50t-48.5 -19.5h-447q4 36 6.5 80.5t3.5 91t1 92.5v86v86t-1 92.5t-3.5 91t-6.5 80.5h432
q30 0 47 -14.5t25.5 -37.5t10.5 -51t2 -54q0 -58 -14.5 -87.5t-43 -41.5t-70 -12t-95.5 2q6 54 7.5 105t-1.5 91t-10.5 63t-19.5 20zM134 763l111 117h5l111 -117l-8 -7l-106 41l-105 -41z" />
    <glyph glyph-name="Edieresis" unicode="&#xcb;" horiz-adv-x="558" 
d="M285 683v-310h222v-44l-222 1v-321q12 0 19.5 24.5t10.5 65t1.5 92t-7.5 105.5q15 2 32.5 3t35.5 1q29 0 57.5 -3.5t51 -13.5t37 -28t14.5 -46q0 -35 0.5 -72t-5.5 -67.5t-21.5 -50t-48.5 -19.5h-447q4 36 6.5 80.5t3.5 91t1 92.5v86v86t-1 92.5t-3.5 91t-6.5 80.5h432
q30 0 47 -14.5t25.5 -37.5t10.5 -51t2 -54q0 -58 -14.5 -87.5t-43 -41.5t-70 -12t-95.5 2q6 54 7.5 105t-1.5 91t-10.5 63t-19.5 20zM337 748q-29 0 -48.5 16t-19.5 41q0 26 19 42.5t46 16.5q29 0 47 -16.5t18 -42.5q0 -25 -17.5 -41t-44.5 -16zM179 748q-29 0 -48 16
t-19 41q0 26 19 42.5t46 16.5q29 0 47 -16.5t18 -42.5q0 -25 -18 -41t-45 -16z" />
    <glyph glyph-name="Igrave" unicode="&#xcc;" horiz-adv-x="312" 
d="M15 0q4 36 6.5 80.5t3.5 91t1 92.5v86v86t-1 92.5t-3.5 91t-6.5 80.5h282q-4 -36 -6.5 -80.5t-3.5 -91t-1 -92.5v-86v-86t1 -92.5t3.5 -91t6.5 -80.5h-282zM137 883l15 -118h-5l-172 113v5h162z" />
    <glyph glyph-name="Iacute" unicode="&#xcd;" horiz-adv-x="312" 
d="M15 0q4 36 6.5 80.5t3.5 91t1 92.5v86v86t-1 92.5t-3.5 91t-6.5 80.5h282q-4 -36 -6.5 -80.5t-3.5 -91t-1 -92.5v-86v-86t1 -92.5t3.5 -91t6.5 -80.5h-282zM292 878l-172 -113h-5l15 118h162v-5z" />
    <glyph glyph-name="Icircumflex" unicode="&#xce;" horiz-adv-x="312" 
d="M15 0q4 36 6.5 80.5t3.5 91t1 92.5v86v86t-1 92.5t-3.5 91t-6.5 80.5h282q-4 -36 -6.5 -80.5t-3.5 -91t-1 -92.5v-86v-86t1 -92.5t3.5 -91t6.5 -80.5h-282zM36 783l111 117h5l111 -117l-8 -7l-106 41l-105 -41z" />
    <glyph glyph-name="Idieresis" unicode="&#xcf;" horiz-adv-x="312" 
d="M15 0q4 36 6.5 80.5t3.5 91t1 92.5v86v86t-1 92.5t-3.5 91t-6.5 80.5h282q-4 -36 -6.5 -80.5t-3.5 -91t-1 -92.5v-86v-86t1 -92.5t3.5 -91t6.5 -80.5h-282zM239 768q-29 0 -48.5 16t-19.5 41q0 26 19 42.5t46 16.5q29 0 47 -16.5t18 -42.5q0 -25 -17.5 -41t-44.5 -16z
M81 768q-29 0 -48 16t-19 41q0 26 19 42.5t46 16.5q29 0 47 -16.5t18 -42.5q0 -25 -18 -41t-45 -16z" />
    <glyph glyph-name="Eth" unicode="&#xd0;" horiz-adv-x="618" 
d="M334 700q73 0 126 -17t87 -57.5t50 -108t16 -166.5t-16 -166.5t-49 -108t-84.5 -58.5t-122.5 -18h-326q4 35 6.5 77t3.5 86t1 88.5v83.5h-61v30h61v83.5t-1 88.5t-3.5 86t-6.5 77h319zM286 365h47q0 57 -0.5 113.5t-5 101t-13.5 72.5t-26 28h-2v-315zM286 19q17 0 26 28
t14 73t6 101.5t1 113.5h-47v-316z" />
    <glyph glyph-name="Ntilde" unicode="&#xd1;" horiz-adv-x="536" 
d="M15 0q4 36 7 80.5t5.5 91t3.5 92.5t1 86t0.5 86t0 92.5t-2 91t-5.5 80.5h290q9 -43 34 -100t54.5 -127.5t57 -153.5t40.5 -179h10q0 82 -20 161t-46.5 151t-51 135t-33.5 113h191q-4 -36 -7 -80.5t-5 -91t-3 -92.5t-1 -86t-0.5 -86t-0.5 -92.5t1.5 -91t5.5 -80.5h-290
q0 31 -25.5 87t-58 130t-62.5 162t-40 181h-10q5 -94 23.5 -166.5t42 -136t48 -125t41.5 -132.5h-195zM152 773q2 11 7 25.5t14 28t22.5 22.5t34.5 9t33.5 -14t22 -30.5t19.5 -30.5t26 -14t26 10.5t16 24t8.5 25t2.5 12.5l18 -4q-2 -12 -6 -26.5t-12 -27.5t-21 -22t-32 -9
q-22 0 -34.5 14t-22 30.5t-18.5 30.5t-26 14q-18 0 -29 -11t-17.5 -25t-9.5 -25.5t-3 -13.5z" />
    <glyph glyph-name="Ograve" unicode="&#xd2;" horiz-adv-x="684" 
d="M343 -10q-107 0 -172 29t-99.5 78.5t-45.5 115.5t-11 141q0 78 11 143t46 112.5t100 74t172 26.5t171 -26.5t98.5 -74t45 -112.5t10.5 -143q0 -77 -10.5 -143.5t-45 -115.5t-99 -77t-171.5 -28zM342 11q9 0 14.5 26.5t8.5 72.5t3.5 108.5t0.5 135.5t-0.5 134.5t-3.5 106
t-8.5 69.5t-14.5 25t-14.5 -25t-8.5 -69.5t-3.5 -106t-0.5 -134.5q0 -70 0.5 -132.5t3.5 -109.5t8.5 -74t14.5 -27zM331 863l15 -118h-5l-172 113v5h162z" />
    <glyph glyph-name="Oacute" unicode="&#xd3;" horiz-adv-x="684" 
d="M343 -10q-107 0 -172 29t-99.5 78.5t-45.5 115.5t-11 141q0 78 11 143t46 112.5t100 74t172 26.5t171 -26.5t98.5 -74t45 -112.5t10.5 -143q0 -77 -10.5 -143.5t-45 -115.5t-99 -77t-171.5 -28zM342 11q9 0 14.5 26.5t8.5 72.5t3.5 108.5t0.5 135.5t-0.5 134.5t-3.5 106
t-8.5 69.5t-14.5 25t-14.5 -25t-8.5 -69.5t-3.5 -106t-0.5 -134.5q0 -70 0.5 -132.5t3.5 -109.5t8.5 -74t14.5 -27zM486 858l-172 -113h-5l15 118h162v-5z" />
    <glyph glyph-name="Ocircumflex" unicode="&#xd4;" horiz-adv-x="684" 
d="M343 -10q-107 0 -172 29t-99.5 78.5t-45.5 115.5t-11 141q0 78 11 143t46 112.5t100 74t172 26.5t171 -26.5t98.5 -74t45 -112.5t10.5 -143q0 -77 -10.5 -143.5t-45 -115.5t-99 -77t-171.5 -28zM342 11q9 0 14.5 26.5t8.5 72.5t3.5 108.5t0.5 135.5t-0.5 134.5t-3.5 106
t-8.5 69.5t-14.5 25t-14.5 -25t-8.5 -69.5t-3.5 -106t-0.5 -134.5q0 -70 0.5 -132.5t3.5 -109.5t8.5 -74t14.5 -27zM230 763l111 117h5l111 -117l-8 -7l-106 41l-105 -41z" />
    <glyph glyph-name="Otilde" unicode="&#xd5;" horiz-adv-x="684" 
d="M343 -10q-107 0 -172 29t-99.5 78.5t-45.5 115.5t-11 141q0 78 11 143t46 112.5t100 74t172 26.5t171 -26.5t98.5 -74t45 -112.5t10.5 -143q0 -77 -10.5 -143.5t-45 -115.5t-99 -77t-171.5 -28zM342 11q9 0 14.5 26.5t8.5 72.5t3.5 108.5t0.5 135.5t-0.5 134.5t-3.5 106
t-8.5 69.5t-14.5 25t-14.5 -25t-8.5 -69.5t-3.5 -106t-0.5 -134.5q0 -70 0.5 -132.5t3.5 -109.5t8.5 -74t14.5 -27zM215 773q2 11 7 25.5t14 28t22.5 22.5t34.5 9t33.5 -14t22 -30.5t19.5 -30.5t26 -14t26 10.5t16 24t8.5 25t2.5 12.5l18 -4q-2 -12 -6 -26.5t-12 -27.5
t-21 -22t-32 -9q-22 0 -34.5 14t-22 30.5t-18.5 30.5t-26 14q-18 0 -29 -11t-17.5 -25t-9.5 -25.5t-3 -13.5z" />
    <glyph glyph-name="Odieresis" unicode="&#xd6;" horiz-adv-x="684" 
d="M343 -10q-107 0 -172 29t-99.5 78.5t-45.5 115.5t-11 141q0 78 11 143t46 112.5t100 74t172 26.5t171 -26.5t98.5 -74t45 -112.5t10.5 -143q0 -77 -10.5 -143.5t-45 -115.5t-99 -77t-171.5 -28zM342 11q9 0 14.5 26.5t8.5 72.5t3.5 108.5t0.5 135.5t-0.5 134.5t-3.5 106
t-8.5 69.5t-14.5 25t-14.5 -25t-8.5 -69.5t-3.5 -106t-0.5 -134.5q0 -70 0.5 -132.5t3.5 -109.5t8.5 -74t14.5 -27zM433 748q-29 0 -48.5 16t-19.5 41q0 26 19 42.5t46 16.5q29 0 47 -16.5t18 -42.5q0 -25 -17.5 -41t-44.5 -16zM275 748q-29 0 -48 16t-19 41q0 26 19 42.5
t46 16.5q29 0 47 -16.5t18 -42.5q0 -25 -18 -41t-45 -16z" />
    <glyph glyph-name="multiply" unicode="&#xd7;" horiz-adv-x="335" 
d="M37.0889 416.474l130.812 -130.801l127.277 127.277l21.2129 -21.2109l-127.277 -127.277l130.812 -130.801l-21.2129 -21.2119l-130.812 130.801l-127.276 -127.277l-21.2129 21.2109l127.276 127.277l-130.812 130.801z" />
    <glyph glyph-name="Oslash" unicode="&#xd8;" horiz-adv-x="730" 
d="M546 730h30l-26 -49q47 -20 76 -52.5t44.5 -74.5t21 -92.5t5.5 -107.5q0 -77 -10.5 -143.5t-45 -115.5t-99 -77t-171.5 -28q-100 0 -166 26l-33 -63h-30l39 74q-44 23 -71 56.5t-42 76t-20 91.5t-5 103q0 78 11 143t46 112.5t100 74t172 26.5q47 0 84.5 -5t68.5 -15z
M397 443q0 55 -1.5 100.5t-4.5 77.5t-8 50t-13 18q-9 0 -14.5 -25t-8.5 -69.5t-3.5 -106t-0.5 -134.5v-14zM370 11q9 0 14.5 26.5t8.5 72.5t3.5 108.5t0.5 135.5v32l-54 -104q0 -58 1.5 -107.5t4.5 -86t8 -57t13 -20.5z" />
    <glyph glyph-name="Ugrave" unicode="&#xd9;" 
d="M287 14q8 0 11.5 16.5t5.5 45.5t2 68.5v85.5v65.5t-0.5 82.5t-1 91t-1.5 90t-3 80t-5 61h262q-3 -24 -5 -61t-3 -80t-1.5 -89.5t-1 -90.5t-0.5 -82v-64q0 -71 -11 -118t-40 -74.5t-79.5 -39t-129.5 -11.5t-129.5 11.5t-79.5 39t-40 74.5t-11 118v64t-0.5 82t-1 90.5
t-1.5 89.5t-3 80t-5 61h262q-3 -24 -5 -61t-3 -80t-1.5 -90t-1 -91t-0.5 -82.5v-65.5v-85.5t2 -68.5t6.5 -45.5t12.5 -16.5zM282 863l15 -118h-5l-172 113v5h162z" />
    <glyph glyph-name="Uacute" unicode="&#xda;" 
d="M287 14q8 0 11.5 16.5t5.5 45.5t2 68.5v85.5v65.5t-0.5 82.5t-1 91t-1.5 90t-3 80t-5 61h262q-3 -24 -5 -61t-3 -80t-1.5 -89.5t-1 -90.5t-0.5 -82v-64q0 -71 -11 -118t-40 -74.5t-79.5 -39t-129.5 -11.5t-129.5 11.5t-79.5 39t-40 74.5t-11 118v64t-0.5 82t-1 90.5
t-1.5 89.5t-3 80t-5 61h262q-3 -24 -5 -61t-3 -80t-1.5 -90t-1 -91t-0.5 -82.5v-65.5v-85.5t2 -68.5t6.5 -45.5t12.5 -16.5zM437 858l-172 -113h-5l15 118h162v-5z" />
    <glyph glyph-name="Ucircumflex" unicode="&#xdb;" 
d="M287 14q8 0 11.5 16.5t5.5 45.5t2 68.5v85.5v65.5t-0.5 82.5t-1 91t-1.5 90t-3 80t-5 61h262q-3 -24 -5 -61t-3 -80t-1.5 -89.5t-1 -90.5t-0.5 -82v-64q0 -71 -11 -118t-40 -74.5t-79.5 -39t-129.5 -11.5t-129.5 11.5t-79.5 39t-40 74.5t-11 118v64t-0.5 82t-1 90.5
t-1.5 89.5t-3 80t-5 61h262q-3 -24 -5 -61t-3 -80t-1.5 -90t-1 -91t-0.5 -82.5v-65.5v-85.5t2 -68.5t6.5 -45.5t12.5 -16.5zM181 763l111 117h5l111 -117l-8 -7l-106 41l-105 -41z" />
    <glyph glyph-name="Udieresis" unicode="&#xdc;" 
d="M287 14q8 0 11.5 16.5t5.5 45.5t2 68.5v85.5v65.5t-0.5 82.5t-1 91t-1.5 90t-3 80t-5 61h262q-3 -24 -5 -61t-3 -80t-1.5 -89.5t-1 -90.5t-0.5 -82v-64q0 -71 -11 -118t-40 -74.5t-79.5 -39t-129.5 -11.5t-129.5 11.5t-79.5 39t-40 74.5t-11 118v64t-0.5 82t-1 90.5
t-1.5 89.5t-3 80t-5 61h262q-3 -24 -5 -61t-3 -80t-1.5 -90t-1 -91t-0.5 -82.5v-65.5v-85.5t2 -68.5t6.5 -45.5t12.5 -16.5zM384 748q-29 0 -48.5 16t-19.5 41q0 26 19 42.5t46 16.5q29 0 47 -16.5t18 -42.5q0 -25 -17.5 -41t-44.5 -16zM226 748q-29 0 -48 16t-19 41
q0 26 19 42.5t46 16.5q29 0 47 -16.5t18 -42.5q0 -25 -18 -41t-45 -16z" />
    <glyph glyph-name="Yacute" unicode="&#xdd;" horiz-adv-x="592" 
d="M118 0q8 42 9.5 95t1.5 133q0 21 -7 59.5t-18 85.5t-24.5 97.5t-27.5 96t-26.5 81t-20.5 52.5h289q-2 -26 2 -63t12.5 -80t19.5 -88t22.5 -87t23.5 -77t21 -58h20q-10 51 -25 105t-29 110.5t-24 116t-10 121.5h260q-10 -29 -24.5 -69.5t-31.5 -85.5t-33.5 -92
t-29.5 -89.5t-21.5 -78t-8.5 -57.5q0 -77 1.5 -130.5t9.5 -97.5h-331zM478 858l-172 -113h-5l15 118h162v-5z" />
    <glyph glyph-name="Thorn" unicode="&#xde;" horiz-adv-x="632" 
d="M15 0q4 36 6.5 80.5t3.5 91t1 92.5v86v86t-1 92.5t-3.5 91t-6.5 80.5h282q-4 -33 -6 -73h47q73 0 126 -13.5t87 -45.5t50 -85.5t16 -131.5q0 -79 -16 -132t-49 -85.5t-84.5 -46.5t-122.5 -14h-54q2 -40 6 -73h-282zM290 93q17 0 26.5 23t14 60t5.5 83.5t1 92.5t-0.5 91.5
t-4.5 82t-13.5 59t-26.5 22.5h-2q-3 -63 -3.5 -131.5t-0.5 -125.5t0.5 -125.5t3.5 -131.5z" />
    <glyph glyph-name="germandbls" unicode="&#xdf;" horiz-adv-x="608" 
d="M297 10q10 0 17 12.5t12 35t7.5 53t2.5 67.5q0 86 -12.5 128t-37.5 45v-351h-271q4 36 6.5 80.5t3.5 91t1 92.5v86v81.5t-1 88.5q-1 41 10.5 74.5t34 57t54 36t71.5 12.5h130q65 0 110 -12t73 -34.5t41 -54t13 -70.5q0 -35 -7.5 -64.5t-26.5 -51t-51 -34.5t-81 -15v-6
q49 -2 86.5 -10.5t63 -28t39 -52.5t13.5 -85q0 -192 -297 -192zM287 371q10 0 18 13t14 35t9 51.5t3 61.5q0 81 -11.5 114.5t-32.5 33.5h-1v-309h1z" />
    <glyph glyph-name="agrave" unicode="&#xe0;" horiz-adv-x="551" 
d="M301 53q-9 -27 -36.5 -45t-84.5 -18q-86 0 -125.5 34t-39.5 109q0 43 15.5 71t40 45t55.5 25.5t61.5 11.5t58 2.5t45.5 -0.5h5v97v51t-1.5 32t-6 17t-14.5 5q-12 0 -14.5 -24t-0.5 -55t7 -61t8 -42q-24 -3 -52 -6t-55 -3q-25 0 -48.5 4t-41 14.5t-28 29.5t-10.5 48
q0 32 9.5 54t35.5 35.5t72 19.5t118 6q75 0 124 -6.5t77.5 -24.5t39.5 -50.5t11 -85.5v-193q0 -35 1 -70t9 -80h-225zM296 266q-10 0 -17.5 -3t-13 -14.5t-8 -34.5t-2.5 -63q0 -39 6 -56.5t18 -17.5q9 0 13 13.5t4 31.5v144zM261 663l15 -118h-5l-172 113v5h162z" />
    <glyph glyph-name="aacute" unicode="&#xe1;" horiz-adv-x="551" 
d="M301 53q-9 -27 -36.5 -45t-84.5 -18q-86 0 -125.5 34t-39.5 109q0 43 15.5 71t40 45t55.5 25.5t61.5 11.5t58 2.5t45.5 -0.5h5v97v51t-1.5 32t-6 17t-14.5 5q-12 0 -14.5 -24t-0.5 -55t7 -61t8 -42q-24 -3 -52 -6t-55 -3q-25 0 -48.5 4t-41 14.5t-28 29.5t-10.5 48
q0 32 9.5 54t35.5 35.5t72 19.5t118 6q75 0 124 -6.5t77.5 -24.5t39.5 -50.5t11 -85.5v-193q0 -35 1 -70t9 -80h-225zM296 266q-10 0 -17.5 -3t-13 -14.5t-8 -34.5t-2.5 -63q0 -39 6 -56.5t18 -17.5q9 0 13 13.5t4 31.5v144zM416 658l-172 -113h-5l15 118h162v-5z" />
    <glyph glyph-name="acircumflex" unicode="&#xe2;" horiz-adv-x="551" 
d="M301 53q-9 -27 -36.5 -45t-84.5 -18q-86 0 -125.5 34t-39.5 109q0 43 15.5 71t40 45t55.5 25.5t61.5 11.5t58 2.5t45.5 -0.5h5v97v51t-1.5 32t-6 17t-14.5 5q-12 0 -14.5 -24t-0.5 -55t7 -61t8 -42q-24 -3 -52 -6t-55 -3q-25 0 -48.5 4t-41 14.5t-28 29.5t-10.5 48
q0 32 9.5 54t35.5 35.5t72 19.5t118 6q75 0 124 -6.5t77.5 -24.5t39.5 -50.5t11 -85.5v-193q0 -35 1 -70t9 -80h-225zM296 266q-10 0 -17.5 -3t-13 -14.5t-8 -34.5t-2.5 -63q0 -39 6 -56.5t18 -17.5q9 0 13 13.5t4 31.5v144zM160 563l111 117h5l111 -117l-8 -7l-106 41
l-105 -41z" />
    <glyph glyph-name="atilde" unicode="&#xe3;" horiz-adv-x="551" 
d="M301 53q-9 -27 -36.5 -45t-84.5 -18q-86 0 -125.5 34t-39.5 109q0 43 15.5 71t40 45t55.5 25.5t61.5 11.5t58 2.5t45.5 -0.5h5v97v51t-1.5 32t-6 17t-14.5 5q-12 0 -14.5 -24t-0.5 -55t7 -61t8 -42q-24 -3 -52 -6t-55 -3q-25 0 -48.5 4t-41 14.5t-28 29.5t-10.5 48
q0 32 9.5 54t35.5 35.5t72 19.5t118 6q75 0 124 -6.5t77.5 -24.5t39.5 -50.5t11 -85.5v-193q0 -35 1 -70t9 -80h-225zM296 266q-10 0 -17.5 -3t-13 -14.5t-8 -34.5t-2.5 -63q0 -39 6 -56.5t18 -17.5q9 0 13 13.5t4 31.5v144zM145 573q2 11 7 25.5t14 28t22.5 22.5t34.5 9
t33.5 -14t22 -30.5t19.5 -30.5t26 -14t26 10.5t16 24t8.5 25t2.5 12.5l18 -4q-2 -12 -6 -26.5t-12 -27.5t-21 -22t-32 -9q-22 0 -34.5 14t-22 30.5t-18.5 30.5t-26 14q-18 0 -29 -11t-17.5 -25t-9.5 -25.5t-3 -13.5z" />
    <glyph glyph-name="adieresis" unicode="&#xe4;" horiz-adv-x="551" 
d="M301 53q-9 -27 -36.5 -45t-84.5 -18q-86 0 -125.5 34t-39.5 109q0 43 15.5 71t40 45t55.5 25.5t61.5 11.5t58 2.5t45.5 -0.5h5v97v51t-1.5 32t-6 17t-14.5 5q-12 0 -14.5 -24t-0.5 -55t7 -61t8 -42q-24 -3 -52 -6t-55 -3q-25 0 -48.5 4t-41 14.5t-28 29.5t-10.5 48
q0 32 9.5 54t35.5 35.5t72 19.5t118 6q75 0 124 -6.5t77.5 -24.5t39.5 -50.5t11 -85.5v-193q0 -35 1 -70t9 -80h-225zM296 266q-10 0 -17.5 -3t-13 -14.5t-8 -34.5t-2.5 -63q0 -39 6 -56.5t18 -17.5q9 0 13 13.5t4 31.5v144zM363 548q-29 0 -48.5 16t-19.5 41q0 26 19 42.5
t46 16.5q29 0 47 -16.5t18 -42.5q0 -25 -17.5 -41t-44.5 -16zM205 548q-29 0 -48 16t-19 41q0 26 19 42.5t46 16.5q29 0 47 -16.5t18 -42.5q0 -25 -18 -41t-45 -16z" />
    <glyph glyph-name="aring" unicode="&#xe5;" horiz-adv-x="551" 
d="M301 53q-9 -27 -36.5 -45t-84.5 -18q-86 0 -125.5 34t-39.5 109q0 43 15.5 71t40 45t55.5 25.5t61.5 11.5t58 2.5t45.5 -0.5h5v97v51t-1.5 32t-6 17t-14.5 5q-12 0 -14.5 -24t-0.5 -55t7 -61t8 -42q-24 -3 -52 -6t-55 -3q-25 0 -48.5 4t-41 14.5t-28 29.5t-10.5 48
q0 32 9.5 54t35.5 35.5t72 19.5t118 6q75 0 124 -6.5t77.5 -24.5t39.5 -50.5t11 -85.5v-193q0 -35 1 -70t9 -80h-225zM296 266q-10 0 -17.5 -3t-13 -14.5t-8 -34.5t-2.5 -63q0 -39 6 -56.5t18 -17.5q9 0 13 13.5t4 31.5v144zM274 550q-38 0 -61.5 21.5t-23.5 59.5t25.5 61
t63.5 23t59.5 -23t21.5 -61t-23.5 -59.5t-61.5 -21.5zM274 575q26 0 43 15.5t17 41.5t-17 42t-43 16t-43 -16t-17 -42t17 -41.5t43 -15.5z" />
    <glyph glyph-name="ae" unicode="&#xe6;" horiz-adv-x="706" 
d="M685 4q-35 -8 -79 -11t-81 -3q-86 0 -132.5 25t-68.5 70q-4 -18 -14.5 -35t-28 -30.5t-43 -21.5t-58.5 -8q-86 0 -125.5 34t-39.5 109q0 43 15.5 71t40 45t55.5 25.5t61.5 11.5t58 2.5t45.5 -0.5h5v97v51t-1.5 32t-6 17t-14.5 5q-12 0 -14.5 -24t-0.5 -55t7 -61t8 -42
q-24 -3 -52 -6t-55 -3q-25 0 -48.5 4t-41 14.5t-28 29.5t-10.5 48q0 32 4.5 54t25 35.5t61.5 19.5t113 6q42 0 71 -10t48 -29q24 18 60.5 28.5t90.5 10.5q47 0 80.5 -6.5t55.5 -22.5t32 -43.5t10 -69.5q0 -30 -4.5 -54t-17.5 -40.5t-37 -25.5t-63 -9q-17 0 -32 2.5t-27 7.5
q9 -22 29.5 -33t62.5 -11q41 0 61 10.5t24 12.5q-3 -47 -3 -98t1 -126zM503 276q12 6 19 26t7 67q0 54 -1.5 84.5t-11.5 30.5q-4 0 -7 -5t-5.5 -19.5t-3.5 -39.5t-1 -64q0 -23 0.5 -43t3.5 -37zM296 266q-10 0 -17.5 -3t-13 -14.5t-8 -34.5t-2.5 -63q0 -39 6 -56.5t18 -17.5
q9 0 13 13.5t4 31.5v144z" />
    <glyph glyph-name="ccedilla" unicode="&#xe7;" horiz-adv-x="425" 
d="M404 4q-35 -8 -79 -11t-81 -3q-66 0 -110.5 20.5t-70.5 57.5t-37 89t-11 114q0 54 6 98t28 75t65 48t116 17q94 0 137 -35t43 -109q0 -31 -3 -55t-12.5 -41t-28 -26t-49.5 -9q-29 0 -50 5.5t-32 17.5q7 17 9.5 46t2.5 62q0 60 -2.5 94t-14.5 34q-6 0 -10.5 -5t-7 -19.5
t-4 -39.5t-1.5 -64q0 -37 1 -66.5t10.5 -50.5t31.5 -32t63 -11q45 0 67 10.5t26 12.5q-3 -47 -3 -98t1 -126zM162 -122q3 -13 11 -23q6 -8 16.5 -15t27.5 -7q20 0 37.5 11t17.5 48q0 28 -13 37.5t-29 9.5q-20 0 -32 -7l-11 6l20 75l17 -1l-18 -64q14 6 28 6q20 0 36.5 -14.5
t16.5 -52.5q0 -27 -18.5 -48t-51.5 -21q-18 0 -30.5 6t-21 14t-13 16.5t-6.5 13.5z" />
    <glyph glyph-name="egrave" unicode="&#xe8;" horiz-adv-x="425" 
d="M404 4q-35 -8 -79 -11t-81 -3q-77 0 -122.5 20.5t-69 58t-30.5 89t-7 114.5q0 48 6.5 91t28.5 76t65.5 52t116.5 19q47 0 80.5 -6.5t55.5 -22.5t32 -43.5t10 -69.5q0 -30 -4.5 -54t-17.5 -40.5t-37 -25.5t-63 -9q-17 0 -32 2.5t-27 7.5q9 -22 29.5 -33t62.5 -11
q41 0 61 10.5t24 12.5q-3 -47 -3 -98t1 -126zM222 276q12 6 19 26t7 67q0 54 -1.5 84.5t-11.5 30.5q-4 0 -7 -5t-5.5 -19.5t-3.5 -39.5t-1 -64q0 -23 0.5 -43t3.5 -37zM220 663l15 -118h-5l-172 113v5h162z" />
    <glyph glyph-name="eacute" unicode="&#xe9;" horiz-adv-x="425" 
d="M404 4q-35 -8 -79 -11t-81 -3q-77 0 -122.5 20.5t-69 58t-30.5 89t-7 114.5q0 48 6.5 91t28.5 76t65.5 52t116.5 19q47 0 80.5 -6.5t55.5 -22.5t32 -43.5t10 -69.5q0 -30 -4.5 -54t-17.5 -40.5t-37 -25.5t-63 -9q-17 0 -32 2.5t-27 7.5q9 -22 29.5 -33t62.5 -11
q41 0 61 10.5t24 12.5q-3 -47 -3 -98t1 -126zM222 276q12 6 19 26t7 67q0 54 -1.5 84.5t-11.5 30.5q-4 0 -7 -5t-5.5 -19.5t-3.5 -39.5t-1 -64q0 -23 0.5 -43t3.5 -37zM375 658l-172 -113h-5l15 118h162v-5z" />
    <glyph glyph-name="ecircumflex" unicode="&#xea;" horiz-adv-x="425" 
d="M404 4q-35 -8 -79 -11t-81 -3q-77 0 -122.5 20.5t-69 58t-30.5 89t-7 114.5q0 48 6.5 91t28.5 76t65.5 52t116.5 19q47 0 80.5 -6.5t55.5 -22.5t32 -43.5t10 -69.5q0 -30 -4.5 -54t-17.5 -40.5t-37 -25.5t-63 -9q-17 0 -32 2.5t-27 7.5q9 -22 29.5 -33t62.5 -11
q41 0 61 10.5t24 12.5q-3 -47 -3 -98t1 -126zM222 276q12 6 19 26t7 67q0 54 -1.5 84.5t-11.5 30.5q-4 0 -7 -5t-5.5 -19.5t-3.5 -39.5t-1 -64q0 -23 0.5 -43t3.5 -37zM119 563l111 117h5l111 -117l-8 -7l-106 41l-105 -41z" />
    <glyph glyph-name="edieresis" unicode="&#xeb;" horiz-adv-x="425" 
d="M404 4q-35 -8 -79 -11t-81 -3q-77 0 -122.5 20.5t-69 58t-30.5 89t-7 114.5q0 48 6.5 91t28.5 76t65.5 52t116.5 19q47 0 80.5 -6.5t55.5 -22.5t32 -43.5t10 -69.5q0 -30 -4.5 -54t-17.5 -40.5t-37 -25.5t-63 -9q-17 0 -32 2.5t-27 7.5q9 -22 29.5 -33t62.5 -11
q41 0 61 10.5t24 12.5q-3 -47 -3 -98t1 -126zM222 276q12 6 19 26t7 67q0 54 -1.5 84.5t-11.5 30.5q-4 0 -7 -5t-5.5 -19.5t-3.5 -39.5t-1 -64q0 -23 0.5 -43t3.5 -37zM322 548q-29 0 -48.5 16t-19.5 41q0 26 19 42.5t46 16.5q29 0 47 -16.5t18 -42.5q0 -25 -17.5 -41
t-44.5 -16zM164 548q-29 0 -48 16t-19 41q0 26 19 42.5t46 16.5q29 0 47 -16.5t18 -42.5q0 -25 -18 -41t-45 -16z" />
    <glyph glyph-name="igrave" unicode="&#xec;" horiz-adv-x="274" 
d="M37 0q4 24 6.5 54.5t3.5 62t1 63v58.5v58.5t-1 63.5t-3.5 63t-6.5 57l200 20q-4 -26 -6.5 -57.5t-3.5 -65t-1 -66v-61.5v-61t1 -66.5t3.5 -65t6.5 -57.5h-200zM118 663l15 -118h-5l-172 113v5h162z" />
    <glyph glyph-name="iacute" unicode="&#xed;" horiz-adv-x="274" 
d="M37 0q4 24 6.5 54.5t3.5 62t1 63v58.5v58.5t-1 63.5t-3.5 63t-6.5 57l200 20q-4 -26 -6.5 -57.5t-3.5 -65t-1 -66v-61.5v-61t1 -66.5t3.5 -65t6.5 -57.5h-200zM273 658l-172 -113h-5l15 118h162v-5z" />
    <glyph glyph-name="icircumflex" unicode="&#xee;" horiz-adv-x="274" 
d="M37 0q4 24 6.5 54.5t3.5 62t1 63v58.5v58.5t-1 63.5t-3.5 63t-6.5 57l200 20q-4 -26 -6.5 -57.5t-3.5 -65t-1 -66v-61.5v-61t1 -66.5t3.5 -65t6.5 -57.5h-200zM17 563l111 117h5l111 -117l-8 -7l-106 41l-105 -41z" />
    <glyph glyph-name="idieresis" unicode="&#xef;" horiz-adv-x="274" 
d="M37 0q4 24 6.5 54.5t3.5 62t1 63v58.5v58.5t-1 63.5t-3.5 63t-6.5 57l200 20q-4 -26 -6.5 -57.5t-3.5 -65t-1 -66v-61.5v-61t1 -66.5t3.5 -65t6.5 -57.5h-200zM220 548q-29 0 -48.5 16t-19.5 41q0 26 19 42.5t46 16.5q29 0 47 -16.5t18 -42.5q0 -25 -17.5 -41t-44.5 -16z
M62 548q-29 0 -48 16t-19 41q0 26 19 42.5t46 16.5q29 0 47 -16.5t18 -42.5q0 -25 -18 -41t-45 -16z" />
    <glyph glyph-name="eth" unicode="&#xf0;" horiz-adv-x="518" 
d="M135 595l79 34q-22 23 -50 41t-63 30l3 12q134 -3 216 -38l90 39l11 -28l-66 -28q41 -24 69.5 -59t46 -82.5t25 -106.5t7.5 -131q0 -92 -19.5 -148.5t-55.5 -87.5t-87.5 -41.5t-115.5 -10.5q-43 0 -81.5 11t-67 40t-45 79.5t-16.5 130.5t12.5 131t36 80t58 40.5
t77.5 11.5q35 0 54.5 -8t29.5 -21l5 4q-7 29 -20.5 59t-33.5 57l-88 -38zM272 38q5 0 8.5 6.5t6 28.5t4 65t1.5 115q0 62 -1.5 103.5t-4.5 66t-7 35t-9 10.5q-3 0 -7.5 -5t-8.5 -26t-6.5 -64.5t-2.5 -120.5q0 -71 3 -113t7 -64.5t9 -29.5t8 -7z" />
    <glyph glyph-name="ntilde" unicode="&#xf1;" horiz-adv-x="531" 
d="M15 0q4 26 6.5 57.5t3.5 64.5t1 66.5v61.5v61t-1 66.5t-3.5 65t-6.5 57.5h221l7 -97v-8q3 18 10.5 38t22.5 37.5t38 28.5t57 11q50 0 77.5 -15.5t40.5 -42t16 -62t3 -75.5v-67.5t1 -82.5t2.5 -86t4.5 -79h-240q4 33 6.5 74.5t3.5 82.5t1 79v65t-1 44t-3 26.5t-5 13
t-8 3.5q-13 0 -18.5 -35.5t-5.5 -98.5q0 -30 0.5 -64t1.5 -67.5t3 -65t6 -57.5h-242zM136 561q2 11 7 25.5t14 28t22.5 22.5t34.5 9t33.5 -14t22 -30.5t19.5 -30.5t26 -14t26 10.5t16 24t8.5 25t2.5 12.5l18 -4q-2 -12 -6 -26.5t-12 -27.5t-21 -22t-32 -9q-22 0 -34.5 14
t-22 30.5t-18.5 30.5t-26 14q-18 0 -29 -11t-17.5 -25t-9.5 -25.5t-3 -13.5z" />
    <glyph glyph-name="ograve" unicode="&#xf2;" horiz-adv-x="535" 
d="M269 -10q-76 0 -125.5 21.5t-78 58t-39.5 85.5t-11 104t11.5 102t40 81t77.5 53t125 19q75 0 124 -19t77 -53.5t39 -82t11 -103.5q0 -55 -11 -103.5t-39 -84.5t-77 -57t-124 -21zM268 4q5 0 8.5 8t6 34t4 76t1.5 134q0 85 -1.5 133.5t-4 73t-6 31t-8.5 6.5t-9 -6.5
t-6.5 -30.5t-4 -72t-1.5 -132t1.5 -134t4 -77t6.5 -35.5t9 -8.5zM255 653l15 -118h-5l-172 113v5h162z" />
    <glyph glyph-name="oacute" unicode="&#xf3;" horiz-adv-x="535" 
d="M269 -10q-76 0 -125.5 21.5t-78 58t-39.5 85.5t-11 104t11.5 102t40 81t77.5 53t125 19q75 0 124 -19t77 -53.5t39 -82t11 -103.5q0 -55 -11 -103.5t-39 -84.5t-77 -57t-124 -21zM268 4q5 0 8.5 8t6 34t4 76t1.5 134q0 85 -1.5 133.5t-4 73t-6 31t-8.5 6.5t-9 -6.5
t-6.5 -30.5t-4 -72t-1.5 -132t1.5 -134t4 -77t6.5 -35.5t9 -8.5zM410 648l-172 -113h-5l15 118h162v-5z" />
    <glyph glyph-name="ocircumflex" unicode="&#xf4;" horiz-adv-x="535" 
d="M269 -10q-76 0 -125.5 21.5t-78 58t-39.5 85.5t-11 104t11.5 102t40 81t77.5 53t125 19q75 0 124 -19t77 -53.5t39 -82t11 -103.5q0 -55 -11 -103.5t-39 -84.5t-77 -57t-124 -21zM268 4q5 0 8.5 8t6 34t4 76t1.5 134q0 85 -1.5 133.5t-4 73t-6 31t-8.5 6.5t-9 -6.5
t-6.5 -30.5t-4 -72t-1.5 -132t1.5 -134t4 -77t6.5 -35.5t9 -8.5zM154 553l111 117h5l111 -117l-8 -7l-106 41l-105 -41z" />
    <glyph glyph-name="otilde" unicode="&#xf5;" horiz-adv-x="535" 
d="M269 -10q-76 0 -125.5 21.5t-78 58t-39.5 85.5t-11 104t11.5 102t40 81t77.5 53t125 19q75 0 124 -19t77 -53.5t39 -82t11 -103.5q0 -55 -11 -103.5t-39 -84.5t-77 -57t-124 -21zM268 4q5 0 8.5 8t6 34t4 76t1.5 134q0 85 -1.5 133.5t-4 73t-6 31t-8.5 6.5t-9 -6.5
t-6.5 -30.5t-4 -72t-1.5 -132t1.5 -134t4 -77t6.5 -35.5t9 -8.5zM139 563q2 11 7 25.5t14 28t22.5 22.5t34.5 9t33.5 -14t22 -30.5t19.5 -30.5t26 -14t26 10.5t16 24t8.5 25t2.5 12.5l18 -4q-2 -12 -6 -26.5t-12 -27.5t-21 -22t-32 -9q-22 0 -34.5 14t-22 30.5t-18.5 30.5
t-26 14q-18 0 -29 -11t-17.5 -25t-9.5 -25.5t-3 -13.5z" />
    <glyph glyph-name="odieresis" unicode="&#xf6;" horiz-adv-x="535" 
d="M269 -10q-76 0 -125.5 21.5t-78 58t-39.5 85.5t-11 104t11.5 102t40 81t77.5 53t125 19q75 0 124 -19t77 -53.5t39 -82t11 -103.5q0 -55 -11 -103.5t-39 -84.5t-77 -57t-124 -21zM268 4q5 0 8.5 8t6 34t4 76t1.5 134q0 85 -1.5 133.5t-4 73t-6 31t-8.5 6.5t-9 -6.5
t-6.5 -30.5t-4 -72t-1.5 -132t1.5 -134t4 -77t6.5 -35.5t9 -8.5zM357 538q-29 0 -48.5 16t-19.5 41q0 26 19 42.5t46 16.5q29 0 47 -16.5t18 -42.5q0 -25 -17.5 -41t-44.5 -16zM199 538q-29 0 -48 16t-19 41q0 26 19 42.5t46 16.5q29 0 47 -16.5t18 -42.5q0 -25 -18 -41
t-45 -16z" />
    <glyph glyph-name="divide" unicode="&#xf7;" horiz-adv-x="430" 
d="M220 366q-49 0 -77.5 27t-28.5 72t28.5 73t74.5 28q48 0 74.5 -28t26.5 -73t-26.5 -72t-71.5 -27zM220 -10q-49 0 -77.5 27t-28.5 72t28.5 73t74.5 28q48 0 74.5 -28t26.5 -73t-26.5 -72t-71.5 -27zM15 290h400v-30h-400v30z" />
    <glyph glyph-name="oslash" unicode="&#xf8;" horiz-adv-x="535" 
d="M507 510l-51 -54q37 -35 50.5 -86t13.5 -114q0 -55 -11 -103.5t-39 -84.5t-77 -57t-124 -21q-61 0 -104 13.5t-72 38.5l-49 -52h-30l63 67q-35 37 -48.5 89.5t-13.5 112.5q0 55 11.5 102t40 81t77.5 53t125 19q58 0 99.5 -11.5t70.5 -32.5l38 40h30zM268 4q5 0 8.5 8
t6 34t4 76t1.5 134v47q0 68 -1.5 107.5t-4 59.5t-6 25t-8.5 5t-9 -6.5t-6.5 -30.5t-4 -72t-1.5 -132v-43q0 -69 1.5 -110.5t4.5 -64t6.5 -30t8.5 -7.5z" />
    <glyph glyph-name="ugrave" unicode="&#xf9;" horiz-adv-x="542" 
d="M288 111q-3 -19 -11 -40t-22.5 -39t-37.5 -30t-56 -12q-49 0 -77 18t-41 48t-16 69t-3 81v66.5t-1 75t-2.5 77.5t-4.5 75h240q-4 -33 -6.5 -72.5t-3.5 -79t-1 -76v-63.5t1 -44t3 -26.5t5.5 -13t7.5 -3.5q13 0 18.5 36t5.5 100v4q0 60 -1.5 123t-9.5 115h252
q-4 -25 -6.5 -57t-3.5 -65t-1 -66v-62v-61t1 -66.5t3.5 -65t6.5 -57.5h-231zM259 663l15 -118h-5l-172 113v5h162z" />
    <glyph glyph-name="uacute" unicode="&#xfa;" horiz-adv-x="542" 
d="M288 111q-3 -19 -11 -40t-22.5 -39t-37.5 -30t-56 -12q-49 0 -77 18t-41 48t-16 69t-3 81v66.5t-1 75t-2.5 77.5t-4.5 75h240q-4 -33 -6.5 -72.5t-3.5 -79t-1 -76v-63.5t1 -44t3 -26.5t5.5 -13t7.5 -3.5q13 0 18.5 36t5.5 100v4q0 60 -1.5 123t-9.5 115h252
q-4 -25 -6.5 -57t-3.5 -65t-1 -66v-62v-61t1 -66.5t3.5 -65t6.5 -57.5h-231zM414 658l-172 -113h-5l15 118h162v-5z" />
    <glyph glyph-name="ucircumflex" unicode="&#xfb;" horiz-adv-x="542" 
d="M288 111q-3 -19 -11 -40t-22.5 -39t-37.5 -30t-56 -12q-49 0 -77 18t-41 48t-16 69t-3 81v66.5t-1 75t-2.5 77.5t-4.5 75h240q-4 -33 -6.5 -72.5t-3.5 -79t-1 -76v-63.5t1 -44t3 -26.5t5.5 -13t7.5 -3.5q13 0 18.5 36t5.5 100v4q0 60 -1.5 123t-9.5 115h252
q-4 -25 -6.5 -57t-3.5 -65t-1 -66v-62v-61t1 -66.5t3.5 -65t6.5 -57.5h-231zM158 563l111 117h5l111 -117l-8 -7l-106 41l-105 -41z" />
    <glyph glyph-name="udieresis" unicode="&#xfc;" horiz-adv-x="542" 
d="M288 111q-3 -19 -11 -40t-22.5 -39t-37.5 -30t-56 -12q-49 0 -77 18t-41 48t-16 69t-3 81v66.5t-1 75t-2.5 77.5t-4.5 75h240q-4 -33 -6.5 -72.5t-3.5 -79t-1 -76v-63.5t1 -44t3 -26.5t5.5 -13t7.5 -3.5q13 0 18.5 36t5.5 100v4q0 60 -1.5 123t-9.5 115h252
q-4 -25 -6.5 -57t-3.5 -65t-1 -66v-62v-61t1 -66.5t3.5 -65t6.5 -57.5h-231zM361 548q-29 0 -48.5 16t-19.5 41q0 26 19 42.5t46 16.5q29 0 47 -16.5t18 -42.5q0 -25 -17.5 -41t-44.5 -16zM203 548q-29 0 -48 16t-19 41q0 26 19 42.5t46 16.5q29 0 47 -16.5t18 -42.5
q0 -25 -18 -41t-45 -16z" />
    <glyph glyph-name="yacute" unicode="&#xfd;" horiz-adv-x="540" 
d="M176 -182q-49 0 -74 17t-35.5 42.5t-11 55.5t-0.5 57l2 2q26 -5 63.5 -7t77.5 -2q27 0 52 1t44.5 3.5t32.5 5.5t16 7h-191q-13 60 -27 123t-31.5 127t-39 127t-49.5 123h275q0 -85 22 -185t81 -224l9 20q-3 7 -18.5 42t-33 88t-31 120.5t-13.5 138.5h239
q0 -48 -17.5 -113.5t-43.5 -134.5t-55.5 -134.5t-54.5 -113.5q0 -2 -2 -4q-13 -20 -29 -51t-37.5 -60t-50.5 -50t-69 -21zM422 640l-172 -113h-5l15 118h162v-5z" />
    <glyph glyph-name="thorn" unicode="&#xfe;" horiz-adv-x="558" 
d="M15 -229q3 23 5 67.5t3 99.5t1.5 115.5t1 116t0.5 101.5v72v84t-1 91t-3.5 90.5t-6.5 81.5l253 20q-5 -49 -7.5 -110t-3.5 -123q5 15 25 26t67 11q44 0 78 -11.5t57.5 -40.5t36 -80t12.5 -131t-12.5 -130.5t-36 -79.5t-57.5 -40t-77 -11q-45 0 -64.5 11.5t-27.5 27.5
q1 -38 1.5 -74t1.5 -67t2.5 -56t3.5 -41zM276 38q3 0 8 7t9 29.5t7 64.5t3 113q0 77 -2.5 120.5t-6.5 64.5t-8.5 26t-7.5 5q-4 0 -8 -6t-7 -25.5t-5 -57.5t-2 -101v-93q1 -49 2.5 -78t4.5 -44.5t6 -20t7 -4.5z" />
    <glyph glyph-name="ydieresis" unicode="&#xff;" horiz-adv-x="540" 
d="M176 -182q-49 0 -74 17t-35.5 42.5t-11 55.5t-0.5 57l2 2q26 -5 63.5 -7t77.5 -2q27 0 52 1t44.5 3.5t32.5 5.5t16 7h-191q-13 60 -27 123t-31.5 127t-39 127t-49.5 123h275q0 -85 22 -185t81 -224l9 20q-3 7 -18.5 42t-33 88t-31 120.5t-13.5 138.5h239
q0 -48 -17.5 -113.5t-43.5 -134.5t-55.5 -134.5t-54.5 -113.5q0 -2 -2 -4q-13 -20 -29 -51t-37.5 -60t-50.5 -50t-69 -21zM369 530q-29 0 -48.5 16t-19.5 41q0 26 19 42.5t46 16.5q29 0 47 -16.5t18 -42.5q0 -25 -17.5 -41t-44.5 -16zM211 530q-29 0 -48 16t-19 41
q0 26 19 42.5t46 16.5q29 0 47 -16.5t18 -42.5q0 -25 -18 -41t-45 -16z" />
    <glyph glyph-name="Dcroat" unicode="&#x110;" horiz-adv-x="618" 
d="M334 700q73 0 126 -17t87 -57.5t50 -108t16 -166.5t-16 -166.5t-49 -108t-84.5 -58.5t-122.5 -18h-326q4 35 6.5 77t3.5 86t1 88.5v83.5h-61v30h61v83.5t-1 88.5t-3.5 86t-6.5 77h319zM286 365h47q0 57 -0.5 113.5t-5 101t-13.5 72.5t-26 28h-2v-315zM286 19q17 0 26 28
t14 73t6 101.5t1 113.5h-47v-316z" />
    <glyph glyph-name="dcroat" unicode="&#x111;" horiz-adv-x="549" 
d="M296 57q0 -11 -3.5 -23t-14 -21.5t-29.5 -16t-51 -6.5q-43 0 -77 11t-57.5 40t-36 79.5t-12.5 130.5t12.5 131t36 80t58 40.5t77.5 11.5q51 0 70.5 -12.5t23.5 -29.5q0 56 -2.5 108.5t-8.5 109.5l252 20q-4 -37 -6.5 -80.5t-3.5 -89t-1 -90.5v-85v-111v-62.5t1 -67
t3.5 -66t6.5 -58.5h-220zM272 38q4 0 7.5 5.5t6 23.5t4.5 53t2 94v39q0 72 -1.5 115t-4.5 65t-7 28.5t-9 6.5q-3 0 -7.5 -5t-8.5 -26t-6.5 -64.5t-2.5 -120.5q0 -71 3 -113t7 -64.5t9 -29.5t8 -7zM184 630h400v-30h-400v30z" />
    <glyph glyph-name="dotlessi" unicode="&#x131;" horiz-adv-x="274" 
d="M37 0q4 24 6.5 54.5t3.5 62t1 63v58.5v58.5t-1 63.5t-3.5 63t-6.5 57l200 20q-4 -26 -6.5 -57.5t-3.5 -65t-1 -66v-61.5v-61t1 -66.5t3.5 -65t6.5 -57.5h-200z" />
    <glyph glyph-name="Lslash" unicode="&#x141;" horiz-adv-x="528" 
d="M266 20q12 0 19.5 25t10.5 66t2 93t-7 106q32 4 58.5 6t49.5 2q64 0 93 -23t29 -87q0 -35 -3.5 -72t-14 -67t-29.5 -49.5t-50 -19.5h-409q4 36 6.5 80.5t3.5 91t1 92.5v86v86t-1 92.5t-3.5 91t-6.5 80.5h262q-4 -36 -6.5 -80.5t-3.5 -91t-1 -92.5v-86v-330zM39 350h450
v-30h-450v30z" />
    <glyph glyph-name="lslash" unicode="&#x142;" horiz-adv-x="283" 
d="M15 0q4 35 6.5 78.5t3.5 89.5t1 91v84v84t-1 91t-3.5 90.5t-6.5 81.5l253 20q-4 -37 -6.5 -82.5t-3.5 -92.5t-1.5 -94t-0.5 -87v-86.5t1 -94t3.5 -92.5t6.5 -81h-252zM-84 350h450v-30h-450v30z" />
    <glyph glyph-name="OE" unicode="&#x152;" horiz-adv-x="886" 
d="M613 683v-310h222v-44l-222 1v-321q12 0 19.5 24.5t10.5 65t1.5 92t-7.5 105.5q15 2 32.5 3t35.5 1q29 0 57.5 -3.5t51 -13.5t37 -28t14.5 -46q0 -35 0.5 -72t-5.5 -67.5t-21.5 -50t-48.5 -19.5h-345q-29 -5 -54 -7.5t-49 -2.5q-107 0 -171.5 29t-99 78.5t-45.5 115.5
t-11 141q0 78 11 143t46 112.5t100 74t172 26.5q31 0 62 -3.5t46 -6.5h323q30 0 47 -14.5t25.5 -37.5t10.5 -51t2 -54q0 -58 -14.5 -87.5t-43 -41.5t-70 -12t-95.5 2q6 54 7.5 105t-1.5 91t-10.5 63t-19.5 20zM344 11q4 36 6 79t3 88t1 89v83v83t-1 88.5t-3 87.5t-6 79
q-10 4 -16 -19.5t-9 -68t-3.5 -107.5t-0.5 -139q0 -70 0.5 -132.5t3.5 -109.5t8.5 -74t14.5 -27h2z" />
    <glyph glyph-name="oe" unicode="&#x153;" horiz-adv-x="697" 
d="M269 -12q-76 0 -125.5 21.5t-78 58t-39.5 85.5t-11 104t11.5 102t40 81t77.5 53t125 19q38 0 68.5 -5t55.5 -14q22 8 49 12.5t62 4.5q47 0 80.5 -6.5t55.5 -22.5t32 -43.5t10 -69.5q0 -30 -4.5 -54t-17.5 -40.5t-37 -25.5t-63 -9q-17 0 -32 2.5t-27 7.5q9 -22 29.5 -33
t62.5 -11q41 0 61 10.5t24 12.5q-3 -47 -3 -98t1 -126q-35 -8 -79 -11t-81 -3q-38 0 -67.5 5t-52.5 15q-53 -22 -127 -22zM268 2q5 0 8.5 7t6 30t4 66.5t1.5 116.5q-1 12 -1 24.5v25.5v19t1 19q0 65 -1.5 102.5t-4 56.5t-6 24t-8.5 5t-9 -6.5t-6.5 -30.5t-4 -72t-1.5 -132
t1.5 -134t4 -77t6.5 -35.5t9 -8.5zM494 276q12 6 19 26t7 67q0 54 -1.5 84.5t-11.5 30.5q-4 0 -7 -5t-5.5 -19.5t-3.5 -39.5t-1 -64q0 -23 0.5 -43t3.5 -37z" />
    <glyph glyph-name="Scaron" unicode="&#x160;" horiz-adv-x="574" 
d="M467 80q0 4 -33.5 17.5t-83.5 37.5t-109 58.5t-109 79t-83.5 99.5t-33.5 120q0 50 12 88.5t32.5 64.5t48.5 39.5t59 13.5h78t101 1t105.5 4t91.5 9q-4 -44 -5.5 -80.5t-1.5 -71.5t1 -71.5t2 -81.5h-2q-52 57 -107 106t-103.5 84t-85.5 55t-53 20q-8 0 -8 -8
q0 -10 27.5 -28t69 -44.5t90.5 -61.5t91 -79.5t70.5 -99.5t29.5 -120q1 -64 -17.5 -110t-52.5 -75.5t-81.5 -43.5t-103.5 -14q-85 -1 -158 7.5t-127 8.5q2 47 3 88.5t1 81.5t-1.5 81.5t-5.5 88.5h2q21 -29 56 -60.5t77 -62t87.5 -58.5t87 -48.5t74.5 -33t51 -12.5
q17 0 17 11zM279 889.037l111 -116.992h5l111 116.992l-8 7l-106 -40.998l-105 40.998z" />
    <glyph glyph-name="scaron" unicode="&#x161;" horiz-adv-x="453" 
d="M379 55q0 3 -27 13t-67.5 27.5t-87.5 42t-87.5 56.5t-67.5 71.5t-27 86.5q0 72 36.5 110t87.5 38q18 0 40 -0.5t46.5 -1.5t50 -1.5t49.5 -0.5q25 0 46.5 1t38.5 3q-1 -32 -2 -58t-0.5 -50t1.5 -48.5t2 -54.5q-36 36 -78 70.5t-80.5 61.5t-69 43.5t-44.5 16.5q-6 0 -6 -7
q0 -8 22.5 -22.5t56.5 -34.5t73.5 -46t73.5 -58t56.5 -69.5t22.5 -80.5q0 -46 -13.5 -79t-38 -54t-58 -30.5t-74.5 -9.5q-28 0 -59 1.5t-62 3.5t-60.5 3.5t-55.5 1.5q1 34 2 64t1 58.5t-0.5 58.5t-3.5 64q17 -21 45 -43.5t62.5 -44.5t71 -42t70 -35t60.5 -24t41 -9
q13 0 13 8zM130 662.037l111 -116.992h5l111 116.992l-8 7l-106 -40.998l-105 40.998z" />
    <glyph glyph-name="Ydieresis" unicode="&#x178;" horiz-adv-x="592" 
d="M118 0q8 42 9.5 95t1.5 133q0 21 -7 59.5t-18 85.5t-24.5 97.5t-27.5 96t-26.5 81t-20.5 52.5h289q-2 -26 2 -63t12.5 -80t19.5 -88t22.5 -87t23.5 -77t21 -58h20q-10 51 -25 105t-29 110.5t-24 116t-10 121.5h260q-10 -29 -24.5 -69.5t-31.5 -85.5t-33.5 -92
t-29.5 -89.5t-21.5 -78t-8.5 -57.5q0 -77 1.5 -130.5t9.5 -97.5h-331zM425 748q-29 0 -48.5 16t-19.5 41q0 26 19 42.5t46 16.5q29 0 47 -16.5t18 -42.5q0 -25 -17.5 -41t-44.5 -16zM267 748q-29 0 -48 16t-19 41q0 26 19 42.5t46 16.5q29 0 47 -16.5t18 -42.5
q0 -25 -18 -41t-45 -16z" />
    <glyph glyph-name="Zcaron" unicode="&#x17d;" horiz-adv-x="628" 
d="M25 0v10q15 27 28.5 53.5t29 60t35 77.5t45.5 105l19 44q16 37 33.5 79.5t34.5 85.5t32.5 84.5t27.5 77.5q-22 -10 -43.5 -47.5t-43 -87.5t-43 -105t-43 -101.5t-43 -77t-42.5 -30.5h-15l18 472h558v-10q-35 -64 -63.5 -128t-57.5 -130l-35 -82q-16 -37 -33.5 -79.5
t-35 -86t-32.5 -85.5t-27 -78q24 9 46.5 48t44.5 92.5t44 113t44.5 109.5t46.5 83t50 33v-500h-580zM324 877.037l111 -116.992h5l111 116.992l-8 7l-106 -40.998l-105 40.998z" />
    <glyph glyph-name="zcaron" unicode="&#x17e;" horiz-adv-x="456" 
d="M15 146l21 354h405v-7q-24 -46 -45 -91.5t-41 -92.5q-31 -72 -62 -144.5t-54 -147.5q16 9 32.5 38.5t32.5 69.5t32 83.5t32 80.5t32 61t32 24h4v-374h-421v7q11 19 20.5 38t21 43t25.5 55.5t32 75.5l13 31q11 26 24 56.5t25 61t23.5 60.5t19.5 56q-17 -6 -32.5 -34
t-31 -65.5t-31 -79.5t-32 -77.5t-35 -58.5t-39.5 -23h-3zM123 672.037l111 -116.992h5l111 116.992l-8 7l-106 -40.998l-105 40.998z" />
    <glyph glyph-name="florin" unicode="&#x192;" horiz-adv-x="573" 
d="M92 500h91q3 57 22 97t48.5 65t67.5 36.5t80 11.5q81 0 124 -25.5t43 -89.5q0 -25 -7.5 -42.5t-20 -28t-29 -15t-33.5 -4.5q-27 0 -51.5 9t-37.5 22q8 12 12 37.5t3 51.5t-6 45.5t-14 19.5q-6 0 -10.5 -7.5t-7.5 -20t-4 -27.5t-1 -30q0 -33 5.5 -53.5t14.5 -32t21 -15.5
t25 -4h113v-20h-108v-276q0 -59 -19.5 -99.5t-52 -66t-73.5 -37t-83 -11.5q-63 0 -102 10.5t-60.5 28t-29 40.5t-7.5 48q0 21 3.5 41.5t15 37t33 27t57.5 10.5q11 0 24 -1.5t27 -3.5q-10 -21 -11 -57.5t4.5 -72.5t17 -62.5t27.5 -26.5q13 0 11 19t-9 47.5t-15 62.5t-8 65
v277h-90v20z" />
    <glyph glyph-name="circumflex" unicode="&#x2c6;" horiz-adv-x="317" 
d="M45 613l111 117h5l111 -117l-8 -7l-106 41l-105 -41z" />
    <glyph glyph-name="caron" unicode="&#x2c7;" horiz-adv-x="287" 
d="M30 723.037l111 -116.992h5l111 116.992l-8 7l-106 -40.998l-105 40.998z" />
    <glyph glyph-name="breve" unicode="&#x2d8;" horiz-adv-x="287" 
d="M50 751q0 -34 23 -48t70 -14q48 0 71 14t23 48h15q0 -35 -3.5 -61.5t-14.5 -44.5t-33 -27t-60 -9q-37 0 -58.5 9t-32 27t-13 44.5t-2.5 61.5h15z" />
    <glyph glyph-name="ring" unicode="&#x2da;" horiz-adv-x="230" 
d="M115 600q-38 0 -61.5 21.5t-23.5 59.5t25.5 61t63.5 23t59.5 -23t21.5 -61t-23.5 -59.5t-61.5 -21.5zM115 625q26 0 43 15.5t17 41.5t-17 42t-43 16t-43 -16t-17 -42t17 -41.5t43 -15.5z" />
    <glyph glyph-name="tilde" unicode="&#x2dc;" horiz-adv-x="300" 
d="M19 623q2 11 7 25.5t14 28t22.5 22.5t34.5 9t33.5 -14t22 -30.5t19.5 -30.5t26 -14t26 10.5t16 24t8.5 25t2.5 12.5l18 -4q-2 -12 -6 -26.5t-12 -27.5t-21 -22t-32 -9q-22 0 -34.5 14t-22 30.5t-18.5 30.5t-26 14q-18 0 -29 -11t-17.5 -25t-9.5 -25.5t-3 -13.5z" />
    <glyph glyph-name="uni03BC" unicode="&#x3bc;" horiz-adv-x="611" 
d="M37 -173q3 37 5 83.5t3 94.5t1 95v87v81q0 53 -1.5 108.5t-9.5 103.5l203 20q-4 -25 -6.5 -57t-3.5 -65t-1 -66v-62v-63q0 -28 5 -46t13 -28t20 -13.5t25 -3.5q51 0 74 42t23 116q0 57 -1.5 116t-9.5 110l200 20q-4 -25 -6.5 -57t-3.5 -65t-1 -66v-62v-61t1 -66.5
t3.5 -65t6.5 -57.5h-179l-10 135h-5q-4 -30 -13 -56t-24 -46t-36 -31.5t-48 -11.5q-18 0 -33 6q2 -46 3.5 -89.5t5.5 -79.5h-200z" />
    <glyph glyph-name="endash" unicode="&#x2013;" horiz-adv-x="530" 
d="M40 350h450v-30h-450v30z" />
    <glyph glyph-name="emdash" unicode="&#x2014;" horiz-adv-x="930" 
d="M40 352h850v-30h-850v30z" />
    <glyph glyph-name="quoteleft" unicode="&#x2018;" horiz-adv-x="280" 
d="M15.0166 484.006q0 83.9951 46.4971 138.491q46.4971 54.4971 130.492 87.4951l18.998 -28.998q-28.998 -25.999 -43.9971 -48.4971q-14.999 -22.499 -22.999 -40.498q53.9971 -1.99902 87.4951 -31.998q33.498 -29.998 33.498 -75.9951q0 -23.998 -9.49902 -44.4971
q-9.5 -20.499 -26.499 -34.998t-39.9971 -22.499q-22.999 -7.99902 -49.9971 -7.99902q-55.9971 0 -89.9951 30.498q-33.9971 30.498 -33.9971 79.4951z" />
    <glyph glyph-name="quoteright" unicode="&#x2019;" horiz-adv-x="280" 
d="M265 600q0 -84 -46.5 -138.5t-130.5 -87.5l-19 29q29 26 44 48.5t23 40.5q-54 2 -87.5 32t-33.5 76q0 24 9.5 44.5t26.5 35t40 22.5t50 8q56 0 90 -30.5t34 -79.5z" />
    <glyph glyph-name="quotesinglbase" unicode="&#x201a;" horiz-adv-x="280" 
d="M265 98q0 -84 -46.5 -138.5t-130.5 -87.5l-19 29q29 26 44 48.5t23 40.5q-54 2 -87.5 32t-33.5 76q0 24 9.5 44.5t26.5 35t40 22.5t50 8q56 0 90 -30.5t34 -79.5z" />
    <glyph glyph-name="quotedblleft" unicode="&#x201c;" horiz-adv-x="555" 
d="M14.0166 484.006q0 83.9951 46.4971 138.491q46.4971 54.4971 130.492 87.4951l18.998 -28.998q-28.998 -25.999 -43.9971 -48.4971q-14.999 -22.499 -22.999 -40.498q53.9971 -1.99902 87.4951 -31.998q33.498 -29.998 33.498 -75.9951q0 -23.998 -9.49902 -44.4971
q-9.5 -20.499 -26.499 -34.998t-39.9971 -22.499q-22.999 -7.99902 -49.9971 -7.99902q-55.9971 0 -89.9951 30.498q-33.9971 30.498 -33.9971 79.4951zM289.017 484.006q0 83.9951 46.4971 138.491q46.4971 54.4971 130.492 87.4951l18.998 -28.998
q-28.998 -25.999 -43.9971 -48.4971q-14.999 -22.499 -22.999 -40.498q53.9971 -1.99902 87.4951 -31.998q33.498 -29.998 33.498 -75.9951q0 -23.998 -9.49902 -44.4971q-9.5 -20.499 -26.499 -34.998t-39.9971 -22.499q-22.999 -7.99902 -49.9971 -7.99902
q-55.9971 0 -89.9951 30.498q-33.9971 30.498 -33.9971 79.4951z" />
    <glyph glyph-name="quotedblright" unicode="&#x201d;" horiz-adv-x="555" 
d="M540 600q0 -84 -46.5 -138.5t-130.5 -87.5l-19 29q29 26 44 48.5t23 40.5q-54 2 -87.5 32t-33.5 76q0 24 9.5 44.5t26.5 35t40 22.5t50 8q56 0 90 -30.5t34 -79.5zM265 600q0 -84 -46.5 -138.5t-130.5 -87.5l-19 29q29 26 44 48.5t23 40.5q-54 2 -87.5 32t-33.5 76
q0 24 9.5 44.5t26.5 35t40 22.5t50 8q56 0 90 -30.5t34 -79.5z" />
    <glyph glyph-name="quotedblbase" unicode="&#x201e;" horiz-adv-x="555" 
d="M540 98q0 -84 -46.5 -138.5t-130.5 -87.5l-19 29q29 26 44 48.5t23 40.5q-54 2 -87.5 32t-33.5 76q0 24 9.5 44.5t26.5 35t40 22.5t50 8q56 0 90 -30.5t34 -79.5zM265 98q0 -84 -46.5 -138.5t-130.5 -87.5l-19 29q29 26 44 48.5t23 40.5q-54 2 -87.5 32t-33.5 76
q0 24 9.5 44.5t26.5 35t40 22.5t50 8q56 0 90 -30.5t34 -79.5z" />
    <glyph glyph-name="dagger" unicode="&#x2020;" horiz-adv-x="518" 
d="M15 565q34 -16 65.5 -32.5t61 -29.5t56 -22t50.5 -11q-1 24 -9.5 51.5t-22 57.5t-30 63l-33.5 67h210q-42 -73 -67.5 -131.5t-25.5 -107.5q24 2 51 11t56 22t60.5 29.5t65.5 32.5v-210q-71 42 -128 67t-105 28q3 -61 22 -126.5t41 -127t40 -115t18 -91.5h-264
q0 40 18 94.5t40 116t41 126t22 123.5q-48 -3 -105 -28t-128 -67v210z" />
    <glyph glyph-name="daggerdbl" unicode="&#x2021;" horiz-adv-x="518" 
d="M15 555q68 -33 126.5 -57.5t106.5 -27.5q-2 49 -31 109.5t-64 129.5h210q-42 -73 -67.5 -131.5t-25.5 -107.5q48 3 106.5 27.5t126.5 57.5v-190q-72 42 -128.5 62.5t-104.5 22.5v-201q48 2 104.5 22.5t128.5 62.5v-190q-68 33 -126.5 57.5t-106.5 27.5q0 -49 25.5 -107.5
t67.5 -131.5h-210q35 69 64 129.5t31 109.5q-48 -3 -106.5 -27.5t-126.5 -57.5v190q72 -42 128.5 -62.5t104.5 -22.5v201q-48 -2 -104.5 -22.5t-128.5 -62.5v190z" />
    <glyph glyph-name="bullet" unicode="&#x2022;" horiz-adv-x="346" 
d="M179 213q-36 0 -66 10t-52 28t-34 43.5t-12 55.5q0 31 12 56.5t33.5 44t50.5 28.5t63 10q71 0 114 -38.5t43 -100.5q0 -30 -11.5 -55.5t-31.5 -43.5t-48 -28t-61 -10z" />
    <glyph glyph-name="ellipsis" unicode="&#x2026;" horiz-adv-x="840" 
d="M145 -10q-57 0 -93.5 30t-36.5 78q0 24 9.5 44.5t26.5 35t40 22.5t50 8q56 0 90 -30.5t34 -79.5q0 -48 -34 -78t-86 -30zM425 -10q-57 0 -93.5 30t-36.5 78q0 24 9.5 44.5t26.5 35t40 22.5t50 8q56 0 90 -30.5t34 -79.5q0 -48 -34 -78t-86 -30zM705 -10q-57 0 -93.5 30
t-36.5 78q0 24 9.5 44.5t26.5 35t40 22.5t50 8q56 0 90 -30.5t34 -79.5q0 -48 -34 -78t-86 -30z" />
    <glyph glyph-name="perthousand" unicode="&#x2030;" horiz-adv-x="967" 
d="M169 385q-47 0 -75.5 15.5t-43.5 39t-20 52.5t-5 56q0 28 5 57t20 52.5t43.5 38.5t75.5 15q46 0 74 -15t43 -38.5t20 -52.5t5 -57t-5 -57t-20 -52.5t-43 -38.5t-74 -15zM168 395q9 0 12.5 41t3.5 115q0 150 -16 150t-16 -150q0 -75 3.5 -115.5t12.5 -40.5zM97 0l434 700
h30l-434 -700h-30zM800 -10q-47 0 -75.5 15.5t-43.5 39t-20 52.5t-5 56q0 28 5 57t20 52.5t43.5 38.5t75.5 15q46 0 74 -15t43 -38.5t20 -52.5t5 -57t-5 -57t-20 -52.5t-43 -38.5t-74 -15zM492 -10q-47 0 -75.5 15.5t-43.5 39t-20 52.5t-5 56q0 28 5 57t20 52.5t43.5 38.5
t75.5 15q46 0 74 -15t43 -38.5t20 -52.5t5 -57t-5 -57t-20 -52.5t-43 -38.5t-74 -15zM799 0q9 0 12.5 41t3.5 115q0 150 -16 150t-16 -150q0 -75 3.5 -115.5t12.5 -40.5zM491 0q9 0 12.5 41t3.5 115q0 150 -16 150t-16 -150q0 -75 3.5 -115.5t12.5 -40.5z" />
    <glyph glyph-name="guilsinglleft" unicode="&#x2039;" horiz-adv-x="290" 
d="M25 379l220 183h20l-73 -183l73 -183h-20z" />
    <glyph glyph-name="guilsinglright" unicode="&#x203a;" horiz-adv-x="290" 
d="M25 196l73 183l-73 183h20l220 -183l-220 -183h-20z" />
    <glyph glyph-name="fraction" unicode="&#x2044;" horiz-adv-x="426" 
d="M381 700h30l-366 -700h-30z" />
    <glyph glyph-name="Euro" unicode="&#x20ac;" horiz-adv-x="446" 
d="M-42 408h85q2 15 5.5 29t8.5 28h-88l10 20h87q22 45 64 71t113 26q94 0 141 -35t47 -109q0 -31 -3 -55t-12.5 -41t-28 -26t-49.5 -9q-29 0 -50 5.5t-32 17.5q6 6 11 13.5t9 19.5t6 30t2 45q0 60 -10 93.5t-32 33.5q-5 0 -11.5 -3.5t-12.5 -12.5t-11 -24.5t-8 -39.5h48
l-13 -20h-36q0 -6 -0.5 -12.5t-0.5 -14.5v-15t1 -15h51l-13 -20h-36q8 -52 37 -81t97 -29q45 0 67 10.5t26 12.5q14 -113 -31 -175.5t-151 -62.5q-45 0 -83.5 17t-66.5 49.5t-43.5 80.5t-15.5 110q0 18 1 34.5t3 33.5h-92z" />
    <glyph glyph-name="trademark" unicode="&#x2122;" horiz-adv-x="392" 
d="M15.2559 621.299q2.26953 40.5684 0 80.8525q20.1416 -0.28418 36.7373 -0.425781q16.5967 -0.141602 32.4834 -0.141602t32.4824 0.141602t36.7383 0.425781q-2.26953 -40.2842 0 -80.8525q-7.09277 1.13477 -15.8867 1.84473q-8.79492 0.708984 -18.0146 0.993164
q-9.21973 0.283203 -18.2979 0.283203h-17.0215h-15.6035t-16.7383 -0.283203v-0.851562q0 -3.4043 3.83008 -5.67383t10.0713 -3.5459t14.3262 -1.84473q8.08496 -0.566406 16.5967 -0.566406q8.50977 0 16.7373 0.424805q8.22754 0.425781 15.3193 0.993164
t12.3408 0.993164q5.24805 0.424805 7.51758 0.708984q-0.567383 -17.8721 -0.850586 -30.4971q-0.28418 -12.624 -0.28418 -24.3975q0 -11.7725 0.28418 -24.3975q0.283203 -12.624 0.850586 -30.4961q-9.07812 -1.41895 -19.291 -2.55371
q-8.51074 -0.850586 -19.4326 -1.56055q-10.9219 -0.708984 -21.9863 -0.708984q-17.5889 0 -31.0645 3.4043q-13.4746 3.4043 -22.6953 11.0635q-9.21973 7.66016 -13.9004 19.8594q-4.68164 12.1982 -4.68164 29.7871q0 11.915 2.69531 21.4189
q2.69531 9.50293 6.52539 16.7373t8.08496 12.3408t7.09277 8.79395q-6.80859 -0.566406 -13.0508 -0.992188q-6.24023 -0.425781 -11.9141 -1.27734zM162.256 503q1.13477 10.2129 2.26953 22.8369t1.98535 25.8164q0.850586 13.1914 1.27637 26.2412t0.425781 24.3975
v24.3975t-0.283203 26.2412q-0.28418 13.1924 -0.993164 25.8164q-0.709961 12.624 -1.84473 22.8369h87.377q0 -12.1992 3.4043 -26.2412q3.4043 -14.043 8.08594 -28.0859q4.68066 -14.042 9.36133 -27.376q4.68164 -13.334 7.23438 -24.6816h3.4043
q2.55273 15.0361 4.96484 32.1992q2.41113 17.1641 4.53906 32.4824q2.12695 15.3203 3.6875 26.668t2.41211 15.0352h77.1641q-1.13477 -10.2129 -1.84473 -22.8369q-0.708984 -12.624 -0.993164 -25.8164q-0.283203 -13.1914 -0.283203 -26.2412v-24.3975v-24.3975
t0.283203 -26.2412q0.28418 -13.1924 0.993164 -25.8164q0.709961 -12.624 1.84473 -22.8369h-77.1641q1.13477 10.2129 1.84375 22.8369t0.992188 25.8164q0.28418 13.1914 0.28418 26.2412v24.3975v28.9365t-0.567383 30.6387h-1.70215
q-0.567383 -4.82227 -2.41113 -18.8652t-3.97168 -34.8945t-3.68848 -47.6602t-1.56055 -57.4473h-68.3691q-5.67383 19.5742 -11.7734 38.1562t-12.0566 37.5898q-5.95703 19.0068 -11.3477 39.4326t-10.2129 43.6885h-1.41797q0 -23.2627 4.11328 -47.377
q4.11328 -24.1133 9.78711 -45.8154t12.0566 -39.0078t10.6387 -26.667h-47.9434z" />
    <glyph glyph-name="arrowleft" unicode="&#x2190;" horiz-adv-x="750" 
d="M735 349q0 -21 -7.5 -41.5t-22.5 -36.5t-37 -25.5t-51 -9.5q-49 0 -83 16.5t-69 36.5t-78.5 37t-109.5 17l68 -216l-22 -2q-63 64 -143 117.5t-165 107.5q85 54 163.5 106t144.5 119l22 -2l-68 -216q45 0 78 8t60 19.5t50 25t46 25.5t48 19.5t58 7.5q29 0 51 -10t37 -26
t22.5 -36t7.5 -41z" />
    <glyph glyph-name="arrowup" unicode="&#x2191;" horiz-adv-x="480" 
d="M239 -10q-21 0 -41.5 8t-36.5 23t-25.5 37t-9.5 50q0 49 16.5 83t36.5 69t37 78.5t17 109.5l-216 -68l-2 22q64 63 117.5 143t107.5 165q54 -85 106 -163.5t119 -144.5l-2 -22l-216 68q0 -44 8 -77.5t19.5 -60.5t25 -50t25.5 -46t19.5 -48.5t7.5 -57.5q0 -28 -10 -50
t-26 -37t-36 -23t-41 -8z" />
    <glyph glyph-name="arrowright" unicode="&#x2192;" horiz-adv-x="750" 
d="M15 349q0 21 8 41t23 36t37 26t50 10q33 0 58 -7.5t48 -19.5t46 -25.5t50 -25t60 -19.5t78 -8l-68 216l22 2q66 -67 144.5 -119t163.5 -106q-85 -54 -165 -107.5t-143 -117.5l-22 2l68 216q-66 0 -109.5 -17t-78.5 -37t-69 -36.5t-83 -16.5q-28 0 -50 9.5t-37 25.5
t-23 36.5t-8 41.5z" />
    <glyph glyph-name="arrowdown" unicode="&#x2193;" horiz-adv-x="480" 
d="M239 710q21 0 41 -7.5t36 -22.5t26 -37t10 -51q0 -32 -7.5 -57.5t-19.5 -48.5t-25.5 -46t-25 -50t-19.5 -60.5t-8 -77.5l216 68l2 -22q-67 -66 -119 -144.5t-106 -163.5q-54 85 -107.5 165t-117.5 143l2 22l216 -68q0 66 -17 109.5t-37 78.5t-36.5 69t-16.5 83
q0 29 9.5 51t25.5 37t36.5 22.5t41.5 7.5z" />
    <glyph glyph-name="arrowboth" unicode="&#x2194;" horiz-adv-x="1074" 
d="M537 240q-32 0 -57.5 7.5t-46 19.5t-38.5 25.5t-36 25t-38 19.5t-44 8l68 -216l-22 -2q-66 67 -144.5 119t-163.5 106q85 54 165 107.5t143 117.5l22 -2l-68 -216q36 0 63 17t54.5 37t60.5 36.5t82 16.5t82 -16.5t60.5 -36.5t54.5 -37t63 -17l-68 216l22 2
q63 -64 143 -117.5t165 -107.5q-85 -54 -163.5 -106t-144.5 -119l-22 2l68 216q-24 0 -44 -8t-38 -19.5t-36 -25t-38.5 -25.5t-46 -19.5t-57.5 -7.5z" />
    <glyph glyph-name="arrowupdn" unicode="&#x2195;" horiz-adv-x="500" 
d="M352 352q0 -32 -7.5 -57.5t-19.5 -46t-25.5 -38.5t-25 -36t-19.5 -38t-8 -44l216 68l2 -22q-67 -66 -119 -144.5t-106 -163.5q-54 85 -107.5 165t-117.5 143l2 22l216 -68q0 36 -17 63t-37 54.5t-36.5 60.5t-16.5 82t16.5 82t36.5 60.5t37 54.5t17 63l-216 -68l-2 22
q64 63 117.5 143t107.5 165q54 -85 106 -163.5t119 -144.5l-2 -22l-216 68q0 -24 8 -44t19.5 -38t25 -36t25.5 -38.5t19.5 -46t7.5 -57.5z" />
    <glyph glyph-name="uni2196" unicode="&#x2196;" 
d="M524 95q-16 -16 -36 -25t-43 -9q-22 0 -43 8.5t-41 28.5q-35 35 -47.5 71t-23 74.5t-29 81t-65.5 89.5l-105 -200l-17 14q1 44 -4 90t-13.5 93.5t-19.5 96t-22 97.5q98 -22 191 -41t186 -18l14 -17l-200 -105q48 -47 90 -66t80 -29.5t74 -23t70 -47.5q20 -20 29 -42.5
t8 -44.5t-9.5 -41.5t-23.5 -34.5z" />
    <glyph glyph-name="uni2197" unicode="&#x2197;" 
d="M48 95q-15 15 -23.5 34.5t-9.5 41.5t8 44.5t29 42.5q23 23 46.5 35.5t47.5 20.5t49.5 14.5t53 17t56.5 29t61 49.5l-200 105l14 17q93 -1 186 18t191 41q-22 -98 -41 -193t-18 -184l-17 -14l-105 200q-47 -47 -65.5 -89.5t-29 -81t-23 -74.5t-47.5 -71q-20 -20 -41 -28.5
t-43 -8.5q-23 0 -43 9t-36 25z" />
    <glyph glyph-name="uni2198" unicode="&#x2198;" 
d="M48 571q16 16 36 25t43 9q22 0 43 -8.5t41 -28.5q35 -35 47.5 -71t23 -74.5t29 -81t65.5 -89.5l105 200l17 -14q-1 -88 18 -183.5t41 -193.5q-49 11 -96.5 22t-94.5 19.5t-93 13.5t-93 4l-14 17l200 105q-32 32 -61 50t-56.5 28.5t-53 17t-49.5 14.5t-47.5 20.5
t-46.5 35.5q-20 20 -29 42.5t-8 44.5t9.5 41.5t23.5 34.5z" />
    <glyph glyph-name="uni2199" unicode="&#x2199;" 
d="M524 571q15 -15 23.5 -34.5t9.5 -41.5t-8 -44.5t-29 -42.5q-34 -35 -70 -47.5t-74 -23t-80 -29.5t-90 -66l200 -105l-14 -17q-46 1 -92.5 -4t-93.5 -13.5t-94.5 -19.5t-96.5 -22q11 49 22 97.5t19.5 96t13.5 93.5t4 90l17 14l105 -200q47 47 65.5 89.5t29 81t23 74.5
t47.5 71q20 20 41 28.5t43 8.5q23 0 43 -9t36 -25z" />
    <glyph glyph-name="minus" unicode="&#x2212;" horiz-adv-x="480" 
d="M40 290h400v-30h-400v30z" />
    <glyph glyph-name="uni25B3" unicode="&#x25b3;" horiz-adv-x="976" 
d="M5 1q21 49 50 108t64 122.5t76 129.5t86 128.5t92.5 119t96.5 101.5q49 -45 98.5 -101.5t98 -119t93.5 -128.5t84.5 -129.5t72 -122.5t54.5 -108h-966z" />
    <glyph glyph-name="circle" unicode="&#x25cb;" horiz-adv-x="863" 
d="M15 349q0 83 30 151t84.5 116.5t131.5 75t171 26.5t170.5 -26.5t131 -75t84.5 -116.5t30 -151t-30 -151t-84.5 -116.5t-131 -75t-170.5 -26.5t-171 26.5t-131.5 75t-84.5 116.5t-30 151z" />
    <glyph glyph-name="uni2606" unicode="&#x2606;" horiz-adv-x="566" 
d="M30 359q66 41 108 81.5t69 83.5t43.5 89t31.5 98h2q15 -52 31.5 -98t43.5 -89t69 -83.5t108 -81.5v-2q-66 -43 -108 -86.5t-69 -88.5t-43.5 -94t-31.5 -103h-2q-15 54 -31.5 103t-43.5 94t-69 88.5t-108 86.5v2z" />
    <glyph glyph-name="smileface" unicode="&#x263a;" horiz-adv-x="780" 
d="M30 349q0 83 26 150t73 114t113.5 72t147.5 25t147.5 -25t113.5 -72t73 -114t26 -150t-26.5 -150t-74.5 -114t-115 -72t-148 -25t-146.5 25t-112 72t-72 114t-25.5 150zM77 349q0 -72 22 -130.5t62 -99t97.5 -62.5t127.5 -22q71 0 129 22t100 62.5t65 99t23 130.5
t-22.5 130.5t-63.5 99t-98.5 62.5t-128.5 22q-70 0 -128 -22t-99 -62.5t-63.5 -99t-22.5 -130.5zM423 462q0 41 12.5 65.5t33.5 24.5t33 -24.5t12 -65.5t-12 -65.5t-33 -24.5t-33.5 24.5t-12.5 65.5zM263 462q0 41 12 65.5t33 24.5t33.5 -24.5t12.5 -65.5t-12.5 -65.5
t-33.5 -24.5t-33 24.5t-12 65.5zM595 350h50q0 -59 -19 -106.5t-53 -81t-81.5 -51.5t-104.5 -18t-103.5 18t-79.5 51.5t-51 81t-18 106.5h50q0 -33 9 -69.5t32 -67t62 -50.5t99 -20q61 0 101 20t64 50.5t33.5 67t9.5 69.5z" />
    <glyph glyph-name="spade" unicode="&#x2660;" horiz-adv-x="610" 
d="M304 710q41 -55 89 -100.5t89.5 -89.5t69.5 -91t28 -107q0 -37 -10.5 -64.5t-28 -44.5t-40.5 -25.5t-47 -8.5q-31 0 -60.5 12.5t-51.5 35.5q35 -76 75 -131.5t74 -88.5v-7h-373v7q33 32 74 88.5t76 133.5q-22 -24 -52 -37t-61 -13q-24 0 -46.5 8.5t-40 25.5t-28 44.5
t-10.5 64.5q0 60 28 107t69.5 91t89 89.5t87.5 100.5z" />
    <glyph glyph-name="club" unicode="&#x2663;" horiz-adv-x="726" 
d="M270 463q-44 41 -57 84.5t0.5 79.5t52 59.5t96.5 23.5q59 0 97 -23.5t51 -60t0 -80t-57 -84.5l2 -1q30 29 61 42t60 13q66 0 95.5 -39.5t29.5 -112.5q0 -39 -13 -70.5t-36.5 -54t-56 -35t-70.5 -12.5q-46 0 -81 16.5t-58 47.5q36 -87 80.5 -150t81.5 -99v-7h-373v7
q35 34 79 95.5t79 145.5q-23 -26 -56 -41t-75 -15q-39 0 -71.5 12.5t-56 35t-37 54t-13.5 70.5q0 72 29.5 111.5t95.5 39.5q29 0 59.5 -13t60.5 -41z" />
    <glyph glyph-name="heart" unicode="&#x2665;" horiz-adv-x="670" 
d="M334 -10q-19 45 -49 86.5t-63.5 82t-68 79.5t-62 77.5t-44.5 77t-17 78.5q0 50 16 88t41.5 63.5t57.5 38t63 12.5q44 0 80.5 -25.5t45.5 -77.5q9 52 45.5 77.5t81.5 25.5q32 0 63.5 -12.5t57.5 -38t42 -63.5t16 -88q0 -40 -17 -78.5t-44.5 -77t-62 -77.5t-68.5 -79.5
t-64 -82.5t-50 -86z" />
    <glyph glyph-name="diamond" unicode="&#x2666;" horiz-adv-x="566" 
d="M30 358q41 52 73 94t61 82.5t57 82.5t62 94q34 -52 62 -94t57 -82.5t61 -82.5t73 -94q-41 -54 -73 -99t-61 -87.5t-57 -87.5t-62 -99q-34 54 -62 99t-57 87.5t-61 87.5t-73 99z" />
    <glyph glyph-name="f_f_i" unicode="&#xfb03;" horiz-adv-x="866" 
d="M331 500v10q0 71 25 111.5t63.5 60t83.5 24t85 4.5q41 0 87 -1.5t85.5 -11.5t65.5 -31.5t26 -60.5q0 -25 -13.5 -42.5t-35 -28t-49 -15t-55.5 -4.5q-44 0 -81.5 9t-50.5 22q8 12 12 37.5t3.5 51.5t-5 45.5t-13.5 19.5q-4 0 -9 -4t-8.5 -14.5t-6 -30t-2.5 -51.5
q0 -50 12.5 -75t28.5 -25h276q-4 -26 -6.5 -57.5t-3.5 -65t-1 -66v-61.5v-61t1 -66.5t3.5 -65t6.5 -57.5h-252q4 24 6.5 54.5t3.5 62t1 63v58.5v55t-1 63.5t-2.5 64.5t-4.5 59h-44l-1 -112v-90t1 -97t3.5 -96t6.5 -85h-252q4 39 6.5 87.5t3.5 99t1 100.5v93v100h-61v-112
v-90t1 -97t3.5 -96t6.5 -85h-252q4 39 6.5 87.5t3.5 99t1 100.5v93v100h-40v20h40v10q0 64 9.5 105t29 64t49 32t69.5 9q31 0 56 -4.5t42.5 -16t27 -32t9.5 -52.5q0 -27 -6.5 -45t-17.5 -29.5t-25 -16.5t-29 -5q-20 0 -38.5 7.5t-30.5 19.5q8 12 12 37.5t3 51.5t-6 45.5
t-14 19.5t-15.5 -18t-6.5 -60q0 -37 7 -60.5t21 -37t35 -19t49 -5.5h61z" />
    <glyph glyph-name="u1F610" unicode="&#x1f610;" horiz-adv-x="780" 
d="M30 349q0 83 26 150t73 114t113.5 72t147.5 25t147.5 -25t113.5 -72t73 -114t26 -150t-26.5 -150t-74.5 -114t-115 -72t-148 -25t-146.5 25t-112 72t-72 114t-25.5 150zM77 349q0 -72 22 -130.5t62 -99t97.5 -62.5t127.5 -22q71 0 129 22t100 62.5t65 99t23 130.5
t-22.5 130.5t-63.5 99t-98.5 62.5t-128.5 22q-70 0 -128 -22t-99 -62.5t-63.5 -99t-22.5 -130.5zM423 462q0 41 12.5 65.5t33.5 24.5t33 -24.5t12 -65.5t-12 -65.5t-33 -24.5t-33.5 24.5t-12.5 65.5zM263 462q0 41 12 65.5t33 24.5t33.5 -24.5t12.5 -65.5t-12.5 -65.5
t-33.5 -24.5t-33 24.5t-12 65.5zM595 255v-50h-410v50h410z" />
    <glyph glyph-name="u1F611" unicode="&#x1f611;" horiz-adv-x="780" 
d="M30 349q0 83 26 150t73 114t113.5 72t147.5 25t147.5 -25t113.5 -72t73 -114t26 -150t-26.5 -150t-74.5 -114t-115 -72t-148 -25t-146.5 25t-112 72t-72 114t-25.5 150zM77 349q0 -72 22 -130.5t62 -99t97.5 -62.5t127.5 -22q71 0 129 22t100 62.5t65 99t23 130.5
t-22.5 130.5t-63.5 99t-98.5 62.5t-128.5 22q-70 0 -128 -22t-99 -62.5t-63.5 -99t-22.5 -130.5zM568 480v-50h-140v50h140zM345 480v-50h-140v50h140zM595 255v-50h-410v50h410z" />
    <glyph glyph-name="u1F635" unicode="&#x1f635;" horiz-adv-x="780" 
d="M30 349q0 83 26 150t73 114t113.5 72t147.5 25t147.5 -25t113.5 -72t73 -114t26 -150t-26.5 -150t-74.5 -114t-115 -72t-148 -25t-146.5 25t-112 72t-72 114t-25.5 150zM77 349q0 -72 22 -130.5t62 -99t97.5 -62.5t127.5 -22q71 0 129 22t100 62.5t65 99t23 130.5
t-22.5 130.5t-63.5 99t-98.5 62.5t-128.5 22q-70 0 -128 -22t-99 -62.5t-63.5 -99t-22.5 -130.5zM616 392q0 42 -22.5 73t-72.5 31q-29 0 -49.5 -17t-20.5 -48q0 -25 16 -45.5t48 -20.5q22 0 32.5 13t10.5 27t-8.5 23.5t-22.5 9.5q-7 0 -13.5 -2t-6.5 -10q0 -5 6 -9t23 -4
l-9 -31q-18 0 -34.5 12t-16.5 32q0 22 15.5 32t35.5 10q27 0 44.5 -17.5t17.5 -45.5q0 -31 -22 -50.5t-52 -19.5q-42 0 -68.5 28t-26.5 68q0 45 29 69.5t72 24.5q31 0 54.5 -11t39.5 -29.5t24 -43.5t8 -52h-31v3zM131 389q0 27 8 52t24 43.5t39.5 29.5t54.5 11
q43 0 72 -24.5t29 -69.5q0 -40 -26.5 -68t-68.5 -28q-30 0 -52 19.5t-22 50.5q0 28 17.5 45.5t44.5 17.5q20 0 35.5 -10t15.5 -32q0 -20 -16.5 -32t-34.5 -12l-9 31q17 0 23 4t6 9q0 8 -6.5 10t-13.5 2q-14 0 -22.5 -9.5t-8.5 -23.5t10.5 -27t32.5 -13q32 0 48 20.5t16 45.5
q0 31 -20.5 48t-49.5 17q-49 0 -72 -31.5t-23 -75.5h-31zM314 208q0 41 19 65.5t53 24.5t53.5 -24.5t19.5 -65.5t-19.5 -65.5t-53.5 -24.5t-53 24.5t-19 65.5z" />
    <glyph glyph-name="u1F641" unicode="&#x1f641;" horiz-adv-x="780" 
d="M30 349q0 83 26 150t73 114t113.5 72t147.5 25t147.5 -25t113.5 -72t73 -114t26 -150t-26.5 -150t-74.5 -114t-115 -72t-148 -25t-146.5 25t-112 72t-72 114t-25.5 150zM77 349q0 -72 22 -130.5t62 -99t97.5 -62.5t127.5 -22q71 0 129 22t100 62.5t65 99t23 130.5
t-22.5 130.5t-63.5 99t-98.5 62.5t-128.5 22q-70 0 -128 -22t-99 -62.5t-63.5 -99t-22.5 -130.5zM423 462q0 41 12.5 65.5t33.5 24.5t33 -24.5t12 -65.5t-12 -65.5t-33 -24.5t-33.5 24.5t-12.5 65.5zM263 462q0 41 12 65.5t33 24.5t33.5 -24.5t12.5 -65.5t-12.5 -65.5
t-33.5 -24.5t-33 24.5t-12 65.5zM576 151h-41q0 21 -6.5 41t-23 36t-45 25.5t-72.5 9.5q-43 0 -71 -9.5t-44 -25.5t-22 -36t-6 -41h-41q0 44 13.5 74.5t37.5 50t58 28.5t75 9t75.5 -9t59.5 -28.5t39 -50t14 -74.5z" />
    <glyph glyph-name="u1F642" unicode="&#x1f642;" horiz-adv-x="780" 
d="M30 349q0 83 26 150t73 114t113.5 72t147.5 25t147.5 -25t113.5 -72t73 -114t26 -150t-26.5 -150t-74.5 -114t-115 -72t-148 -25t-146.5 25t-112 72t-72 114t-25.5 150zM77 349q0 -72 22 -130.5t62 -99t97.5 -62.5t127.5 -22q71 0 129 22t100 62.5t65 99t23 130.5
t-22.5 130.5t-63.5 99t-98.5 62.5t-128.5 22q-70 0 -128 -22t-99 -62.5t-63.5 -99t-22.5 -130.5zM423 462q0 41 12.5 65.5t33.5 24.5t33 -24.5t12 -65.5t-12 -65.5t-33 -24.5t-33.5 24.5t-12.5 65.5zM263 462q0 41 12 65.5t33 24.5t33.5 -24.5t12.5 -65.5t-12.5 -65.5
t-33.5 -24.5t-33 24.5t-12 65.5zM526 313h50q0 -43 -14 -74t-39 -50.5t-59.5 -28.5t-75.5 -9t-75 9t-58 28.5t-37.5 50.5t-13.5 74h50q0 -21 4.5 -41t19 -36t41 -25.5t69.5 -9.5q44 0 71 9.5t42 25.5t20 36t5 41z" />
    <glyph glyph-name="u1F643" unicode="&#x1f643;" horiz-adv-x="780" 
d="M30 349q0 83 25.5 150t72 114t112 72t146.5 25t148 -25t115 -72t74.5 -114t26.5 -150t-26 -150t-73 -114t-113.5 -72t-147.5 -25t-147.5 25t-113.5 72t-73 114t-26 150zM77 349q0 -72 22.5 -130.5t63.5 -99t99 -62.5t128 -22q71 0 128.5 22t98.5 62.5t63.5 99t22.5 130.5
t-23 130.5t-65 99t-100 62.5t-129 22q-70 0 -127.5 -22t-97.5 -62.5t-62 -99t-22 -130.5zM576 385h-50q0 21 -5 41t-20 36t-42 25.5t-71 9.5q-43 0 -69.5 -9.5t-41 -25.5t-19 -36t-4.5 -41h-50q0 44 13.5 74.5t37.5 50t58 28.5t75 9t75.5 -9t59.5 -28.5t39 -50t14 -74.5z
M423 236q0 41 12.5 65.5t33.5 24.5t33 -24.5t12 -65.5t-12 -65.5t-33 -24.5t-33.5 24.5t-12.5 65.5zM263 236q0 41 12 65.5t33 24.5t33.5 -24.5t12.5 -65.5t-12.5 -65.5t-33.5 -24.5t-33 24.5t-12 65.5z" />
    <glyph glyph-name="t.ss01" horiz-adv-x="335" 
d="M11 500q17 0 28.5 7.5t19 19t11 26t3.5 29.5q0 26 -15 39.5t-35 13.5q0 17 12 30.5t31.5 22.5t44.5 14t52 5q29 0 57 -6t50.5 -18t36 -31.5t13.5 -46.5q0 -76 -80 -102v-3h80v-20h-35q-6 -32 -7.5 -72.5t-1.5 -103.5v-74.5t1 -81t3.5 -79t6.5 -69.5h-252q7 55 10 115.5
t4 122.5t0.5 123.5t-0.5 118.5h-49v20h11z" />
    <glyph glyph-name="s.ss01" horiz-adv-x="466" 
d="M392 55q0 8 -27 20t-67.5 29.5t-87.5 40.5t-87.5 53.5t-67.5 68.5t-27 85q0 72 36.5 110t87.5 38q18 0 40 -0.5t46.5 -1.5t50 -1.5t49.5 -0.5q25 0 46.5 1t38.5 3q-1 -32 -2 -58t-0.5 -50t1.5 -48.5t2 -54.5q-36 36 -78 70.5t-80.5 61.5t-69 43.5t-44.5 16.5q-6 0 -6 -7
q0 -15 22.5 -31.5t56.5 -37t73.5 -44.5t73.5 -53.5t56.5 -65.5t22.5 -79q0 -92 -53.5 -132.5t-150.5 -40.5q-78 0 -126.5 15t-75 38t-36 50.5t-9.5 53.5q0 18 4 35.5t10 30.5t13.5 21t14.5 8q8 -21 31 -43.5t55 -44t69.5 -41t72 -34.5t63.5 -23.5t44 -8.5t15 8z" />
    <glyph glyph-name="ampersand.ss01" horiz-adv-x="846" 
d="M653 -81q-66 0 -119.5 41t-99.5 107q-12 -15 -27.5 -29t-36.5 -24.5t-47.5 -17t-60.5 -6.5q-61 0 -107 23.5t-77 63.5t-47 93t-16 112q0 49 15.5 90t41 71t59.5 47.5t71 19.5q-23 38 -45.5 67t-46.5 44v79h399v-84.5t1 -74.5t3.5 -74t5.5 -85h-7q-40 38 -83 80t-85 77
t-82 57.5t-75 22.5l-1 -4q30 -9 59.5 -32.5t60 -57t61.5 -73.5t63.5 -82t66 -82.5t68.5 -75.5q12 19 21.5 48.5t15.5 62.5t6 66.5t-7.5 60t-23.5 43.5t-44 17q0 49 28.5 73t66.5 24q25 0 50.5 -10.5t46 -31.5t33.5 -52.5t13 -73.5q0 -87 -47.5 -152.5t-133.5 -98.5
q43 -38 87 -61.5t92 -23.5q14 0 26.5 2t26.5 6q3 0 6 -14.5t2 -36t-9 -46t-28 -46t-54 -35.5t-86 -14zM412 101q-28 45 -54.5 96t-51 102t-47.5 100t-46 91q-12 -7 -7 -38.5t20.5 -74.5t39 -91t49.5 -89t52 -68t45 -28z" />
    <glyph glyph-name="S.ss01" horiz-adv-x="631" 
d="M524 80q0 4 -33.5 17.5t-83.5 37.5t-109 58.5t-109 79t-83.5 99.5t-33.5 120q0 50 12 88.5t32.5 64.5t48.5 39.5t59 13.5h78t101 1t105.5 4t91.5 9q-4 -44 -5.5 -80.5t-1.5 -71.5t1 -71.5t2 -81.5h-2q-52 57 -107 106t-103.5 84t-85.5 55t-53 20q-8 0 -8 -8
q0 -10 27.5 -28t69 -44.5t90.5 -61.5t91 -79.5t70.5 -99.5t29.5 -120q1 -64 -15.5 -110.5t-53.5 -75.5t-94.5 -43t-138.5 -14q-77 0 -129 19t-84 50t-45.5 70.5t-13.5 80.5q0 19 2.5 40.5t6.5 42.5t10 39.5t13 31.5h2q21 -46 56.5 -85t78.5 -71t89.5 -56.5t88 -41t74.5 -25
t49 -8.5q13 0 13 5z" />
    <glyph glyph-name="g_i" horiz-adv-x="832" 
d="M35 -232q0 25 9 44.5t24 34t33.5 24t36.5 14.5q-32 11 -52.5 39.5t-20.5 84.5q0 26 9.5 45.5t25.5 33.5t35.5 23t39.5 14q-39 11 -65.5 29.5t-42.5 44t-23 55.5t-7 63q0 42 11.5 77t39 61t73 40.5t113.5 14.5q53 0 91.5 -8.5t65.5 -25.5q-16 33 -26 73.5t0.5 76.5t48 60
t116.5 24q41 0 87 -1.5t85.5 -11.5t65.5 -31.5t26 -60.5q0 -25 -13.5 -42.5t-35 -28t-49 -15t-55.5 -4.5q-44 0 -81.5 9t-50.5 22q8 12 12 37.5t3.5 51.5t-5 45.5t-13.5 19.5q-14 0 -26 -15t-20.5 -39.5t-14 -55.5t-7 -63t1 -62t9.5 -53q19 -41 19 -97q0 -42 -11 -79
t-38 -64.5t-72 -43t-113 -15.5q-23 -3 -47 -9t-43.5 -13t-32 -14.5t-12.5 -13.5q0 -5 12 -5q17 0 51.5 8t75 17t82.5 17t74 8q60 0 86.5 -30.5t26.5 -102.5q0 -88 -31 -151.5t-79.5 -105t-107 -61t-113.5 -19.5q-37 0 -70 8.5t-57.5 25t-39 40.5t-14.5 56zM821 0h-252
q4 24 6.5 54.5t3.5 62t1 63v58.5v58.5t-1 63.5t-3.5 63t-6.5 57l252 20q-4 -26 -6.5 -57.5t-3.5 -65t-1 -66v-61.5v-61t1 -66.5t3.5 -65t6.5 -57.5zM274 133q3 0 6 4.5t5 23t3 55t1 99.5q0 59 -1 93.5t-3 52.5t-5 23.5t-6 5.5q-4 0 -7 -5.5t-5.5 -23.5t-3.5 -52.5t-1 -93.5
q0 -63 1 -99.5t3.5 -55t5.5 -23t7 -4.5zM174 -123q2 -15 16.5 -23.5t34.5 -8.5q53 0 104.5 10.5t92 24t66 26t25.5 17.5q0 4 -7 4q-12 0 -41.5 -8t-70.5 -18t-90.5 -18t-100.5 -8q-8 0 -15 0.5t-14 1.5z" />
    <glyph glyph-name="g_j" horiz-adv-x="835" 
d="M15 -232q0 25 9 44.5t24 34t33.5 24t36.5 14.5q-32 11 -52.5 39.5t-20.5 84.5q0 26 9.5 45.5t25.5 33.5t35.5 23t39.5 14q-39 11 -65.5 29.5t-42.5 44t-23 55.5t-7 63q0 42 11.5 77t39 61t73 40.5t113.5 14.5q52 0 90.5 -8.5t65.5 -24.5q-16 33 -25.5 73.5t0.5 76
t47.5 59.5t116.5 24q41 0 87 -1.5t85.5 -11.5t65.5 -31.5t26 -60.5q0 -25 -13.5 -42.5t-35 -28t-49 -15t-55.5 -4.5q-44 0 -81.5 9t-50.5 22q8 12 12 37.5t3.5 51.5t-5 45.5t-13.5 19.5q-21 0 -36.5 -31t-23.5 -75.5t-7.5 -93t9.5 -83.5q11 -22 16 -47.5t5 -54.5
q0 -42 -11 -79t-38 -64.5t-72 -43t-113 -15.5q-23 -3 -47 -9t-43.5 -13t-32 -14.5t-12.5 -13.5q0 -5 12 -5q17 0 51.5 8t75 17t82.5 17t74 8q60 0 86.5 -30.5t26.5 -102.5q0 -88 -31 -151.5t-79.5 -105t-107 -61t-113.5 -19.5q-37 0 -70 8.5t-57.5 25t-39 40.5t-14.5 56z
M800 -10q0 -90 -20.5 -145.5t-56 -85.5t-83 -40t-101.5 -10q9 21 14.5 50.5t9 61t5 62.5t2 56t0.5 41.5v18.5v239v58.5t-1 63.5t-3.5 63t-6.5 57l252 20q-4 -26 -6.5 -57.5t-3.5 -65t-1 -66v-61.5v-260zM254 133q3 0 6 4.5t5 23t3 55t1 99.5q0 59 -1 93.5t-3 52.5t-5 23.5
t-6 5.5q-4 0 -7 -5.5t-5.5 -23.5t-3.5 -52.5t-1 -93.5q0 -63 1 -99.5t3.5 -55t5.5 -23t7 -4.5zM154 -123q2 -15 16.5 -23.5t34.5 -8.5q53 0 104.5 10.5t92 24t66 26t25.5 17.5q0 4 -7 4q-12 0 -41.5 -8t-70.5 -18t-90.5 -18t-100.5 -8q-8 0 -15 0.5t-14 1.5z" />
    <glyph glyph-name="love, star, spade, heart, diamond, club" horiz-adv-x="729" 
 />
    <glyph glyph-name="stars" horiz-adv-x="667" 
d="M15 584q30 20 49.5 39.5t31.5 40.5t19.5 43t14.5 47h1q7 -25 14.5 -47t20 -43t31.5 -40.5t49 -39.5v-1q-30 -19 -49 -37.5t-31.5 -38t-20 -40t-14.5 -44.5h-1q-7 24 -14.5 44.5t-19.5 40t-31.5 38t-49.5 37.5v1zM411 423q30 20 49.5 39.5t31.5 40.5t19.5 43t14.5 47h1
q7 -25 14.5 -47t20 -43t31.5 -40.5t49 -39.5v-1q-30 -19 -49 -37.5t-31.5 -38t-20 -40t-14.5 -44.5h-1q-7 24 -14.5 44.5t-19.5 40t-31.5 38t-49.5 37.5v1zM116 219q41 27 67.5 54t43 55t27 58.5t19.5 64.5h1q10 -34 20.5 -64.5t27 -58.5t42.5 -55t67 -54v-2
q-41 -25 -67 -50.5t-42.5 -52t-27 -55.5t-20.5 -61h-1q-9 32 -19.5 61t-27 55.5t-43 52t-67.5 50.5v2z" />
    <glyph glyph-name="square" horiz-adv-x="746" 
d="M30 10q-4 99 -5.5 180.5t-1.5 159.5t1.5 159.5t5.5 180.5q101 4 182.5 6t160.5 2t161 -2t182 -6q4 -99 6 -180.5t2 -159.5t-2 -159.5t-6 -180.5q-100 -4 -182 -5.5t-161 -1.5t-160.5 1.5t-182.5 5.5z" />
    </font>
</defs>
</svg>
