<svg width="192" height="39" viewBox="0 0 192 39" fill="none" xmlns="http://www.w3.org/2000/svg">
<path d="M143.12 9.95999C146.72 9.95999 149.36 11.88 150.4 14.2V9.95999H152.72V29.64C152.72 34.76 149.2 38.2 144.16 38.2C139.44 38.2 136.16 35.8 135.44 31.96H137.76C138.56 34.44 140.88 36.12 144.24 36.12C147.76 36.12 150.48 33.8 150.48 29.64V24.52C149.44 26.84 146.88 28.84 143.2 28.84C138.16 28.84 134.48 25.08 134.48 19.4C134.48 13.72 138.08 9.95999 143.12 9.95999ZM143.52 12.04C139.68 12.04 136.72 14.76 136.72 19.4C136.72 24.04 139.68 26.84 143.52 26.84C147.28 26.84 150.32 24.04 150.32 19.48C150.4 14.84 147.28 12.04 143.52 12.04Z" fill="#303030"/>
<path d="M26 18.28C26 15.32 24.32 13.8 21.84 13.8C19.36 13.8 17.68 15.32 17.68 18.28V28.52H12.96V18.28C12.96 15.32 11.28 13.8 8.8 13.8C6.32 13.8 4.64 15.32 4.64 18.28V28.52H0V9.96H4.72V12.2C5.36 11.4 6.24 10.76 7.2 10.28C8.16 9.88 9.2 9.64 10.24 9.64C13.12 9.64 15.52 10.84 16.8 13.16C17.44 12.04 18.4 11.16 19.52 10.52C20.64 9.88 21.92 9.56 23.2 9.56C27.68 9.56 30.8 12.36 30.8 17.48V28.36H26.16V18.28H26Z" fill="#303030"/>
<path d="M39.84 9.95999H35.2V28.52H39.92V9.95999H39.84Z" fill="#303030"/>
<path d="M57.52 18.28C57.52 15.32 55.84 13.72 53.36 13.72C50.88 13.72 49.2 15.32 49.2 18.28V28.52H44.48V9.96H49.2V12.28C49.84 11.48 50.72 10.76 51.68 10.36C52.64 9.88 53.68 9.72 54.8 9.72C59.12 9.72 62.24 12.52 62.24 17.64V28.6H57.52V18.28Z" fill="#303030"/>
<path d="M74 9.64C75.2 9.64 76.32 9.88 77.36 10.36C78.4 10.84 79.36 11.56 80.08 12.52V3.72H84.88V28.52H80.16V25.8C79.04 27.48 76.96 28.84 74.08 28.84C69.36 28.84 65.6 25 65.6 19.16C65.44 13.4 69.2 9.64 74 9.64ZM75.12 13.8C72.64 13.8 70.24 15.64 70.24 19.24C70.24 22.76 72.64 24.76 75.12 24.76C77.6 24.76 80.08 22.84 80.08 19.32C80.08 15.72 77.76 13.8 75.12 13.8Z" fill="#303030"/>
<path d="M130.08 9.95999H127.76V28.52H130.08V9.95999Z" fill="#303030"/>
<path d="M171.84 18.04C171.84 13.96 169.6 11.88 166.24 11.88C162.88 11.88 160.4 14.04 160.4 18.52V28.52H158.08V9.95997H160.4V13.32C161.6 11 163.92 9.87997 166.64 9.87997C170.8 9.87997 174.08 12.44 174.08 17.8V28.52H171.76L171.84 18.04Z" fill="#303030"/>
<path d="M185.6 28.84C181.44 28.84 178.56 26.76 178.24 23.4H180.64C180.88 25.4 182.56 26.84 185.6 26.84C188.24 26.84 189.68 25.48 189.68 23.72C189.68 19.16 178.64 21.88 178.64 14.92C178.64 12.2 181.2 9.95999 185.04 9.95999C188.88 9.95999 191.6 12.04 191.76 15.56H189.44C189.28 13.48 187.76 11.96 185.04 11.96C182.56 11.96 181.04 13.24 181.04 14.84C181.04 19.8 191.84 17.16 192 23.64C192 26.6 189.44 28.84 185.6 28.84Z" fill="#303030"/>
<path d="M40.4801 3.56001C39.7601 3.48001 39.1201 3.16001 38.6401 2.68001C38.1601 2.20001 37.8401 1.56001 37.7601 0.840006C37.7601 0.760006 37.7601 0.760006 37.6801 0.680006C37.6001 0.600006 37.5201 0.600006 37.5201 0.600006C37.4401 0.600006 37.4401 0.600006 37.3601 0.680006C37.2801 0.760006 37.2801 0.760006 37.2801 0.840006C37.2001 1.56001 36.8801 2.20001 36.4001 2.68001C35.9201 3.16001 35.2801 3.48001 34.5601 3.56001C34.4801 3.56001 34.4801 3.56001 34.4001 3.64001C34.4001 3.64001 34.3201 3.72001 34.3201 3.80001C34.4001 3.80001 34.4001 3.80001 34.4001 3.88001C34.4001 3.88001 34.4801 3.96001 34.5601 3.96001C35.2801 4.04001 35.9201 4.36001 36.4001 4.84001C36.8801 5.32001 37.2001 5.96001 37.2801 6.68001C37.2801 6.76001 37.2801 6.76001 37.3601 6.84001C37.4401 6.92001 37.4401 6.92001 37.5201 6.92001C37.6001 6.92001 37.6001 6.92001 37.6801 6.84001C37.6801 6.84001 37.7601 6.76001 37.7601 6.68001C37.8401 5.96001 38.1601 5.32001 38.6401 4.84001C39.1201 4.36001 39.7601 4.04001 40.4801 3.96001C40.5601 3.96001 40.5601 3.96001 40.6401 3.88001C40.6401 3.88001 40.7201 3.80001 40.7201 3.72001C40.7201 3.64001 40.7201 3.64001 40.6401 3.56001C40.5601 3.56001 40.4801 3.56001 40.4801 3.56001Z" fill="#303030"/>
<path d="M97.68 26.84C94.24 26.84 91.28 24.6 91.04 20.28H106.24C106.32 19.64 106.32 19 106.32 18.44C106.32 13.8 103.04 9.95999 97.68 9.95999C92.4 9.95999 88.72 13.56 88.72 19.4C88.72 25.24 92.48 28.84 97.68 28.84C102 28.84 104.88 26.52 105.92 23.4H103.36C102.56 25.48 100.56 26.84 97.68 26.84ZM97.6 11.96C100.96 11.96 104.08 14.12 104 18.36H91.12C91.36 14.12 94.24 11.96 97.6 11.96Z" fill="#303030"/>
<path d="M112.4 14.92C112.4 13.32 113.92 12.04 116.4 12.04C119.2 12.04 120.72 13.56 120.8 15.64H123.12C122.96 12.12 120.32 10.04 116.4 10.04C112.56 10.04 110 12.28 110 15C110 21.88 121.04 19.24 121.04 23.8C121.04 25.56 119.6 26.92 116.96 26.92C114 26.92 112.24 25.48 112 23.48H109.6C109.92 26.84 112.8 28.92 116.96 28.92C120.72 28.92 123.36 26.76 123.36 23.8C123.2 17.24 112.4 19.88 112.4 14.92Z" fill="#303030"/>
</svg>
